<svg display="none" xmlns="http://www.w3.org/2000/svg" xmlns:xlink="http://www.w3.org/1999/xlink">
    
    <symbol id="home" viewBox="0 0 50 50">
        <g>
            <path fill-rule="evenodd" clip-rule="evenodd" d="M24.25 14.5365V0H25.75V0.916667H35.75V9.08333H25.75V14.5365L39.0833 21.2031V27.5833H45.75V47.5833H50V49.0833H0V47.5833H4.25V27.5833H10.9167V21.2031L24.25 14.5365ZM25 15.8385L12.4167 22.1302V47.5833H20.9167V37.5833H29.0833V47.5833H37.5833V22.1302L25 15.8385ZM39.0833 47.5833H44.25V29.0833H39.0833V47.5833ZM27.5833 47.5833V39.0833H22.4167V47.5833H27.5833ZM10.9167 47.5833V29.0833H5.75V47.5833H10.9167ZM25.75 7.58333H34.25V2.41667H25.75V7.58333ZM20.9167 28.3333C20.9167 26.0782 22.7448 24.25 25 24.25C27.2552 24.25 29.0833 26.0782 29.0833 28.3333C29.0833 30.5885 27.2552 32.4167 25 32.4167C22.7448 32.4167 20.9167 30.5885 20.9167 28.3333ZM25 25.75C23.5733 25.75 22.4167 26.9066 22.4167 28.3333C22.4167 29.7601 23.5733 30.9167 25 30.9167C26.4267 30.9167 27.5833 29.7601 27.5833 28.3333C27.5833 26.9066 26.4267 25.75 25 25.75Z" />
        </g>
    </symbol>

    <symbol id="handl" viewBox="0 0 50 50">
        <g>
            <path d="M12.9513 12.4413L7.74398 27.6251C7.74395 27.6252 7.74392 27.6253 7.74389 27.6254C7.6859 27.7991 7.55892 27.9367 7.39919 28.0166C7.30622 28.0631 7.20249 28.086 7.09943 28.086C7.01978 28.086 6.9488 28.0744 6.86776 28.0401L0.388891 25.819L0.388131 25.8188C0.033415 25.6929 -0.163214 25.3032 -0.0364669 24.9452C-0.0364182 24.9451 -0.0363695 24.945 -0.0363207 24.9448L5.40024 9.08562C5.40028 9.08551 5.40031 9.08541 5.40035 9.0853C5.45834 8.91163 5.58532 8.77398 5.74503 8.69412C5.90689 8.61319 6.10161 8.60211 6.27329 8.65933L6.27373 8.65948L6.27373 8.65948L12.7449 10.8609L12.7487 10.8622L12.7486 10.8623C12.804 10.8844 12.8582 10.9167 12.9066 10.9457L13.985 11.3323L13.9853 11.3324C14.8669 11.653 15.8594 11.593 16.7016 11.1819L16.7019 11.1818L17.3367 10.8746L17.3368 10.8746C18.5013 10.3132 19.863 10.2299 21.0798 10.6459L21.08 10.646L33.7247 15.0077C33.7248 15.0077 33.7249 15.0077 33.7251 15.0078C34.002 15.1003 34.197 15.3759 34.1855 15.6756L34.1853 15.681L34.1851 15.681C34.1846 15.6849 34.184 15.6937 34.1831 15.7068C34.1747 15.832 34.1392 16.3582 33.948 16.981C33.7369 17.6688 33.333 18.4856 32.5558 19.0212L32.5556 19.0214C31.5874 19.6843 30.342 19.7518 28.8437 19.2352L12.9513 12.4413ZM12.9513 12.4413L13.535 12.651L13.5352 12.6511C14.7627 13.088 16.1454 13.0047 17.3203 12.4328L17.955 12.1257L17.9555 12.1255C18.7873 11.7146 19.77 11.6544 20.642 11.9551L32.7556 16.1322C32.6553 16.6642 32.3987 17.4692 31.7845 17.8944C31.2195 18.2839 30.3885 18.312 29.3126 17.9364L29.312 17.9362L23.9979 16.1239L23.9979 16.1239L23.9961 16.1233C23.8148 16.0667 23.6198 16.0775 23.4469 16.1697C23.2726 16.2626 23.1593 16.4238 23.1034 16.6026L23.1035 16.6026C23.103 16.6041 23.1023 16.6065 23.1013 16.61C23.0493 16.7886 22.2462 19.548 19.8837 20.808L19.8833 20.8082C18.3513 21.6347 16.4496 21.6693 14.2199 20.9058C13.862 20.779 13.4722 20.9756 13.3464 21.3304C13.2193 21.6884 13.416 22.0784 13.7708 22.2043L13.7716 22.2046C14.976 22.6164 16.1208 22.823 17.1851 22.823C18.4048 22.823 19.523 22.5541 20.5382 22.0051C22.7071 20.8395 23.7716 18.7337 24.1921 17.6409L28.8436 19.2352L12.9513 12.4413ZM11.666 11.9731L6.67398 26.513L1.49146 24.7389L6.48052 10.1875L11.5859 11.933L11.666 11.9731Z" stroke-width="0.15"/>
            <path d="M50.0077 24.1279L50.0084 24.1293C50.1689 24.4732 50.0309 24.8754 49.6873 25.0472L49.6867 25.0475L43.6246 28.0121L40.9602 30.4621L40.9602 30.4622C38.8252 32.4226 36.4335 34.065 33.8261 35.3379L22.0408 41.1026L22.0406 41.1027C21.6724 41.2815 21.2722 41.3765 20.8713 41.3765C20.5756 41.3765 20.2809 41.3237 19.9977 41.2293L19.997 41.229C19.323 40.9973 18.7753 40.5129 18.4594 39.8709C18.2484 39.4581 18.1597 39.0106 18.185 38.5605L17.188 39.0545L50.0077 24.1279ZM50.0077 24.1279L42.615 9.10691L42.6148 9.10649M50.0077 24.1279L42.6148 9.10649M42.6148 9.10649C42.5349 8.94668 42.3971 8.81965 42.2233 8.7617C42.0517 8.70452 41.8572 8.71554 41.6954 8.79633C41.6952 8.79638 41.6951 8.79644 41.695 8.79649L35.5418 11.8065L35.5413 11.8068C35.1977 11.9786 35.0596 12.3808 35.2201 12.7248L35.2207 12.726L42.3635 27.3177L39.9987 29.4812L39.9986 29.4814C37.9664 31.3502 35.6686 32.9127 33.1868 34.1281C33.1868 34.1281 33.1868 34.1281 33.1868 34.1281L21.4015 39.8927L21.4009 39.893C21.0918 40.0476 20.7444 40.0671 20.415 39.9508C20.0853 39.8345 19.8239 39.6021 19.6687 39.2917C19.5142 38.9827 19.4946 38.6352 19.6109 38.3058C19.7272 37.9763 19.9594 37.7149 20.2696 37.5597C20.2697 37.5597 20.2699 37.5596 20.27 37.5595L26.8532 34.3345L26.8538 34.3342C27.1974 34.1624 27.3354 33.7602 27.1749 33.4163L27.1749 33.4162L27.174 33.4144C27.0023 33.071 26.5895 32.9323 26.2552 33.0937L26.2548 33.0939L19.8144 36.2476L19.8144 36.2476L16.5688 37.8345C16.5687 37.8346 16.5686 37.8346 16.5686 37.8346C15.9291 38.1445 15.1452 37.8822 14.8362 37.2447C14.5265 36.606 14.7877 35.8315 15.4265 35.5119C15.4266 35.5118 15.4267 35.5118 15.4268 35.5117L24.8873 30.8839L24.8879 30.8836C25.2314 30.7118 25.3695 30.3096 25.209 29.9656L25.209 29.9656L25.2081 29.9638C25.0364 29.6204 24.6236 29.4817 24.2893 29.6431L24.2889 29.6433L17.2854 33.0734L17.2853 33.0734L14.828 34.2713L14.828 34.2714L13.6711 34.8344L42.6148 9.10649ZM13.3705 36.3161C13.2882 36.323 13.2043 36.3285 13.1202 36.3285C12.1303 36.3285 11.1819 35.7809 10.7183 34.8325C10.2171 33.8097 10.4309 32.6183 11.1759 31.827C10.7308 31.5645 10.3629 31.1822 10.1345 30.7059C9.81857 30.0633 9.77655 29.3362 10.0082 28.6623C10.2399 27.9881 10.7246 27.4404 11.3669 27.1245L11.367 27.1244L15.862 24.923L15.8624 24.9228C16.1967 24.7614 16.6095 24.9001 16.7812 25.2435L16.7821 25.2453L16.7821 25.2453C16.9426 25.5893 16.8046 25.9915 16.461 26.1633L16.4604 26.1636L11.966 28.3647C11.9658 28.3648 11.9657 28.3648 11.9656 28.3649C11.6554 28.5201 11.4232 28.7814 11.3069 29.111C11.1906 29.4404 11.2101 29.7879 11.3647 30.0969C11.5198 30.4073 11.7813 30.6396 12.111 30.756C12.4403 30.8723 12.7878 30.8527 13.0969 30.6982L13.0974 30.6979L16.1282 29.2132L16.1612 29.2806L16.1282 29.2132L21.5653 26.551L21.5656 26.5509C21.8999 26.3895 22.3127 26.5281 22.4845 26.8716L22.4854 26.8734L22.4853 26.8734C22.6458 27.2173 22.5078 27.6195 22.1642 27.7913L22.1637 27.7916L13.6959 31.9384L13.6958 31.9385L12.5286 32.5118L12.5283 32.512C11.8907 32.8211 11.6284 33.6051 11.9385 34.2446C12.2476 34.8821 13.0315 35.1445 13.671 34.8345L13.3705 36.3161ZM13.3705 36.3161C13.3081 36.814 13.3781 37.3371 13.6157 37.8321L13.6159 37.8326C14.0796 38.7809 15.0279 39.3286 16.0179 39.3286C16.4075 39.3286 16.8081 39.2444 17.1877 39.0546L13.3705 36.3161ZM43.5241 26.559L36.7605 12.7378L41.6838 10.3359L48.4373 24.1573L43.5241 26.559Z" stroke-width="0.15"/>
        </g>    
    </symbol>

    <symbol id="deal" viewBox="0 0 50 50">
        <g>
            <path d="M37.1621 47.973H2.70265C2.52345 47.973 2.35159 47.9018 2.22488 47.7751C2.09816 47.6484 2.02698 47.4765 2.02698 47.2973V2.70273C2.02698 2.52353 2.09816 2.35167 2.22488 2.22495C2.35159 2.09824 2.52345 2.02705 2.70265 2.02705H37.1621C37.3413 2.02705 37.5132 2.09824 37.6399 2.22495C37.7666 2.35167 37.8378 2.52353 37.8378 2.70273V13.7298C37.8378 13.909 37.7666 14.0808 37.6399 14.2075C37.5132 14.3342 37.3413 14.4054 37.1621 14.4054C36.9829 14.4054 36.8111 14.3342 36.6843 14.2075C36.5576 14.0808 36.4864 13.909 36.4864 13.7298V3.3784H3.37833V46.6216H36.4864V26.3514C36.4864 26.1722 36.5576 26.0003 36.6843 25.8736C36.8111 25.7469 36.9829 25.6757 37.1621 25.6757C37.3413 25.6757 37.5132 25.7469 37.6399 25.8736C37.7666 26.0003 37.8378 26.1722 37.8378 26.3514V47.2973C37.8378 47.4765 37.7666 47.6484 37.6399 47.7751C37.5132 47.9018 37.3413 47.973 37.1621 47.973Z" />
            <path d="M31.7568 13.5135H8.10817C7.92897 13.5135 7.75711 13.4423 7.6304 13.3156C7.50368 13.1889 7.4325 13.017 7.4325 12.8378C7.4325 12.6586 7.50368 12.4868 7.6304 12.36C7.75711 12.2333 7.92897 12.1621 8.10817 12.1621H31.7568C31.936 12.1621 32.1079 12.2333 32.2346 12.36C32.3613 12.4868 32.4325 12.6586 32.4325 12.8378C32.4325 13.017 32.3613 13.1889 32.2346 13.3156C32.1079 13.4423 31.936 13.5135 31.7568 13.5135Z" />
            <path d="M27.7028 21.6216H8.10817C7.92897 21.6216 7.75711 21.5504 7.6304 21.4237C7.50368 21.297 7.4325 21.1251 7.4325 20.9459C7.4325 20.7667 7.50368 20.5948 7.6304 20.4681C7.75711 20.3414 7.92897 20.2702 8.10817 20.2702H27.7028C27.882 20.2702 28.0538 20.3414 28.1805 20.4681C28.3073 20.5948 28.3784 20.7667 28.3784 20.9459C28.3784 21.1251 28.3073 21.297 28.1805 21.4237C28.0538 21.5504 27.882 21.6216 27.7028 21.6216Z" />
            <path d="M21.1757 29.7297H8.10817C7.92897 29.7297 7.75711 29.6585 7.6304 29.5318C7.50368 29.4051 7.4325 29.2332 7.4325 29.054C7.4325 28.8748 7.50368 28.703 7.6304 28.5763C7.75711 28.4496 7.92897 28.3784 8.10817 28.3784H21.1757C21.3549 28.3784 21.5268 28.4496 21.6535 28.5763C21.7802 28.703 21.8514 28.8748 21.8514 29.054C21.8514 29.2332 21.7802 29.4051 21.6535 29.5318C21.5268 29.6585 21.3549 29.7297 21.1757 29.7297Z" />
            <path d="M20.946 37.8378H8.10817C7.92897 37.8378 7.75711 37.7667 7.6304 37.6399C7.50368 37.5132 7.4325 37.3414 7.4325 37.1622C7.4325 36.983 7.50368 36.8111 7.6304 36.6844C7.75711 36.5577 7.92897 36.4865 8.10817 36.4865H20.946C21.1252 36.4865 21.2971 36.5577 21.4238 36.6844C21.5505 36.8111 21.6217 36.983 21.6217 37.1622C21.6217 37.3414 21.5505 37.5132 21.4238 37.6399C21.2971 37.7667 21.1252 37.8378 20.946 37.8378Z" />
            <path d="M33.3419 32.3568C33.201 32.3568 33.0637 32.3126 32.9493 32.2304L26.9804 27.9561C26.9078 27.9044 26.8462 27.8389 26.799 27.7633C26.7518 27.6877 26.7201 27.6035 26.7055 27.5156C26.691 27.4277 26.6941 27.3377 26.7145 27.251C26.7348 27.1642 26.7722 27.0824 26.8243 27.0101L40.0946 8.47837C40.7662 7.54115 41.7825 6.90909 42.9201 6.72124C44.0577 6.53339 45.2233 6.80513 46.1605 7.47668C47.0977 8.14823 47.7298 9.16459 47.9176 10.3022C48.1055 11.4397 47.8337 12.6053 47.1622 13.5426L33.8919 32.0743C33.8293 32.1618 33.7468 32.233 33.6511 32.2821C33.5555 32.3313 33.4495 32.3568 33.3419 32.3568ZM28.3162 27.2507L33.1865 30.7385L46.0635 12.7561C46.5261 12.1101 46.713 11.3069 46.5833 10.5232C46.4537 9.73936 46.0179 9.0392 45.372 8.57668C44.7261 8.11416 43.9229 7.92719 43.1391 8.05688C42.3553 8.18657 41.6551 8.62231 41.1926 9.26823L28.3162 27.2507Z" />
            <path d="M25.1128 37.5446C25.0107 37.5446 24.9099 37.5215 24.818 37.477C24.7262 37.4325 24.6456 37.3678 24.5823 37.2877C24.519 37.2076 24.4748 37.1142 24.4528 37.0145C24.4308 36.9148 24.4316 36.8114 24.4553 36.7122L26.7155 27.2527C26.7412 27.1449 26.793 27.0451 26.8664 26.9621C26.9397 26.879 27.0324 26.8153 27.1362 26.7765C27.24 26.7377 27.3518 26.7251 27.4616 26.7397C27.5715 26.7542 27.676 26.7956 27.7661 26.8601L33.7351 31.1345C33.8251 31.199 33.898 31.2846 33.9471 31.3839C33.9963 31.4832 34.0203 31.593 34.017 31.7037C34.0138 31.8145 33.9833 31.9227 33.9284 32.0189C33.8734 32.1151 33.7957 32.1963 33.7019 32.2554L25.4729 37.4405C25.3651 37.5085 25.2402 37.5446 25.1128 37.5446ZM27.7972 28.5412L26.1553 35.4128L32.1317 31.6453L27.7972 28.5412Z" />
            <path d="M43.5047 18.1649C43.3638 18.1649 43.2265 18.1207 43.1121 18.0385L37.1425 13.7642C37.0687 13.7132 37.0057 13.6481 36.9573 13.5725C36.9089 13.497 36.876 13.4126 36.8605 13.3242C36.8451 13.2358 36.8474 13.1452 36.8674 13.0577C36.8873 12.9703 36.9245 12.8876 36.9767 12.8147C37.029 12.7417 37.0952 12.6799 37.1716 12.6328C37.248 12.5857 37.333 12.5543 37.4216 12.5404C37.5102 12.5265 37.6008 12.5305 37.6879 12.5519C37.775 12.5734 37.857 12.612 37.929 12.6655L43.8986 16.9399C44.015 17.0232 44.1019 17.1413 44.1467 17.2772C44.1916 17.4131 44.1922 17.5598 44.1484 17.696C44.1046 17.8323 44.0187 17.9511 43.903 18.0354C43.7873 18.1196 43.6478 18.165 43.5047 18.1649Z" />
        </g>
    </symbol>

    <symbol id="deal-second" viewBox="0 0 50 50">
        <g>
            <path d="M37.1621 47.973H2.70265C2.52345 47.973 2.35159 47.9018 2.22488 47.7751C2.09816 47.6484 2.02698 47.4765 2.02698 47.2973V2.70273C2.02698 2.52353 2.09816 2.35167 2.22488 2.22495C2.35159 2.09824 2.52345 2.02705 2.70265 2.02705H37.1621C37.3413 2.02705 37.5132 2.09824 37.6399 2.22495C37.7666 2.35167 37.8378 2.52353 37.8378 2.70273V13.7298C37.8378 13.909 37.7666 14.0808 37.6399 14.2075C37.5132 14.3342 37.3413 14.4054 37.1621 14.4054C36.9829 14.4054 36.8111 14.3342 36.6843 14.2075C36.5576 14.0808 36.4864 13.909 36.4864 13.7298V3.3784H3.37833V46.6216H36.4864V46.3514C36.4864 46.1722 36.5576 46.0003 36.6843 45.8736C36.8111 45.7469 36.9829 45.6757 37.1621 45.6757C37.3413 45.6757 37.5132 45.7469 37.6399 45.8736C37.7666 46.0003 37.8378 46.1722 37.8378 46.3514V47.2973C37.8378 47.4765 37.7666 47.6484 37.6399 47.7751C37.5132 47.9018 37.3413 47.973 37.1621 47.973Z" />
            <path d="M31.7568 13.5135H8.10817C7.92897 13.5135 7.75711 13.4423 7.6304 13.3156C7.50368 13.1889 7.4325 13.017 7.4325 12.8378C7.4325 12.6586 7.50368 12.4868 7.6304 12.36C7.75711 12.2333 7.92897 12.1621 8.10817 12.1621H31.7568C31.936 12.1621 32.1079 12.2333 32.2346 12.36C32.3613 12.4868 32.4325 12.6586 32.4325 12.8378C32.4325 13.017 32.3613 13.1889 32.2346 13.3156C32.1079 13.4423 31.936 13.5135 31.7568 13.5135Z" />
            <path d="M24.7028 21.6216H8.10817C7.92897 21.6216 7.75711 21.5504 7.6304 21.4237C7.50368 21.297 7.4325 21.1251 7.4325 20.9459C7.4325 20.7667 7.50368 20.5948 7.6304 20.4681C7.75711 20.3414 7.92897 20.2702 8.10817 20.2702H24.7028C24.882 20.2702 25.0538 20.3414 25.1805 20.4681C25.3073 20.5948 25.3784 20.7667 25.3784 20.9459C25.3784 21.1251 25.3073 21.297 25.1805 21.4237C25.0538 21.5504 24.882 21.6216 24.7028 21.6216Z" />
            <path d="M21.1757 29.7297H8.10817C7.92897 29.7297 7.75711 29.6585 7.6304 29.5318C7.50368 29.4051 7.4325 29.2332 7.4325 29.054C7.4325 28.8748 7.50368 28.703 7.6304 28.5763C7.75711 28.4496 7.92897 28.3784 8.10817 28.3784H21.1757C21.3549 28.3784 21.5268 28.4496 21.6535 28.5763C21.7802 28.703 21.8514 28.8748 21.8514 29.054C21.8514 29.2332 21.7802 29.4051 21.6535 29.5318C21.5268 29.6585 21.3549 29.7297 21.1757 29.7297Z" />
            <path d="M20.946 37.8378H8.10817C7.92897 37.8378 7.75711 37.7667 7.6304 37.6399C7.50368 37.5132 7.4325 37.3414 7.4325 37.1622C7.4325 36.983 7.50368 36.8111 7.6304 36.6844C7.75711 36.5577 7.92897 36.4865 8.10817 36.4865H20.946C21.1252 36.4865 21.2971 36.5577 21.4238 36.6844C21.5505 36.8111 21.6217 36.983 21.6217 37.1622C21.6217 37.3414 21.5505 37.5132 21.4238 37.6399C21.2971 37.7667 21.1252 37.8378 20.946 37.8378Z" />
            <path d="M31 45H30.25C30.25 45.2841 30.4105 45.5438 30.6646 45.6708C30.9187 45.7979 31.2227 45.7704 31.45 45.6L31 45ZM37 40.5L37.45 39.9C37.1833 39.7 36.8167 39.7 36.55 39.9L37 40.5ZM43 45L42.55 45.6C42.7773 45.7704 43.0813 45.7979 43.3354 45.6708C43.5895 45.5438 43.75 45.2841 43.75 45H43ZM37 35.25C32.4436 35.25 28.75 31.5563 28.75 27H27.25C27.25 32.3848 31.6152 36.75 37 36.75V35.25ZM45.25 27C45.25 31.5563 41.5563 35.25 37 35.25V36.75C42.3848 36.75 46.75 32.3848 46.75 27H45.25ZM37 18.75C41.5563 18.75 45.25 22.4437 45.25 27H46.75C46.75 21.6152 42.3848 17.25 37 17.25V18.75ZM37 17.25C31.6152 17.25 27.25 21.6152 27.25 27H28.75C28.75 22.4437 32.4436 18.75 37 18.75V17.25ZM30.25 33V45H31.75V33H30.25ZM31.45 45.6L37.45 41.1L36.55 39.9L30.55 44.4L31.45 45.6ZM36.55 41.1L42.55 45.6L43.45 44.4L37.45 39.9L36.55 41.1ZM43.75 45V33H42.25V45H43.75Z" />
        </g>
    </symbol>

    <symbol id="consult" viewBox="0 0 45 45">
        <g>
            <path d="M40.3726 10.5479C42.0234 8.97173 42.4666 6.50985 41.469 4.45731C40.4714 2.40476 38.2617 1.23167 36.0022 1.5557C33.7427 1.87936 31.9512 3.62582 31.5707 5.87571C31.1898 8.12597 32.3071 10.3641 34.3341 11.4131C33.4922 12.1179 33.004 13.1585 33 14.2565V20.2552H30.75V14.2565C30.746 11.6006 28.76 9.36533 26.1226 9.04826C27.676 7.56761 28.1715 5.29063 27.3739 3.2985C26.5763 1.306 24.6464 0 22.5 0C20.3536 0 18.4237 1.306 17.6261 3.2985C16.8285 5.29063 17.324 7.56761 18.8774 9.04826C16.24 9.36533 14.254 11.6006 14.25 14.2565V20.2552H12V14.2565C11.996 13.1585 11.5078 12.1179 10.6659 11.4131C12.6929 10.3641 13.8102 8.12597 13.4293 5.87571C13.0485 3.62582 11.2573 1.87936 8.9978 1.5557C6.73828 1.23167 4.52856 2.40476 3.53101 4.45731C2.53345 6.50985 2.97656 8.97173 4.62744 10.5479C1.98999 10.865 0.00402832 13.1003 0 15.7562V27.0038C0.00292969 29.0285 1.17004 30.8713 3 31.739V45H4.5V32.1926C4.74609 32.2278 9.75 32.2527 9.75 32.2527C10.1642 32.2527 10.5 32.5884 10.5 33.0025V45H16.5V30.753H21.75V43.5003H18.75V45H26.25V43.5003H23.25V30.753H28.5V45H34.5V33.0025C34.5 32.5884 34.8358 32.2527 35.25 32.2527C35.25 32.2527 40.2539 32.2278 40.5 32.1926V45H42V31.739C43.83 30.8713 44.9971 29.0285 45 27.0038V15.7562C44.996 13.1003 43.01 10.865 40.3726 10.5479ZM33 6.75809C33 4.68761 34.6791 3.00888 36.75 3.00888C38.8209 3.00888 40.5 4.68761 40.5 6.75809C40.5 8.82858 38.8209 10.5073 36.75 10.5073C34.6798 10.5047 33.0026 8.82784 33 6.75809ZM24.0989 10.5073L22.5 12.9069L20.9011 10.5073H24.0989ZM18.75 5.25841C18.75 3.18792 20.4291 1.5092 22.5 1.5092C24.5709 1.5092 26.25 3.18792 26.25 5.25841C26.25 7.32889 24.5709 9.00762 22.5 9.00762C20.4298 9.00505 18.7526 7.32816 18.75 5.25841ZM15.75 14.2565C15.7562 12.3369 17.2145 10.7336 19.125 10.5454L22.5 15.6061L25.875 10.5432C27.7866 10.7314 29.2449 12.3361 29.25 14.2565V20.2552H26.25V24.7543H18.75V20.2552H15.75V14.2565ZM4.5 6.75809C4.5 4.68761 6.17908 3.00888 8.25 3.00888C10.3209 3.00888 12 4.68761 12 6.75809C12 8.82858 10.3209 10.5073 8.25 10.5073C6.17981 10.5047 4.50256 8.82784 4.5 6.75809ZM15 43.5003H12V33.0025C12 31.7602 10.9926 30.753 9.75 30.753H5.25C3.17981 30.7505 1.50256 29.0736 1.5 27.0038V15.7562C1.50256 13.6864 3.17981 12.0095 5.25 12.007H8.25C9.49255 12.007 10.5 13.0142 10.5 14.2565V21.7549H17.25V24.7543H8.25C7.83582 24.7543 7.5 24.4185 7.5 24.0044V15.0063H6V24.0044C6 25.2467 7.00745 26.254 8.25 26.254H11.25C13.3202 26.2565 14.9974 27.9334 15 30.0032V43.5003ZM16.4399 29.2533C16.2759 28.1132 15.7405 27.0591 14.9169 26.254H30.0831C29.2595 27.0591 28.7241 28.1132 28.5601 29.2533H16.4399ZM43.5 27.0038C43.4974 29.0736 41.8202 30.7505 39.75 30.753H35.25C34.0074 30.753 33 31.7602 33 33.0025V43.5003H30V30.0032C30.0026 27.9334 31.6798 26.2565 33.75 26.254H36.75C37.9926 26.254 39 25.2467 39 24.0044V15.0063H37.5V24.0044C37.5 24.4185 37.1642 24.7543 36.75 24.7543H27.75V21.7549H34.5V14.2565C34.5 13.0142 35.5074 12.007 36.75 12.007H39.75C41.8202 12.0095 43.4974 13.6864 43.5 15.7562V27.0038Z"/>
            <path d="M40.3726 10.5479C42.0234 8.97173 42.4666 6.50985 41.469 4.45731C40.4714 2.40476 38.2617 1.23167 36.0022 1.5557C33.7427 1.87936 31.9512 3.62582 31.5707 5.87571C31.1898 8.12597 32.3071 10.3641 34.3341 11.4131C33.4922 12.1179 33.004 13.1585 33 14.2565V20.2552H30.75V14.2565C30.746 11.6006 28.76 9.36533 26.1226 9.04826C27.676 7.56761 28.1715 5.29063 27.3739 3.2985C26.5763 1.306 24.6464 0 22.5 0C20.3536 0 18.4237 1.306 17.6261 3.2985C16.8285 5.29063 17.324 7.56761 18.8774 9.04826C16.24 9.36533 14.254 11.6006 14.25 14.2565V20.2552H12V14.2565C11.996 13.1585 11.5078 12.1179 10.6659 11.4131C12.6929 10.3641 13.8102 8.12597 13.4293 5.87571C13.0485 3.62582 11.2573 1.87936 8.9978 1.5557C6.73828 1.23167 4.52856 2.40476 3.53101 4.45731C2.53345 6.50985 2.97656 8.97173 4.62744 10.5479C1.98999 10.865 0.00402832 13.1003 0 15.7562V27.0038C0.00292969 29.0285 1.17004 30.8713 3 31.739V45H4.5V32.1926C4.74609 32.2278 9.75 32.2527 9.75 32.2527C10.1642 32.2527 10.5 32.5884 10.5 33.0025V45H16.5V30.753H21.75V43.5003H18.75V45H26.25V43.5003H23.25V30.753H28.5V45H34.5V33.0025C34.5 32.5884 34.8358 32.2527 35.25 32.2527C35.25 32.2527 40.2539 32.2278 40.5 32.1926V45H42V31.739C43.83 30.8713 44.9971 29.0285 45 27.0038V15.7562C44.996 13.1003 43.01 10.865 40.3726 10.5479ZM33 6.75809C33 4.68761 34.6791 3.00888 36.75 3.00888C38.8209 3.00888 40.5 4.68761 40.5 6.75809C40.5 8.82858 38.8209 10.5073 36.75 10.5073C34.6798 10.5047 33.0026 8.82784 33 6.75809ZM24.0989 10.5073L22.5 12.9069L20.9011 10.5073H24.0989ZM18.75 5.25841C18.75 3.18792 20.4291 1.5092 22.5 1.5092C24.5709 1.5092 26.25 3.18792 26.25 5.25841C26.25 7.32889 24.5709 9.00762 22.5 9.00762C20.4298 9.00505 18.7526 7.32816 18.75 5.25841ZM15.75 14.2565C15.7562 12.3369 17.2145 10.7336 19.125 10.5454L22.5 15.6061L25.875 10.5432C27.7866 10.7314 29.2449 12.3361 29.25 14.2565V20.2552H26.25V24.7543H18.75V20.2552H15.75V14.2565ZM4.5 6.75809C4.5 4.68761 6.17908 3.00888 8.25 3.00888C10.3209 3.00888 12 4.68761 12 6.75809C12 8.82858 10.3209 10.5073 8.25 10.5073C6.17981 10.5047 4.50256 8.82784 4.5 6.75809ZM15 43.5003H12V33.0025C12 31.7602 10.9926 30.753 9.75 30.753H5.25C3.17981 30.7505 1.50256 29.0736 1.5 27.0038V15.7562C1.50256 13.6864 3.17981 12.0095 5.25 12.007H8.25C9.49255 12.007 10.5 13.0142 10.5 14.2565V21.7549H17.25V24.7543H8.25C7.83582 24.7543 7.5 24.4185 7.5 24.0044V15.0063H6V24.0044C6 25.2467 7.00745 26.254 8.25 26.254H11.25C13.3202 26.2565 14.9974 27.9334 15 30.0032V43.5003ZM16.4399 29.2533C16.2759 28.1132 15.7405 27.0591 14.9169 26.254H30.0831C29.2595 27.0591 28.7241 28.1132 28.5601 29.2533H16.4399ZM43.5 27.0038C43.4974 29.0736 41.8202 30.7505 39.75 30.753H35.25C34.0074 30.753 33 31.7602 33 33.0025V43.5003H30V30.0032C30.0026 27.9334 31.6798 26.2565 33.75 26.254H36.75C37.9926 26.254 39 25.2467 39 24.0044V15.0063H37.5V24.0044C37.5 24.4185 37.1642 24.7543 36.75 24.7543H27.75V21.7549H34.5V14.2565C34.5 13.0142 35.5074 12.007 36.75 12.007H39.75C41.8202 12.0095 43.4974 13.6864 43.5 15.7562V27.0038Z"/>
        </g>
    </symbol>

    <symbol id="case" viewBox="0 0 45 45">
        <g>
            <path d="M9.7 31.55V31.5V27.7501V27.75H9.75C9.74963 27.5478 9.83297 27.3545 9.98025 27.216L9.7 31.55ZM9.7 31.55H9.75H11.25H11.3V31.5V29.25V27.75C11.3 27.3083 10.942 26.9502 10.5003 26.95M9.7 31.55L10.5003 26.95M10.5003 26.95C10.5004 26.95 10.5005 26.95 10.5006 26.95L10.5 27V26.95C10.5001 26.95 10.5002 26.95 10.5003 26.95ZM33.7 31.55V31.5V27.75C33.7 27.3083 34.0581 26.9501 34.4998 26.95L33.7 31.55ZM33.7 31.55H33.75M33.7 31.55H33.75M33.75 31.55H35.25H35.3M33.75 31.55H35.3M35.3 31.55V31.5M35.3 31.55V31.5M35.3 31.5V29.25V27.7504M35.3 31.5L35.0706 27.1946M35.0706 27.1946C34.9223 27.0378 34.7158 26.9493 34.5 26.95L35.0706 27.1946ZM35.0706 27.1946C35.2189 27.3414 35.3016 27.5417 35.3 27.7504M35.3 27.7504L35.25 27.75M35.3 27.7504V27.75H35.25M35.25 27.75V29.25V31.45L35.0348 27.2295C35.1739 27.3668 35.2515 27.5545 35.25 27.75ZM34.45 10.5V10.55H34.5H42.75C43.965 10.55 44.95 11.535 44.95 12.75V27.7498C44.9462 28.6787 44.3592 29.5052 43.4833 29.8149L43.45 29.8266V29.862V39.75C43.45 40.965 42.465 41.95 41.25 41.95H3.75C2.53496 41.95 1.55 40.965 1.55 39.75V29.862V29.8266L1.51667 29.8149C0.640824 29.5052 0.0538929 28.6788 0.05 27.7499V12.75C0.05 11.535 1.03496 10.55 2.25 10.55H10.5H10.55V10.5V8.25006C10.5533 5.37953 12.8795 3.05325 15.7501 3.05L29.25 3.05C32.1205 3.05327 34.4468 5.37954 34.45 8.25V10.5ZM11.95 8.24994V8.25V10.5V10.55H12H13.4925H13.543L13.5425 10.4995L13.5223 8.2575V8.25726V8.2501C13.5246 7.03601 14.5083 6.05238 15.7223 6.05H29.2499C30.4639 6.05238 31.4474 7.03579 31.45 8.24968C31.45 8.24982 31.45 8.24996 31.45 8.2501L31.42 10.4993L31.4193 10.55H31.47H33H33.05V10.5V8.25C33.0475 6.15237 31.3476 4.45247 29.2501 4.45H29.25L15.75 4.45L15.7499 4.45C13.6524 4.45247 11.9525 6.15237 11.95 8.24994ZM30.05 8.24016L30.05 8.2388C30.0439 7.8013 29.6875 7.45 29.25 7.45H15.7192C15.2774 7.45 14.9192 7.8082 14.9192 8.25L14.9193 8.25052L14.9425 10.5005L14.943 10.55H14.9925H29.97H30.0193L30.02 10.5007L30.05 8.24016ZM3 29.95H2.95V30V39.75C2.95 40.1918 3.3082 40.55 3.75 40.55H41.25C41.6918 40.55 42.05 40.1918 42.05 39.75V30V29.95H42H36.75H36.7V30V32.25C36.7 32.6366 36.3866 32.95 36 32.95H33C32.6134 32.95 32.3 32.6366 32.3 32.25V30V29.95H32.25H12.75H12.7V30V32.25C12.7 32.6366 12.3866 32.95 12 32.95H9C8.61343 32.95 8.3 32.6366 8.3 32.25V30V29.95H8.25H3ZM36.7 28.5V28.55H36.75H42.75C43.1918 28.55 43.55 28.1918 43.55 27.75V12.75C43.55 12.3082 43.1918 11.95 42.75 11.95H2.25C1.8082 11.95 1.45 12.3082 1.45 12.75V27.75C1.45 28.1918 1.8082 28.55 2.25 28.55H8.25H8.3V28.5L8.3 27.7503C8.3 27.7502 8.3 27.7502 8.3 27.7501C8.30687 26.5378 9.28798 25.5568 10.5003 25.55C11.7152 25.5501 12.7 26.535 12.7 27.75V28.5V28.55H12.75H32.25H32.3V28.5V27.75C32.3 26.535 33.2848 25.5501 34.4998 25.55C35.7127 25.5552 36.6948 26.5373 36.7 27.7502V28.5Z"/>
        </g>
    </symbol>

    <symbol id="hamer" viewBox="0 0 50 50">
        <g>
            <path d="M28.1175 48.6656H2.02699C1.84779 48.6656 1.67593 48.5944 1.54922 48.4676C1.42251 48.3409 1.35132 48.1691 1.35132 47.9899V44.921C1.35221 44.1315 1.66622 43.3746 2.22445 42.8164C2.78269 42.2582 3.53956 41.9441 4.32902 41.9433H25.8155C26.605 41.9441 27.3618 42.2582 27.9201 42.8164C28.4783 43.3746 28.7923 44.1315 28.7932 44.921V47.9899C28.7932 48.1691 28.722 48.3409 28.5953 48.4676C28.4686 48.5944 28.2967 48.6656 28.1175 48.6656ZM2.70267 47.3142H27.4419V44.921C27.4413 44.4898 27.2698 44.0764 26.9649 43.7715C26.66 43.4667 26.2467 43.2951 25.8155 43.2946H4.32902C3.89785 43.2951 3.48449 43.4667 3.17961 43.7715C2.87473 44.0764 2.70321 44.4898 2.70267 44.921V47.3142Z" />
            <path d="M23.8736 43.2946H6.27162C6.09242 43.2946 5.92056 43.2234 5.79385 43.0967C5.66713 42.97 5.59595 42.7981 5.59595 42.6189V40.8284C5.59684 40.0389 5.91085 39.282 6.46908 38.7238C7.02732 38.1656 7.78419 37.8516 8.57365 37.8507H21.5709C22.3604 37.8516 23.1173 38.1656 23.6755 38.7238C24.2337 39.282 24.5478 40.0389 24.5486 40.8284V42.6189C24.5486 42.798 24.4776 42.9698 24.351 43.0964C24.2244 43.2231 24.0527 43.2944 23.8736 43.2946ZM6.9473 41.9432H23.198V40.8284C23.1974 40.3972 23.0259 39.9838 22.721 39.679C22.4161 39.3741 22.0028 39.2026 21.5716 39.202H8.57365C8.14248 39.2026 7.72912 39.3741 7.42424 39.679C7.11935 39.9838 6.94783 40.3972 6.9473 40.8284V41.9432Z" />
            <path d="M23.3609 28.9784C23.1817 28.9783 23.0099 28.9071 22.8832 28.7804L14.169 20.0676C14.0423 19.9409 13.9712 19.769 13.9712 19.5899C13.9712 19.4107 14.0423 19.2389 14.169 19.1122L26.5062 6.77364C26.6353 6.65156 26.8062 6.58354 26.9839 6.58354C27.1616 6.58354 27.3325 6.65156 27.4616 6.77364L36.1778 15.4899C36.3045 15.6166 36.3756 15.7884 36.3756 15.9676C36.3756 16.1467 36.3045 16.3186 36.1778 16.4453L23.8386 28.7804C23.7119 28.9071 23.5401 28.9783 23.3609 28.9784ZM15.6021 19.5865L23.3609 27.3473L34.742 15.9655L26.9839 8.20675L15.6021 19.5865Z" />
            <path d="M37.9055 18.4892C37.7022 18.4896 37.5008 18.4498 37.313 18.3721C37.1251 18.2944 36.9545 18.1804 36.8109 18.0365L24.9129 6.13586C24.7691 5.99216 24.655 5.82153 24.5771 5.63371C24.4993 5.44589 24.4592 5.24458 24.4592 5.04126C24.4592 4.83795 24.4993 4.63664 24.5771 4.44882C24.655 4.261 24.7691 4.09037 24.9129 3.94667L27.0751 1.78451C27.3655 1.49474 27.759 1.332 28.1693 1.332C28.5796 1.332 28.9731 1.49474 29.2636 1.78451L41.1616 13.6886C41.4515 13.979 41.6144 14.3727 41.6144 14.7832C41.6144 15.1936 41.4515 15.5873 41.1616 15.8778L38.9994 18.0399C38.8556 18.1831 38.6849 18.2965 38.4972 18.3736C38.3095 18.4507 38.1084 18.49 37.9055 18.4892ZM28.1663 2.68586C28.1404 2.68578 28.1148 2.69082 28.091 2.70067C28.0671 2.71053 28.0454 2.72501 28.0271 2.74329L25.8649 4.90545C25.8282 4.94231 25.8075 4.99225 25.8075 5.04431C25.8075 5.09636 25.8282 5.1463 25.8649 5.18316L37.7703 17.0811C37.8073 17.1179 37.8574 17.1386 37.9095 17.1386C37.9617 17.1386 38.0117 17.1179 38.0487 17.0811L40.2109 14.919C40.2477 14.882 40.2683 14.8319 40.2683 14.7798C40.2683 14.7276 40.2477 14.6776 40.2109 14.6406L28.3055 2.74329C28.2872 2.72504 28.2655 2.71058 28.2416 2.70072C28.2177 2.69087 28.1921 2.68582 28.1663 2.68586Z" />
            <path d="M22.1785 34.2189C21.9752 34.2193 21.7738 34.1795 21.586 34.1018C21.3981 34.0241 21.2275 33.9101 21.0839 33.7662L9.18318 21.8649C9.03935 21.7212 8.92525 21.5505 8.84741 21.3627C8.76956 21.1749 8.72949 20.9736 8.72949 20.7703C8.72949 20.5669 8.76956 20.3656 8.84741 20.1778C8.92525 19.99 9.03935 19.8194 9.18318 19.6757L11.3453 17.5135C11.6401 17.2318 12.0322 17.0746 12.4399 17.0746C12.8477 17.0746 13.2397 17.2318 13.5345 17.5135L25.4325 29.4182C25.7221 29.7088 25.8847 30.1023 25.8847 30.5125C25.8847 30.9227 25.7221 31.3162 25.4325 31.6067L23.2703 33.7689C23.1268 33.912 22.9565 34.0253 22.7692 34.1025C22.5818 34.1798 22.3811 34.2193 22.1785 34.2189ZM12.4366 18.4149C12.4108 18.4147 12.3853 18.4197 12.3615 18.4295C12.3377 18.4394 12.3161 18.4539 12.298 18.4723L10.1359 20.6344C10.0991 20.6713 10.0785 20.7212 10.0785 20.7733C10.0785 20.8254 10.0991 20.8753 10.1359 20.9122L22.0393 32.8108C22.0762 32.8476 22.1263 32.8683 22.1785 32.8683C22.2306 32.8683 22.2807 32.8476 22.3176 32.8108L24.4798 30.6486C24.5166 30.6117 24.5373 30.5616 24.5373 30.5094C24.5373 30.4573 24.5166 30.4072 24.4798 30.3703L12.5757 18.4723C12.5575 18.4539 12.5359 18.4394 12.512 18.4295C12.488 18.4196 12.4624 18.4147 12.4366 18.4149Z" />
            <path d="M45.5289 41.2521C45.1192 41.2529 44.7134 41.1728 44.3348 41.0162C43.9562 40.8597 43.6123 40.6298 43.3228 40.3399L27.3228 24.3399C27.1962 24.2132 27.125 24.0414 27.125 23.8622C27.125 23.683 27.1962 23.5112 27.3228 23.3845L30.7796 19.9284C30.9063 19.8017 31.0781 19.7306 31.2573 19.7306C31.4365 19.7306 31.6083 19.8017 31.735 19.9284L47.7343 35.9277C48.1709 36.3638 48.4682 36.9197 48.5887 37.5249C48.7092 38.13 48.6475 38.7574 48.4113 39.3274C48.1751 39.8975 47.7751 40.3847 47.2618 40.7273C46.7486 41.0699 46.1453 41.2525 45.5282 41.2521H45.5289ZM28.7566 23.8622L44.2782 39.3845C44.441 39.555 44.6361 39.6912 44.8522 39.7851C45.0684 39.8791 45.3011 39.9289 45.5367 39.9316C45.7724 39.9344 46.0062 39.89 46.2244 39.8011C46.4427 39.7121 46.6409 39.5805 46.8076 39.4139C46.9742 39.2472 47.1059 39.0489 47.1948 38.8307C47.2837 38.6125 47.3281 38.3786 47.3254 38.143C47.3226 37.9074 47.2728 37.6746 47.1789 37.4585C47.0849 37.2424 46.9487 37.0472 46.7782 36.8845L31.2573 21.3615L28.7566 23.8622Z" />
        </g>
    </symbol>

    

    
</svg>