<svg width="184" height="183" viewBox="0 0 184 183" fill="none" xmlns="http://www.w3.org/2000/svg">
<path d="M78.4196 177.682L77.2621 177.406L78.1718 173.593L76.524 173.2C76.2059 173.93 75.7586 174.538 75.182 175.024C74.5942 175.517 73.9289 175.853 73.186 176.03C72.4319 176.215 71.6463 176.21 70.8292 176.015C70.1302 175.848 69.5205 175.569 69.0001 175.176C68.4685 174.79 68.0378 174.323 67.7082 173.774C67.3764 173.234 67.1639 172.636 67.0708 171.981C66.9665 171.332 66.9977 170.658 67.1645 169.959C67.3291 169.269 67.6054 168.654 67.9935 168.113C68.3725 167.571 68.8329 167.129 69.3748 166.788C69.9145 166.456 70.5098 166.233 71.1605 166.12C71.8 166.013 72.4693 166.044 73.1684 166.21C73.8493 166.373 74.4521 166.641 74.9768 167.016C75.4993 167.4 75.9276 167.857 76.2616 168.388C76.5934 168.927 76.8136 169.512 76.9223 170.143C77.0288 170.782 77.0099 171.445 76.8656 172.13L78.4317 172.503L79.5363 167.873L80.6938 168.15L78.4196 177.682ZM75.6075 171.974C75.7786 171.256 75.777 170.58 75.6026 169.943C75.4191 169.304 75.094 168.757 74.6273 168.3C74.1605 167.843 73.5822 167.532 72.8922 167.368C72.1932 167.201 71.5368 167.217 70.9232 167.416C70.3005 167.613 69.7677 167.956 69.3248 168.445C68.8727 168.932 68.5612 169.535 68.3901 170.252C68.219 170.969 68.2252 171.647 68.4086 172.286C68.583 172.922 68.9036 173.469 69.3703 173.926C69.828 174.38 70.4063 174.691 71.1054 174.858C71.7954 175.022 72.4517 175.006 73.0744 174.809C73.6971 174.612 74.2344 174.27 74.6864 173.783C75.1294 173.294 75.4364 172.691 75.6075 171.974Z" fill="#CAD3D6"/>
<path d="M56.3189 170.918L53.9396 169.728C53.3719 169.444 52.9211 169.083 52.5871 168.645C52.2407 168.211 52.0361 167.733 51.9734 167.211C51.9024 166.686 52.0026 166.151 52.2738 165.609C52.5409 165.074 52.9082 164.674 53.3757 164.406C53.8306 164.143 54.3377 164.016 54.897 164.024C55.4438 164.037 56.0011 164.185 56.5688 164.469L57.8836 165.126L59.6364 161.62L60.7008 162.152L56.3189 170.918ZM54.4404 168.726L55.7553 169.384L57.3828 166.128L56.068 165.471C55.5003 165.187 54.9723 165.095 54.4839 165.195C53.9872 165.291 53.6053 165.606 53.3382 166.141C53.067 166.683 53.0441 167.178 53.2695 167.625C53.4824 168.075 53.8727 168.443 54.4404 168.726Z" fill="#CAD3D6"/>
<path d="M41.3096 162.246L45.757 156.465L35.1297 158.11L41.4039 149.954L42.3471 150.68L37.8997 156.461L48.527 154.816L42.2528 162.971L41.3096 162.246Z" fill="#CAD3D6"/>
<path d="M31.117 139.115L36.3036 144.994L37.4584 143.976L38.1531 144.763L36.1583 146.523L35.3248 145.578L25.9939 148.862L30.416 140.014L29.5825 139.069L31.5772 137.309L32.2718 138.096L31.117 139.115ZM28.0201 147.075L34.5005 144.643L31.2403 140.948L28.0201 147.075Z" fill="#CAD3D6"/>
<path d="M18.6163 138.178L24.907 134.486L14.438 132.027L23.3126 126.818L23.9149 127.845L17.6242 131.537L28.0932 133.996L19.2186 139.204L18.6163 138.178Z" fill="#CAD3D6"/>
<path d="M10.9911 122.969L13.3945 122.123C13.7906 121.983 14.1299 121.794 14.4122 121.556C14.6915 121.31 14.883 121.025 14.9868 120.701C15.0906 120.378 15.0758 120.027 14.9425 119.648L14.1986 117.535L9.64274 119.139L9.24752 118.017L18.4913 114.762L18.8865 115.884L15.189 117.186L15.9329 119.299C16.1468 119.907 16.1901 120.465 16.0629 120.975C15.9269 121.488 15.6584 121.934 15.2574 122.313C14.8533 122.682 14.3563 122.971 13.7665 123.179L11.3631 124.025L10.9911 122.969Z" fill="#CAD3D6"/>
<path d="M6.80971 108.596L5.95864 103.061L7.06563 102.891L7.73585 107.25L10.5033 106.824L9.87566 102.742L10.9827 102.572L11.6103 106.654L15.208 106.101L14.5378 101.742L15.6448 101.572L16.4959 107.107L6.80971 108.596Z" fill="#CAD3D6"/>
<path d="M10.136 92.1269C10.8918 92.1428 11.5626 91.9889 12.1481 91.6651C12.7339 91.332 13.1959 90.8936 13.5341 90.3499C13.8722 89.8063 14.0481 89.2125 14.0616 88.5686C14.0761 87.8781 13.9537 87.2641 13.6942 86.7265C13.4348 86.1889 13.0941 85.743 12.6721 85.3887L14.2398 85.4217C14.5951 85.8399 14.8563 86.2935 15.0234 86.7824C15.1905 87.2714 15.2665 87.8751 15.2514 88.5936C15.237 89.2748 15.1023 89.9114 14.8471 90.5036C14.5828 91.0861 14.222 91.5967 13.7647 92.0352C13.2981 92.4734 12.7542 92.8121 12.133 93.0511C11.5119 93.2901 10.8374 93.402 10.1095 93.3867C9.3817 93.3714 8.71249 93.2313 8.10192 92.9664C7.49135 92.7015 6.96682 92.3404 6.52833 91.8831C6.08051 91.4256 5.74147 90.9004 5.51121 90.3074C5.27181 89.7049 5.15927 89.0631 5.17358 88.3819C5.18868 87.6634 5.28997 87.0634 5.47746 86.5819C5.66495 86.1004 5.94497 85.6581 6.31751 85.2552L7.88517 85.2882C7.43934 85.6242 7.0802 86.0554 6.80775 86.5818C6.52597 87.108 6.37783 87.7164 6.36332 88.4069C6.34979 89.0507 6.50054 89.6514 6.81556 90.2088C7.13059 90.7662 7.57375 91.2236 8.14503 91.581C8.70718 91.9289 9.37084 92.1109 10.136 92.1269Z" fill="#CAD3D6"/>
<path d="M6.20666 78.7496L6.42952 77.5807L10.569 78.3698L7.15052 73.7988L7.42581 72.3548L11.1422 77.3817L17.0918 73.9838L16.8165 75.4278L11.3803 78.5245L16.0561 79.4159L15.8333 80.5849L6.20666 78.7496Z" fill="#CAD3D6"/>
<path d="M10.2046 62.9165L16.9934 65.5838L12.4618 55.8313L22.0392 59.5941L21.604 60.7017L14.8152 58.0344L19.3468 67.7869L9.76943 64.0241L10.2046 62.9165Z" fill="#CAD3D6"/>
<path d="M15.8023 44.7647L16.341 43.9294C16.443 43.9951 16.5823 44.0461 16.7589 44.0822C16.9276 44.1133 17.115 44.0897 17.3209 44.0115C17.519 43.9282 17.7065 43.7493 17.8835 43.4747C18.0606 43.2002 18.1461 42.9555 18.1403 42.7408C18.1266 42.5209 18.0707 42.3405 17.9728 42.1996C17.867 42.0537 17.7631 41.9478 17.6612 41.8821L18.1998 41.0467C18.4665 41.2187 18.6838 41.4587 18.8516 41.7668C19.0166 42.062 19.093 42.4 19.0807 42.7808C19.0605 43.1565 18.9164 43.5522 18.6483 43.9679C18.3853 44.3758 18.0843 44.6703 17.7453 44.8516C17.4036 45.0199 17.0617 45.0937 16.7196 45.073C16.3748 45.0395 16.069 44.9367 15.8023 44.7647ZM17.5163 47.4025L23.6464 51.3554L21.1257 40.9011L29.7736 46.4775L29.1287 47.4776L22.9987 43.5248L25.5194 53.9791L16.8714 48.4026L17.5163 47.4025Z" fill="#CAD3D6"/>
<path d="M34.4358 27.0198L35.3551 26.2641L38.0313 29.5192L38.329 23.819L39.4645 22.8855L39.104 29.1266L45.8504 30.3221L44.7149 31.2557L38.5558 30.1572L41.5788 33.8341L40.6596 34.5898L34.4358 27.0198Z" fill="#CAD3D6"/>
<path d="M57.1757 23.31L54.6441 21.3638L51.2073 23.3067L51.5695 26.4792L50.4117 27.1338L49.3086 15.9369L58.3335 22.6554L57.1757 23.31ZM50.6383 18.2891L51.0705 22.0975L53.6786 20.6231L50.6383 18.2891Z" fill="#CAD3D6"/>
<path d="M59.9863 11.329L64.9449 9.60422L65.3129 10.662L61.4782 11.9959L62.3981 14.6405L63.7865 14.1575C64.386 13.949 64.9591 13.8781 65.5061 13.9448C66.0588 13.9996 66.5438 14.1866 66.9612 14.5059C67.3874 14.8221 67.7002 15.2667 67.8995 15.8397C68.0957 16.4038 68.1264 16.9465 67.9915 17.4678C67.8623 17.9772 67.5996 18.4292 67.2033 18.824C66.8128 19.2069 66.3178 19.5026 65.7183 19.7111L63.206 20.585L59.9863 11.329ZM64.1545 15.2154L62.7661 15.6983L63.962 19.1363L65.3504 18.6533C65.9498 18.4448 66.384 18.1307 66.6531 17.711C66.931 17.2883 66.9718 16.7948 66.7755 16.2306C66.5762 15.6576 66.238 15.296 65.7608 15.1458C65.2894 14.9837 64.7539 15.0069 64.1545 15.2154Z" fill="#CAD3D6"/>
<path d="M76.6721 6.63173L77.7085 13.8517L83.9472 5.09234L85.4093 15.2779L84.2314 15.447L83.195 8.22703L76.9563 16.9864L75.4942 6.80083L76.6721 6.63173Z" fill="#CAD3D6"/>
<path d="M92.5844 5.25436L93.7725 5.32072L93.5539 9.23462L98.9356 9.53519L99.1542 5.62129L100.342 5.68765L99.7958 15.4724L98.6077 15.406L98.8731 10.6534L93.4915 10.3529L93.2261 15.1055L92.0379 15.0391L92.5844 5.25436Z" fill="#CAD3D6"/>
<path d="M109.574 7.11295L115.003 8.48738L114.728 9.57312L110.453 8.49076L109.766 11.2051L113.77 12.2188L113.495 13.3045L109.491 12.2909L108.598 15.8195L112.873 16.9019L112.598 17.9876L107.169 16.6132L109.574 7.11295Z" fill="#CAD3D6"/>
<path d="M123.457 12.4612L123.915 11.4393L129.6 13.9884L129.141 15.0103L126.842 13.9792L123.29 21.8994L122.205 21.4125L125.756 13.4923L123.457 12.4612Z" fill="#CAD3D6"/>
<path d="M144.715 36.2299L145.733 33.2034L142.779 30.5844L139.896 31.9579L138.901 31.0756L149.132 26.3939L145.71 37.1122L144.715 36.2299ZM147.339 28.4158L143.878 30.0621L146.12 32.0495L147.339 28.4158Z" fill="#CAD3D6"/>
<path d="M158.415 36.4783L159.133 37.4277L156.005 39.7911L159.255 44.0913L162.383 41.728L163.1 42.6774L155.281 48.5857L154.564 47.6363L158.361 44.7666L155.112 40.4663L151.314 43.3361L150.597 42.3867L158.415 36.4783Z" fill="#CAD3D6"/>
<path d="M168.547 51.7635L161.975 54.9279L172.207 58.2363L162.936 62.7005L162.42 61.6283L168.992 58.4639L158.759 55.1556L168.03 50.6913L168.547 51.7635Z" fill="#CAD3D6"/>
<path d="M174.288 78.8816L167.626 78.829L167.505 77.6451L177.863 77.7853L171.199 82.405L178.658 85.5849L168.542 87.8124L168.421 86.6285L174.935 85.2327L168.929 82.6365L174.288 78.8816Z" fill="#CAD3D6"/>
<path d="M167.711 103.841L170.769 102.923L171.199 98.9986L168.412 97.4397L168.557 96.1176L178.29 101.762L167.566 105.163L167.711 103.841ZM175.604 101.467L172.261 99.5938L171.934 102.572L175.604 101.467Z" fill="#CAD3D6"/>
<path d="M175.798 113.19L175.452 114.329L171.702 113.189L170.134 118.346L173.884 119.486L173.538 120.624L164.162 117.774L164.508 116.635L169.062 118.02L170.63 112.863L166.076 111.478L166.422 110.34L175.798 113.19Z" fill="#CAD3D6"/>
<path d="M169.444 127.737L170.44 128.249L167.591 133.79L166.595 133.278L167.747 131.037L160.028 127.068L160.572 126.009L168.291 129.978L169.444 127.737Z" fill="#CAD3D6"/>
<path d="M151.107 140.759L154.208 141.522L156.573 138.361L154.965 135.602L155.762 134.537L161.275 144.345L150.31 141.824L151.107 140.759ZM159.112 142.726L157.184 139.413L155.39 141.812L159.112 142.726Z" fill="#CAD3D6"/>
<path d="M139.694 153.464L145.403 160.002L144.506 160.785L138.061 153.403L146.762 145.806L153.207 153.189L152.311 153.971L146.602 147.433L143.596 150.057L149.305 156.596L148.409 157.378L142.7 150.839L139.694 153.464Z" fill="#CAD3D6"/>
<path d="M131.66 168.768L126.902 160.2L127.943 159.623L129.846 163.049L130.886 162.472L131.37 157.719L132.655 157.006L132.054 161.951C132.74 161.763 133.392 161.774 134.011 161.985C134.627 162.209 135.113 162.644 135.471 163.288C135.766 163.819 135.893 164.346 135.853 164.87C135.805 165.398 135.617 165.887 135.29 166.336C134.967 166.792 134.533 167.173 133.986 167.476L131.66 168.768ZM131.641 163.254L130.356 163.967L132.191 167.272L133.476 166.558C134.023 166.255 134.392 165.863 134.585 165.382C134.777 164.902 134.726 164.396 134.431 163.866C134.141 163.344 133.739 163.033 133.225 162.934C132.716 162.844 132.188 162.95 131.641 163.254Z" fill="#CAD3D6"/>
<path d="M122.967 172.747L121.838 173.122L120.601 169.403L115.486 171.103L116.723 174.823L115.594 175.198L112.502 165.899L113.631 165.524L115.133 170.04L120.247 168.34L118.746 163.823L119.875 163.448L122.967 172.747Z" fill="#CAD3D6"/>
</svg>
