<svg width="32" height="32" viewBox="0 0 32 32" fill="none" xmlns="http://www.w3.org/2000/svg">
<path d="M16 27.2001L15.488 26.6241C15.168 26.3041 7.67999 17.4721 7.67999 12.1601C7.67999 7.55209 11.392 3.84009 16 3.84009C20.608 3.84009 24.32 7.55209 24.32 12.1601C24.32 17.4721 16.832 26.3041 16.512 26.6881L16 27.2001ZM16 5.12009C12.096 5.12009 8.95999 8.25609 8.95999 12.1601C8.95999 16.2561 14.336 23.1681 16 25.2161C17.664 23.1681 23.04 16.2561 23.04 12.1601C23.04 8.25609 19.904 5.12009 16 5.12009Z" fill="#0FBCB2"/>
<path d="M16 15.36C14.208 15.36 12.8 13.952 12.8 12.16C12.8 10.368 14.208 8.95996 16 8.95996C17.792 8.95996 19.2 10.368 19.2 12.16C19.2 13.952 17.792 15.36 16 15.36ZM16 10.24C14.912 10.24 14.08 11.072 14.08 12.16C14.08 13.248 14.912 14.08 16 14.08C17.088 14.08 17.92 13.248 17.92 12.16C17.92 11.072 17.088 10.24 16 10.24Z" fill="#0FBCB2"/>
</svg>
