<svg width="191" height="44" viewBox="0 0 191 44" fill="none" xmlns="http://www.w3.org/2000/svg">
<path d="M56.6168 20.9264H58.1902L60.3602 14.5737H60.4455L62.5827 20.9264H64.1037L66.9292 12.5741H65.6771L63.4349 19.707H63.3497L60.9306 12.5741H59.9079L57.5018 19.707H57.4232L55.0499 12.5741H53.7584L56.6168 20.9264ZM70.7907 20.9264H72.3575L74.5341 14.5737H74.6128L76.7566 20.9264H78.2775L81.0966 12.5741H79.8444L77.6088 19.707H77.5236L75.0979 12.5741H74.0817L71.6757 19.707H71.5905L69.2173 12.5741H67.9323L70.7907 20.9264ZM84.958 20.9264H86.5314L88.7014 14.5737H88.7867L90.9239 20.9264H92.4449L95.2705 12.5741H94.0183L91.7762 19.707H91.6909L89.2718 12.5741H88.2491L85.8431 19.707H85.7578L83.3846 12.5741H82.0996L84.958 20.9264ZM97.5913 19.1235C96.975 19.1235 96.6079 19.5365 96.6079 20.0938C96.6079 20.6445 96.975 21.0575 97.5913 21.0575C98.2075 21.0575 98.5746 20.6445 98.5746 20.0938C98.5746 19.5365 98.2075 19.1235 97.5913 19.1235ZM100.502 12.5741V17.4517C100.502 19.8381 101.636 21.0903 103.944 21.0903C105.36 21.0903 106.416 20.592 107.235 19.4579L107.366 20.9264H108.369V12.5741H107.169V18.186C106.396 19.4382 105.511 20.0544 103.944 20.0544C102.469 20.0544 101.702 19.1038 101.702 17.4649V12.5741H100.502ZM110.539 8.72583V20.9264H111.745V17.4321L113.312 16.5143L116.761 20.9264H118.144L118.177 20.7953L114.269 15.8456L117.908 12.7053L117.895 12.5741H116.374L113.398 15.2096L111.745 16.3307V8.72583H110.539ZM119.18 15.8652V16.9338H123.992V15.8652H119.18ZM126.516 14.0951C127.604 13.6428 128.502 13.4592 129.538 13.4592C131.38 13.4592 131.964 14.023 131.964 15.3145V15.9308C129.46 15.9963 127.853 16.1996 126.332 16.665C125.795 17.2813 125.611 17.8517 125.611 18.6056C125.611 20.1266 126.503 21.0903 128.502 21.0903C129.892 21.0903 131.243 20.6904 132.213 19.6545C132.298 20.7231 132.685 21.0903 133.354 21.0903C133.721 21.0903 134.003 21.0247 134.272 20.9264V20.0741C133.4 20.0413 133.151 19.7725 133.151 18.8875V15.2621C133.151 13.256 132.029 12.4037 129.623 12.4037C128.306 12.4037 127.335 12.6069 126.201 13.0921L126.516 14.0951ZM131.964 18.7564C130.981 19.7201 129.892 20.0413 128.62 20.0413C127.434 20.0413 126.85 19.5234 126.85 18.5007C126.85 18.0877 126.968 17.7205 127.283 17.3534C128.424 17.0518 129.774 16.8486 131.964 16.8158V18.7564ZM135.806 12.5741V20.9264H137.012V15.2424C137.694 14.1279 138.73 13.4395 140.165 13.4395C141.621 13.4395 142.244 14.3901 142.244 16.0619V20.9264H143.443V16.0488C143.443 15.662 143.411 15.4129 143.358 15.1113C144.145 14.0427 145.148 13.4395 146.466 13.4395C147.921 13.4395 148.537 14.3442 148.537 16.0816V20.9264H149.744V16.0488C149.744 13.61 148.708 12.4037 146.466 12.4037C145.148 12.4037 143.994 12.8888 143.043 14.0558C142.473 12.9413 141.588 12.4037 140.165 12.4037C139.018 12.4037 137.831 12.8036 136.907 14.1082L136.796 12.5741H135.806ZM152.648 19.1235C152.032 19.1235 151.664 19.5365 151.664 20.0938C151.664 20.6445 152.032 21.0575 152.648 21.0575C153.271 21.0575 153.638 20.6445 153.638 20.0938C153.638 19.5365 153.271 19.1235 152.648 19.1235ZM162.691 12.9544C161.859 12.5545 161.02 12.4037 159.754 12.4037C157.08 12.4037 155.06 14.1738 155.06 16.7962C155.06 19.2415 156.745 21.0903 159.518 21.0903C160.771 21.0903 161.793 20.9067 162.809 20.4085L162.41 19.4251C161.577 19.8381 160.653 20.0217 159.604 20.0217C157.761 20.0217 156.28 18.7564 156.28 16.7634C156.28 14.5934 157.63 13.4395 159.853 13.4395C160.705 13.4395 161.439 13.5575 162.16 13.905L162.691 12.9544ZM173.319 16.7503C173.319 14.0755 171.28 12.4037 168.69 12.4037C166.101 12.4037 164.062 14.0755 164.062 16.7503C164.062 19.4251 166.101 21.0903 168.69 21.0903C171.28 21.0903 173.319 19.4251 173.319 16.7503ZM165.281 16.7503C165.281 14.7245 166.691 13.4068 168.69 13.4068C170.716 13.4068 172.099 14.7245 172.099 16.7503C172.099 18.7695 170.696 20.0938 168.69 20.0938C166.691 20.0938 165.281 18.7695 165.281 16.7503ZM174.99 12.5741V20.9264H176.197V15.2424C176.878 14.1279 177.914 13.4395 179.357 13.4395C180.805 13.4395 181.428 14.3901 181.428 16.0619V20.9264H182.628V16.0488C182.628 15.662 182.595 15.4129 182.543 15.1113C183.329 14.0427 184.333 13.4395 185.65 13.4395C187.106 13.4395 187.728 14.3442 187.728 16.0816V20.9264H188.928V16.0488C188.928 13.61 187.892 12.4037 185.65 12.4037C184.333 12.4037 183.179 12.8888 182.228 14.0558C181.658 12.9413 180.773 12.4037 179.357 12.4037C178.203 12.4037 177.016 12.8036 176.098 14.1082L175.98 12.5741H174.99Z" fill="#222222"/>
<path d="M61.2649 30.9045C61.2649 31.7218 61.042 32.4102 60.5962 32.9696C60.1155 33.5728 59.4839 33.8744 58.7016 33.8744C57.9411 33.8744 57.3205 33.5772 56.8397 32.9828C56.3895 32.4233 56.1644 31.7502 56.1644 30.9635H55.2991V32.4255C55.2991 32.8844 55.345 33.1838 55.4367 33.3237C55.5285 33.4591 55.7318 33.5269 56.0464 33.5269V33.7891H53.7584V33.5269C54.0731 33.5269 54.2763 33.457 54.3681 33.3171C54.4599 33.1772 54.5058 32.88 54.5058 32.4255V29.2852C54.5058 28.8307 54.4599 28.5357 54.3681 28.4002C54.2763 28.2603 54.0731 28.1904 53.7584 28.1904V27.9216H56.0464V28.1904C55.7361 28.1904 55.5329 28.2603 55.4367 28.4002C55.345 28.54 55.2991 28.835 55.2991 29.2852V30.5898H56.171C56.171 29.8468 56.407 29.2087 56.879 28.6755C57.3685 28.1161 57.9848 27.8364 58.7278 27.8364C59.5014 27.8364 60.1286 28.1576 60.6094 28.8001C61.0464 29.3857 61.2649 30.0872 61.2649 30.9045ZM60.3733 30.839C60.3733 30.1615 60.2619 29.578 60.039 29.0885C59.7462 28.4286 59.3091 28.0986 58.7278 28.0986C58.1465 28.0986 57.7095 28.422 57.4166 29.0689C57.185 29.5715 57.0692 30.1571 57.0692 30.8259C57.0692 31.4946 57.1784 32.0824 57.397 32.5894C57.6898 33.2712 58.1247 33.6121 58.7016 33.6121C59.3047 33.6121 59.7505 33.2843 60.039 32.6287C60.2619 32.1305 60.3733 31.5339 60.3733 30.839ZM65.7492 31.7306C65.7492 32.29 65.6203 32.7708 65.3624 33.1729C65.0652 33.6405 64.6478 33.8744 64.1102 33.8744C63.9179 33.8744 63.7365 33.8328 63.5661 33.7498C63.3956 33.6624 63.2361 33.5422 63.0875 33.3892V34.0907C63.0875 34.4753 63.1115 34.7091 63.1596 34.7922C63.2077 34.8709 63.3628 34.9299 63.6251 34.9692V35.1986H61.8353V34.9692C62.1019 34.9299 62.2593 34.8709 62.3073 34.7922C62.3554 34.7091 62.3794 34.4753 62.3794 34.0907V30.9701C62.3794 30.7384 62.3532 30.5877 62.3008 30.5177C62.2308 30.4347 62.0822 30.3932 61.855 30.3932V30.1965L63.0875 29.7245V30.2948C63.2754 30.1331 63.4481 30.0129 63.6054 29.9342C63.8108 29.8337 64.0162 29.7835 64.2217 29.7835C64.6937 29.7835 65.0739 29.9976 65.3624 30.4259C65.6203 30.8018 65.7492 31.2367 65.7492 31.7306ZM64.9887 31.7568C64.9887 31.3285 64.9188 30.9723 64.7789 30.6882C64.5953 30.3123 64.3113 30.1244 63.9266 30.1244C63.7999 30.1244 63.6535 30.1768 63.4874 30.2817C63.3213 30.3822 63.188 30.4915 63.0875 30.6095V33.068C63.2405 33.2122 63.3694 33.3171 63.4743 33.3827C63.6316 33.4832 63.789 33.5334 63.9463 33.5334C64.3353 33.5334 64.6172 33.3215 64.792 32.8975C64.9231 32.596 64.9887 32.2157 64.9887 31.7568ZM70.2072 33.7891H68.4174V33.5597C68.6884 33.5247 68.8458 33.4701 68.8895 33.3958C68.9375 33.3171 68.9616 33.0833 68.9616 32.6943V31.134L67.3751 32.8516C67.3751 33.1619 67.3969 33.3499 67.4406 33.4154C67.4887 33.4766 67.6482 33.5247 67.9192 33.5597V33.7891H66.1229V33.5597C66.3895 33.5247 66.5468 33.4679 66.5949 33.3892C66.643 33.3105 66.667 33.0789 66.667 32.6943V30.9701C66.667 30.5855 66.643 30.3516 66.5949 30.2686C66.5468 30.1899 66.3895 30.1353 66.1229 30.1047V29.8687H67.9192V30.1047C67.6526 30.1353 67.4952 30.1899 67.4472 30.2686C67.3991 30.3516 67.3751 30.5855 67.3751 30.9701V32.4452L68.9616 30.7275C68.9616 30.4609 68.9375 30.2992 68.8895 30.2424C68.8414 30.1812 68.6841 30.1353 68.4174 30.1047V29.8687H70.2072V30.1047C69.9406 30.1353 69.7833 30.1899 69.7352 30.2686C69.6871 30.3516 69.6631 30.5855 69.6631 30.9701V32.6943C69.6631 33.0789 69.6871 33.3105 69.7352 33.3892C69.7789 33.4679 69.9362 33.5247 70.2072 33.5597V33.7891ZM74.7832 34.7725L74.5669 34.884C74.3702 34.4993 74.1364 34.2218 73.8654 34.0514C73.5988 33.8765 73.2513 33.7891 72.823 33.7891H72.174C71.7413 33.7891 71.3916 33.8744 71.125 34.0448C70.8584 34.2153 70.6246 34.495 70.4236 34.884L70.2072 34.7725L70.6727 33.5597C70.9611 33.5597 71.1775 33.4482 71.3217 33.2253C71.431 33.0636 71.4856 32.8626 71.4856 32.6222V30.7865C71.4856 30.5199 71.4572 30.3516 71.4004 30.2817C71.3348 30.1943 71.1644 30.1353 70.889 30.1047V29.8687H74.3178V30.1047C74.0949 30.1047 73.9484 30.1681 73.8785 30.2948C73.8086 30.4216 73.7736 30.6467 73.7736 30.9701V32.6943C73.7736 33.0221 73.8086 33.2472 73.8785 33.3695C73.9441 33.4963 74.0905 33.5597 74.3178 33.5597L74.7832 34.7725ZM73.0721 32.6943V30.7865C73.0721 30.4718 73.0503 30.2795 73.0066 30.2096C72.9629 30.144 72.8318 30.1113 72.6132 30.1113H72.3575C72.0997 30.1113 71.9402 30.1484 71.879 30.2227C71.8178 30.2926 71.7872 30.4806 71.7872 30.7865V32.3796C71.7872 32.6724 71.7719 32.8866 71.7413 33.0221C71.6932 33.2275 71.5861 33.4067 71.4201 33.5597H72.528C72.7815 33.5597 72.941 33.4919 73.0066 33.3564C73.0503 33.2647 73.0721 33.0439 73.0721 32.6943ZM78.861 33.7891H77.0712V33.5597C77.3422 33.5247 77.4996 33.4701 77.5433 33.3958C77.5913 33.3171 77.6154 33.0833 77.6154 32.6943V31.134L76.0289 32.8516C76.0289 33.1619 76.0507 33.3499 76.0944 33.4154C76.1381 33.4766 76.2976 33.5247 76.573 33.5597V33.7891H74.7767V33.5597C75.0433 33.5247 75.2006 33.4679 75.2487 33.3892C75.2968 33.3105 75.3208 33.0789 75.3208 32.6943V30.9701C75.3208 30.5855 75.2968 30.3516 75.2487 30.2686C75.2006 30.1899 75.0433 30.1353 74.7767 30.1047V29.8687H76.573V30.1047C76.3064 30.1353 76.149 30.1899 76.101 30.2686C76.0529 30.3516 76.0289 30.5855 76.0289 30.9701V32.4452L77.6154 30.7275C77.6154 30.4609 77.5913 30.2992 77.5433 30.2424C77.4952 30.1812 77.3379 30.1353 77.0712 30.1047V29.8687H78.861V30.1047C78.5944 30.1353 78.4371 30.1899 78.389 30.2686C78.3409 30.3516 78.3169 30.5855 78.3169 30.9701V32.6943C78.3169 33.0789 78.3409 33.3105 78.389 33.3892C78.4327 33.4679 78.59 33.5247 78.861 33.5597V33.7891ZM83.2928 33.7891H81.4965V33.5597C81.7718 33.5247 81.9314 33.4701 81.9751 33.3958C82.0188 33.3171 82.0406 33.0833 82.0406 32.6943V31.9404C81.5773 32.2288 81.1403 32.373 80.7294 32.373C80.4366 32.373 80.205 32.2922 80.0345 32.1305C79.8466 31.9557 79.7526 31.6956 79.7526 31.3503V30.9701C79.7526 30.5898 79.7308 30.3604 79.6871 30.2817C79.639 30.1987 79.4795 30.1397 79.2085 30.1047V29.8687H81.0048V30.1047C80.7426 30.1353 80.5852 30.1921 80.5328 30.2752C80.4803 30.3582 80.4541 30.5898 80.4541 30.9701V31.2389C80.4541 31.488 80.5065 31.6672 80.6114 31.7765C80.7163 31.8857 80.8649 31.9404 81.0572 31.9404C81.3413 31.9404 81.6691 31.8333 82.0406 31.6191V30.9701C82.0406 30.5855 82.0188 30.3516 81.9751 30.2686C81.9314 30.1899 81.7718 30.1353 81.4965 30.1047V29.8687H83.2928V30.1047C83.0262 30.1353 82.8689 30.1899 82.8208 30.2686C82.7727 30.3516 82.7487 30.5855 82.7487 30.9701V32.6943C82.7487 33.0789 82.7705 33.3105 82.8142 33.3892C82.8623 33.4679 83.0218 33.5247 83.2928 33.5597V33.7891ZM87.246 31.5863H84.5253C84.5253 32.089 84.6062 32.5107 84.7679 32.8516C84.982 33.3062 85.3142 33.5334 85.7644 33.5334C86.0223 33.5334 86.2648 33.4679 86.4921 33.3368C86.7194 33.2056 86.9139 33.0286 87.0756 32.8057L87.2132 32.9303C87.034 33.2188 86.8111 33.4482 86.5445 33.6187C86.2736 33.7891 85.9785 33.8744 85.6595 33.8744C85.1088 33.8744 84.6477 33.6799 84.2762 33.2909C83.9047 32.8975 83.7189 32.4233 83.7189 31.8682C83.7189 31.3263 83.885 30.8499 84.2172 30.4391C84.5668 30.002 85.0126 29.7835 85.5546 29.7835C86.0397 29.7835 86.4418 29.9627 86.7609 30.3211C87.0843 30.6794 87.246 31.1012 87.246 31.5863ZM86.4331 31.2782C86.4375 31.217 86.4396 31.1689 86.4396 31.134C86.4396 30.8455 86.3719 30.6008 86.2364 30.3997C86.0747 30.1637 85.8452 30.0457 85.548 30.0457C85.229 30.0457 84.9799 30.1834 84.8007 30.4587C84.6433 30.6904 84.5647 30.9635 84.5647 31.2782H86.4331ZM91.1796 32.8385C90.9742 33.1445 90.736 33.3892 90.465 33.5728C90.159 33.7738 89.8334 33.8744 89.4881 33.8744C88.9812 33.8744 88.555 33.6799 88.2097 33.2909C87.8645 32.8975 87.6918 32.443 87.6918 31.9272C87.6918 31.3197 87.8798 30.8106 88.2556 30.3997C88.6315 29.9889 89.1254 29.7835 89.7373 29.7835C90.0214 29.7835 90.2967 29.8534 90.5633 29.9933C90.8867 30.1637 91.0485 30.3735 91.0485 30.6226C91.0485 30.7363 91.0069 30.8324 90.9239 30.9111C90.8408 30.9854 90.7381 31.0225 90.6158 31.0225C90.4366 31.0225 90.2705 30.8608 90.1175 30.5374C89.9689 30.2096 89.7591 30.0457 89.4881 30.0457C89.121 30.0457 88.8544 30.2511 88.6883 30.662C88.5659 30.9635 88.5048 31.3285 88.5048 31.7568C88.5048 32.1895 88.6097 32.5675 88.8194 32.891C89.0686 33.2668 89.4007 33.4548 89.8159 33.4548C90.0607 33.4548 90.2923 33.3783 90.5109 33.2253C90.6551 33.1292 90.8365 32.9609 91.055 32.7205L91.1796 32.8385ZM95.6966 33.7891H93.7823V33.5597C93.9134 33.5597 94.0183 33.5422 94.097 33.5072C94.1756 33.4766 94.215 33.4154 94.215 33.3237C94.215 33.2668 94.1822 33.1838 94.1166 33.0745C94.0379 32.9522 93.9877 32.8735 93.9658 32.8385L93.2185 31.783L92.694 32.2813V32.6943C92.694 33.0789 92.7158 33.3105 92.7595 33.3892C92.8032 33.4679 92.9628 33.5247 93.2381 33.5597V33.7891H91.4418V33.5597C91.7084 33.5247 91.8658 33.4679 91.9138 33.3892C91.9619 33.3105 91.9859 33.0789 91.9859 32.6943V30.9701C91.9859 30.5855 91.9619 30.3516 91.9138 30.2686C91.8658 30.1899 91.7084 30.1353 91.4418 30.1047V29.8687H93.2381V30.1047C92.9715 30.1353 92.8142 30.1899 92.7661 30.2686C92.718 30.3516 92.694 30.5855 92.694 30.9701V31.9272L93.6839 30.9307C93.7976 30.8171 93.8719 30.7363 93.9068 30.6882C93.9986 30.5702 94.0445 30.4696 94.0445 30.3866C94.0445 30.1987 93.909 30.1047 93.638 30.1047V29.8687H95.5065V30.1047C95.2661 30.1047 95.0497 30.1659 94.8574 30.2883C94.77 30.3407 94.5952 30.4893 94.333 30.7341L93.7102 31.3307L94.8443 32.9631C94.9842 33.1598 95.1 33.2996 95.1918 33.3827C95.3316 33.5007 95.4999 33.5597 95.6966 33.5597V33.7891ZM99.9579 33.7891H98.1616V33.5597C98.437 33.5247 98.5965 33.4701 98.6402 33.3958C98.6883 33.3171 98.7123 33.0833 98.7123 32.6943V31.134L97.1258 32.8516C97.1258 33.1619 97.1476 33.3499 97.1913 33.4154C97.2351 33.4766 97.3946 33.5247 97.6699 33.5597V33.7891H95.8736V33.5597C96.1402 33.5247 96.2976 33.4679 96.3456 33.3892C96.3937 33.3105 96.4177 33.0789 96.4177 32.6943V30.9701C96.4177 30.5855 96.3937 30.3516 96.3456 30.2686C96.2976 30.1899 96.1402 30.1353 95.8736 30.1047V29.8687H97.6699V30.1047C97.4033 30.1353 97.246 30.1899 97.1979 30.2686C97.1498 30.3516 97.1258 30.5855 97.1258 30.9701V32.4452L98.7123 30.7275C98.7123 30.4609 98.6883 30.2992 98.6402 30.2424C98.5921 30.1812 98.4326 30.1353 98.1616 30.1047V29.8687H99.9579V30.1047C99.6913 30.1353 99.534 30.1899 99.4859 30.2686C99.4378 30.3516 99.4138 30.5855 99.4138 30.9701V32.6943C99.4138 33.0789 99.4356 33.3105 99.4794 33.3892C99.5274 33.4679 99.687 33.5247 99.9579 33.5597V33.7891ZM103.8 28.21C103.647 28.4985 103.448 28.7367 103.203 28.9246C102.932 29.1344 102.646 29.2393 102.344 29.2393C102.051 29.2393 101.77 29.1344 101.499 28.9246C101.254 28.7367 101.059 28.4985 100.915 28.21L101.131 28.1117C101.324 28.3084 101.512 28.4548 101.695 28.5509C101.879 28.6471 102.095 28.6952 102.344 28.6952C102.602 28.6952 102.823 28.6471 103.006 28.5509C103.19 28.4592 103.378 28.3128 103.57 28.1117L103.8 28.21ZM104.39 33.7891H102.593V33.5597C102.869 33.5247 103.028 33.4701 103.072 33.3958C103.116 33.3171 103.138 33.0833 103.138 32.6943V31.134L101.551 32.8516C101.551 33.1619 101.575 33.3499 101.623 33.4154C101.667 33.4766 101.824 33.5247 102.095 33.5597V33.7891H100.305V33.5597C100.572 33.5247 100.729 33.4679 100.777 33.3892C100.826 33.3105 100.85 33.0789 100.85 32.6943V30.9701C100.85 30.5855 100.826 30.3516 100.777 30.2686C100.729 30.1899 100.572 30.1353 100.305 30.1047V29.8687H102.095V30.1047C101.829 30.1353 101.671 30.1899 101.623 30.2686C101.575 30.3516 101.551 30.5855 101.551 30.9701V32.4452L103.138 30.7275C103.138 30.4609 103.114 30.2992 103.065 30.2424C103.017 30.1812 102.86 30.1353 102.593 30.1047V29.8687H104.39V30.1047C104.123 30.1353 103.966 30.1899 103.918 30.2686C103.87 30.3516 103.846 30.5855 103.846 30.9701V32.6943C103.846 33.0789 103.867 33.3105 103.911 33.3892C103.959 33.4679 104.119 33.5247 104.39 33.5597V33.7891ZM110.992 33.7891H109.077V33.5597C109.213 33.5597 109.318 33.5422 109.392 33.5072C109.471 33.4766 109.51 33.4154 109.51 33.3237C109.51 33.2668 109.477 33.1838 109.412 33.0745C109.333 32.9522 109.283 32.8735 109.261 32.8385L108.513 31.783L107.989 32.2813V32.6943C107.989 33.0789 108.011 33.3105 108.054 33.3892C108.103 33.4679 108.262 33.5247 108.533 33.5597V33.7891H106.737V33.5597C107.003 33.5247 107.161 33.4679 107.209 33.3892C107.257 33.3105 107.281 33.0789 107.281 32.6943V30.9701C107.281 30.5855 107.257 30.3516 107.209 30.2686C107.161 30.1899 107.003 30.1353 106.737 30.1047V29.8687H108.533V30.1047C108.266 30.1353 108.109 30.1899 108.061 30.2686C108.013 30.3516 107.989 30.5855 107.989 30.9701V31.9272L108.979 30.9307C109.093 30.8171 109.169 30.7363 109.208 30.6882C109.296 30.5702 109.339 30.4696 109.339 30.3866C109.339 30.1987 109.204 30.1047 108.933 30.1047V29.8687H110.801V30.1047C110.561 30.1047 110.345 30.1659 110.152 30.2883C110.065 30.3407 109.89 30.4893 109.628 30.7341L109.005 31.3307L110.146 32.9631C110.281 33.1598 110.395 33.2996 110.487 33.3827C110.627 33.5007 110.795 33.5597 110.992 33.5597V33.7891ZM114.853 33.3171C114.7 33.5444 114.554 33.6995 114.414 33.7826C114.304 33.8438 114.178 33.8744 114.033 33.8744C113.876 33.8744 113.749 33.8241 113.653 33.7236C113.561 33.623 113.507 33.4876 113.489 33.3171C113.271 33.4919 113.074 33.623 112.899 33.7105C112.668 33.8197 112.438 33.8744 112.211 33.8744C111.931 33.8744 111.704 33.7869 111.529 33.6121C111.354 33.4373 111.267 33.2078 111.267 32.9237C111.267 32.4605 111.531 32.0977 112.06 31.8355C112.353 31.6912 112.825 31.5536 113.476 31.4224V30.898C113.476 30.6532 113.443 30.4631 113.378 30.3276C113.286 30.1397 113.131 30.0457 112.912 30.0457C112.733 30.0457 112.591 30.1003 112.486 30.2096C112.381 30.3189 112.307 30.4565 112.263 30.6226C112.215 30.7887 112.161 30.9023 112.099 30.9635C112.038 31.0247 111.936 31.0553 111.791 31.0553C111.542 31.0553 111.418 30.9373 111.418 30.7013C111.418 30.4041 111.592 30.1703 111.942 29.9998C112.239 29.8556 112.55 29.7835 112.873 29.7835C113.065 29.7835 113.253 29.8053 113.437 29.849C113.616 29.8884 113.769 29.9605 113.896 30.0654C114.023 30.1703 114.101 30.2948 114.132 30.4391C114.162 30.5833 114.178 30.7625 114.178 30.9766V32.8057C114.178 33.0199 114.197 33.1641 114.237 33.2384C114.276 33.3127 114.337 33.3499 114.42 33.3499C114.486 33.3499 114.54 33.3324 114.584 33.2974C114.632 33.2668 114.687 33.2166 114.748 33.1466L114.853 33.3171ZM113.476 32.9959V31.6912C113.127 31.7481 112.814 31.8682 112.539 32.0518C112.198 32.2747 112.027 32.5369 112.027 32.8385C112.027 33.0177 112.082 33.1641 112.191 33.2778C112.301 33.3958 112.44 33.4548 112.611 33.4548C112.751 33.4548 112.904 33.4067 113.07 33.3105C113.231 33.2188 113.367 33.1139 113.476 32.9959ZM118.682 31.8879C118.682 32.4168 118.507 32.88 118.157 33.2778C117.808 33.6755 117.375 33.8744 116.859 33.8744C116.356 33.8744 115.935 33.6667 115.594 33.2515C115.257 32.832 115.089 32.325 115.089 31.7306C115.089 30.8914 115.214 30.2096 115.463 29.6851C115.664 29.2656 115.961 28.9268 116.354 28.669C116.568 28.5291 116.905 28.3718 117.364 28.1969C117.587 28.1095 117.722 28.0571 117.77 28.0396C118.011 27.926 118.164 27.7948 118.229 27.6462L118.419 27.7642C118.314 28.2188 118.1 28.5488 117.777 28.7542C117.672 28.8241 117.357 28.9531 116.833 29.141C116.501 29.2634 116.241 29.4098 116.053 29.5802C115.786 29.8206 115.6 30.1506 115.495 30.5702C115.644 30.4128 115.797 30.2577 115.954 30.1047C116.234 29.8905 116.577 29.7835 116.984 29.7835C117.508 29.7835 117.93 30.0085 118.249 30.4587C118.537 30.8564 118.682 31.3328 118.682 31.8879ZM117.875 31.7371C117.875 31.3263 117.814 30.9723 117.692 30.6751C117.521 30.2555 117.259 30.0457 116.905 30.0457C116.542 30.0457 116.273 30.2468 116.099 30.6488C115.963 30.9548 115.895 31.3132 115.895 31.724C115.895 32.1436 115.957 32.5282 116.079 32.8779C116.254 33.3674 116.514 33.6121 116.859 33.6121C117.222 33.6121 117.493 33.3783 117.672 32.9106C117.808 32.561 117.875 32.1698 117.875 31.7371ZM123.277 33.7891H121.481V33.5597C121.752 33.5247 121.912 33.4701 121.96 33.3958C122.003 33.3171 122.025 33.0833 122.025 32.6943V31.134L120.439 32.8516C120.439 33.1619 120.46 33.3499 120.504 33.4154C120.552 33.4766 120.712 33.5247 120.983 33.5597V33.7891H119.186V33.5597C119.453 33.5247 119.61 33.4679 119.658 33.3892C119.707 33.3105 119.731 33.0789 119.731 32.6943V30.9701C119.731 30.5855 119.707 30.3516 119.658 30.2686C119.61 30.1899 119.453 30.1353 119.186 30.1047V29.8687H120.983V30.1047C120.716 30.1353 120.559 30.1899 120.511 30.2686C120.463 30.3516 120.439 30.5855 120.439 30.9701V32.4452L122.025 30.7275C122.025 30.4609 122.001 30.2992 121.953 30.2424C121.905 30.1812 121.748 30.1353 121.481 30.1047V29.8687H123.277V30.1047C123.006 30.1353 122.847 30.1899 122.799 30.2686C122.751 30.3516 122.727 30.5855 122.727 30.9701V32.6943C122.727 33.0789 122.751 33.3105 122.799 33.3892C122.842 33.4679 123.002 33.5247 123.277 33.5597V33.7891ZM127.703 33.7891H125.913V33.5597C126.175 33.5378 126.33 33.4832 126.378 33.3958C126.431 33.3127 126.457 33.0789 126.457 32.6943V31.9404H124.87V32.6943C124.87 33.0876 124.892 33.3215 124.936 33.3958C124.984 33.4701 125.144 33.5247 125.415 33.5597V33.7891H123.618V33.5597C123.885 33.5247 124.042 33.4679 124.09 33.3892C124.138 33.3105 124.162 33.0789 124.162 32.6943V30.9701C124.162 30.5855 124.138 30.3516 124.09 30.2686C124.042 30.1899 123.885 30.1353 123.618 30.1047V29.8687H125.415V30.1047C125.148 30.1353 124.991 30.1899 124.943 30.2686C124.894 30.3516 124.87 30.5855 124.87 30.9701V31.6191H126.457V30.9701C126.457 30.5855 126.433 30.3516 126.385 30.2686C126.341 30.1899 126.184 30.1353 125.913 30.1047V29.8687H127.703V30.1047C127.436 30.1353 127.279 30.1899 127.231 30.2686C127.182 30.3516 127.158 30.5855 127.158 30.9701V32.6943C127.158 33.0789 127.182 33.3105 127.231 33.3892C127.274 33.4679 127.432 33.5247 127.703 33.5597V33.7891ZM131.656 31.5863H128.942C128.942 32.089 129.02 32.5107 129.178 32.8516C129.392 33.3062 129.724 33.5334 130.174 33.5334C130.436 33.5334 130.681 33.4679 130.908 33.3368C131.136 33.2056 131.328 33.0286 131.485 32.8057L131.623 32.9303C131.448 33.2188 131.225 33.4482 130.954 33.6187C130.683 33.7891 130.388 33.8744 130.069 33.8744C129.519 33.8744 129.057 33.6799 128.686 33.2909C128.314 32.8975 128.129 32.4233 128.129 31.8682C128.129 31.3263 128.295 30.8499 128.627 30.4391C128.981 30.002 129.427 29.7835 129.964 29.7835C130.449 29.7835 130.854 29.9627 131.177 30.3211C131.496 30.6794 131.656 31.1012 131.656 31.5863ZM130.849 31.2782C130.854 31.217 130.856 31.1689 130.856 31.134C130.856 30.8455 130.786 30.6008 130.646 30.3997C130.484 30.1637 130.255 30.0457 129.958 30.0457C129.643 30.0457 129.394 30.1834 129.21 30.4587C129.057 30.6904 128.981 30.9635 128.981 31.2782H130.849ZM135.661 31.134L135.471 31.2389C135.292 30.8717 135.087 30.5833 134.855 30.3735C134.645 30.1943 134.449 30.1047 134.265 30.1047C134.16 30.1047 134.095 30.1484 134.068 30.2358C134.042 30.3232 134.029 30.4959 134.029 30.7537V32.6943C134.029 33.0789 134.053 33.3105 134.101 33.3892C134.149 33.4679 134.307 33.5247 134.573 33.5597V33.7891H132.777V33.5597C133.043 33.5247 133.201 33.4679 133.249 33.3892C133.297 33.3105 133.321 33.0789 133.321 32.6943V30.7537C133.321 30.5265 133.319 30.3932 133.314 30.3538C133.293 30.1877 133.214 30.1047 133.078 30.1047C132.895 30.1047 132.7 30.1921 132.495 30.3669C132.268 30.5724 132.062 30.863 131.879 31.2389L131.689 31.134L132.193 29.8687H135.157L135.661 31.134ZM143.011 33.7891H140.65V33.5269C140.812 33.5138 140.976 33.5029 141.142 33.4941C141.334 33.4504 141.431 33.3411 141.431 33.1663C141.431 33.1051 141.415 33.0265 141.385 32.9303C141.359 32.8298 141.328 32.7358 141.293 32.6484L140.965 31.665H138.92L138.821 31.9731C138.738 32.2048 138.657 32.4386 138.579 32.6746C138.526 32.8582 138.5 32.9871 138.5 33.0614C138.5 33.2406 138.583 33.3674 138.749 33.4417C138.863 33.4985 139.031 33.5269 139.254 33.5269V33.7891H137.202V33.5269C137.504 33.5269 137.746 33.3936 137.93 33.127C138.043 32.9653 138.164 32.6899 138.29 32.3009L139.746 27.9216L140.5 27.7249L141.962 32.0846C142.01 32.2376 142.06 32.3883 142.112 32.5369C142.252 32.9172 142.377 33.1685 142.486 33.2909C142.547 33.3608 142.624 33.4154 142.716 33.4548C142.803 33.4897 142.901 33.5138 143.011 33.5269V33.7891ZM140.854 31.2979L139.956 28.6034L139.051 31.2979H140.854ZM147.01 33.7891H145.213V33.5597C145.476 33.5378 145.631 33.4832 145.679 33.3958C145.731 33.3127 145.758 33.0789 145.758 32.6943V31.9404H144.171V32.6943C144.171 33.0876 144.193 33.3215 144.237 33.3958C144.285 33.4701 144.444 33.5247 144.715 33.5597V33.7891H142.919V33.5597C143.185 33.5247 143.343 33.4679 143.391 33.3892C143.439 33.3105 143.463 33.0789 143.463 32.6943V30.9701C143.463 30.5855 143.439 30.3516 143.391 30.2686C143.343 30.1899 143.185 30.1353 142.919 30.1047V29.8687H144.715V30.1047C144.449 30.1353 144.291 30.1899 144.243 30.2686C144.195 30.3516 144.171 30.5855 144.171 30.9701V31.6191H145.758V30.9701C145.758 30.5855 145.736 30.3516 145.692 30.2686C145.644 30.1899 145.484 30.1353 145.213 30.1047V29.8687H147.01V30.1047C146.739 30.1353 146.579 30.1899 146.531 30.2686C146.483 30.3516 146.459 30.5855 146.459 30.9701V32.6943C146.459 33.0789 146.483 33.3105 146.531 33.3892C146.575 33.4679 146.734 33.5247 147.01 33.5597V33.7891ZM151.435 33.7891H149.645V33.5597C149.916 33.5247 150.074 33.4701 150.117 33.3958C150.165 33.3171 150.189 33.0833 150.189 32.6943V31.134L148.603 32.8516C148.603 33.1619 148.625 33.3499 148.668 33.4154C148.716 33.4766 148.876 33.5247 149.147 33.5597V33.7891H147.351V33.5597C147.617 33.5247 147.775 33.4679 147.823 33.3892C147.871 33.3105 147.895 33.0789 147.895 32.6943V30.9701C147.895 30.5855 147.871 30.3516 147.823 30.2686C147.775 30.1899 147.617 30.1353 147.351 30.1047V29.8687H149.147V30.1047C148.88 30.1353 148.723 30.1899 148.675 30.2686C148.627 30.3516 148.603 30.5855 148.603 30.9701V32.4452L150.189 30.7275C150.189 30.4609 150.165 30.2992 150.117 30.2424C150.069 30.1812 149.912 30.1353 149.645 30.1047V29.8687H151.435V30.1047C151.168 30.1353 151.011 30.1899 150.963 30.2686C150.915 30.3516 150.891 30.5855 150.891 30.9701V32.6943C150.891 33.0789 150.915 33.3105 150.963 33.3892C151.007 33.4679 151.164 33.5247 151.435 33.5597V33.7891ZM160.869 33.7891H158.555V33.5269C158.878 33.5269 159.086 33.4591 159.177 33.3237C159.269 33.1838 159.315 32.8844 159.315 32.4255V28.5509L157.303 33.7891H157.001L155.028 28.5182L155.001 32.4255C155.001 32.88 155.045 33.1772 155.132 33.3171C155.224 33.457 155.43 33.5269 155.749 33.5269V33.7891H153.88V33.5269C154.199 33.5269 154.405 33.457 154.497 33.3171C154.588 33.1772 154.634 32.88 154.634 32.4255V29.2852C154.634 28.8307 154.588 28.5357 154.497 28.4002C154.405 28.2603 154.199 28.1904 153.88 28.1904V27.9216H155.611L157.368 32.5894L159.132 27.9216H160.869V28.1904C160.55 28.1904 160.342 28.2603 160.246 28.4002C160.154 28.54 160.108 28.835 160.108 29.2852V32.4255C160.108 32.8757 160.154 33.1707 160.246 33.3105C160.342 33.4548 160.55 33.5269 160.869 33.5269V33.7891ZM165.065 33.3171C164.912 33.5444 164.765 33.6995 164.625 33.7826C164.521 33.8438 164.396 33.8744 164.252 33.8744C164.09 33.8744 163.963 33.8241 163.872 33.7236C163.775 33.623 163.721 33.4876 163.708 33.3171C163.485 33.4919 163.286 33.623 163.111 33.7105C162.884 33.8197 162.654 33.8744 162.423 33.8744C162.143 33.8744 161.916 33.7869 161.741 33.6121C161.566 33.4373 161.479 33.2078 161.479 32.9237C161.479 32.4605 161.743 32.0977 162.272 31.8355C162.565 31.6912 163.037 31.5536 163.688 31.4224V30.898C163.688 30.6532 163.655 30.4631 163.59 30.3276C163.502 30.1397 163.349 30.0457 163.131 30.0457C162.947 30.0457 162.803 30.1003 162.698 30.2096C162.593 30.3189 162.519 30.4565 162.475 30.6226C162.431 30.7887 162.377 30.9023 162.311 30.9635C162.25 31.0247 162.147 31.0553 162.003 31.0553C161.754 31.0553 161.629 30.9373 161.629 30.7013C161.629 30.4041 161.806 30.1703 162.16 29.9998C162.453 29.8556 162.761 29.7835 163.085 29.7835C163.277 29.7835 163.465 29.8053 163.649 29.849C163.832 29.8884 163.985 29.9605 164.108 30.0654C164.234 30.1703 164.313 30.2948 164.344 30.4391C164.379 30.5833 164.396 30.7625 164.396 30.9766V32.8057C164.396 33.0199 164.413 33.1641 164.448 33.2384C164.488 33.3127 164.549 33.3499 164.632 33.3499C164.698 33.3499 164.752 33.3324 164.796 33.2974C164.844 33.2668 164.899 33.2166 164.96 33.1466L165.065 33.3171ZM163.688 32.9959V31.6912C163.343 31.7481 163.03 31.8682 162.75 32.0518C162.41 32.2747 162.239 32.5369 162.239 32.8385C162.239 33.0177 162.294 33.1641 162.403 33.2778C162.512 33.3958 162.652 33.4548 162.823 33.4548C162.962 33.4548 163.115 33.4067 163.282 33.3105C163.448 33.2188 163.583 33.1139 163.688 32.9959ZM169.267 33.7891H167.471V33.5597C167.733 33.5378 167.888 33.4832 167.936 33.3958C167.989 33.3127 168.015 33.0789 168.015 32.6943V31.9404H166.428V32.6943C166.428 33.0876 166.45 33.3215 166.494 33.3958C166.542 33.4701 166.701 33.5247 166.972 33.5597V33.7891H165.176V33.5597C165.443 33.5247 165.6 33.4679 165.648 33.3892C165.696 33.3105 165.72 33.0789 165.72 32.6943V30.9701C165.72 30.5855 165.696 30.3516 165.648 30.2686C165.6 30.1899 165.443 30.1353 165.176 30.1047V29.8687H166.972V30.1047C166.706 30.1353 166.549 30.1899 166.5 30.2686C166.452 30.3516 166.428 30.5855 166.428 30.9701V31.6191H168.015V30.9701C168.015 30.5855 167.993 30.3516 167.949 30.2686C167.901 30.1899 167.742 30.1353 167.471 30.1047V29.8687H169.267V30.1047C169 30.1353 168.843 30.1899 168.795 30.2686C168.747 30.3516 168.723 30.5855 168.723 30.9701V32.6943C168.723 33.0789 168.745 33.3105 168.788 33.3892C168.832 33.4679 168.992 33.5247 169.267 33.5597V33.7891ZM173.214 31.134L173.024 31.2389C172.849 30.8717 172.643 30.5833 172.407 30.3735C172.198 30.1943 172.003 30.1047 171.824 30.1047C171.715 30.1047 171.647 30.1484 171.621 30.2358C171.594 30.3232 171.581 30.4959 171.581 30.7537V32.6943C171.581 33.0789 171.605 33.3105 171.653 33.3892C171.701 33.4679 171.859 33.5247 172.125 33.5597V33.7891H170.329V33.5597C170.596 33.5247 170.753 33.4679 170.801 33.3892C170.849 33.3105 170.873 33.0789 170.873 32.6943V30.7537C170.873 30.5265 170.871 30.3932 170.867 30.3538C170.845 30.1877 170.768 30.1047 170.637 30.1047C170.449 30.1047 170.253 30.1921 170.047 30.3669C169.82 30.5724 169.615 30.863 169.431 31.2389L169.241 31.134L169.746 29.8687H172.709L173.214 31.134ZM176.885 33.3171C176.728 33.5444 176.581 33.6995 176.446 33.7826C176.337 33.8438 176.21 33.8744 176.066 33.8744C175.908 33.8744 175.781 33.8241 175.685 33.7236C175.594 33.623 175.539 33.4876 175.521 33.3171C175.303 33.4919 175.106 33.623 174.931 33.7105C174.7 33.8197 174.47 33.8744 174.243 33.8744C173.963 33.8744 173.736 33.7869 173.561 33.6121C173.382 33.4373 173.292 33.2078 173.292 32.9237C173.292 32.4605 173.557 32.0977 174.086 31.8355C174.383 31.6912 174.857 31.5536 175.508 31.4224V30.898C175.508 30.6532 175.476 30.4631 175.41 30.3276C175.318 30.1397 175.163 30.0457 174.944 30.0457C174.765 30.0457 174.623 30.1003 174.518 30.2096C174.413 30.3189 174.339 30.4565 174.295 30.6226C174.247 30.7887 174.193 30.9023 174.132 30.9635C174.07 31.0247 173.968 31.0553 173.823 31.0553C173.574 31.0553 173.45 30.9373 173.45 30.7013C173.45 30.4041 173.625 30.1703 173.974 29.9998C174.271 29.8556 174.582 29.7835 174.905 29.7835C175.097 29.7835 175.285 29.8053 175.469 29.849C175.648 29.8884 175.801 29.9605 175.928 30.0654C176.055 30.1703 176.133 30.2948 176.164 30.4391C176.194 30.5833 176.21 30.7625 176.21 30.9766V32.8057C176.21 33.0199 176.229 33.1641 176.269 33.2384C176.304 33.3127 176.365 33.3499 176.452 33.3499C176.518 33.3499 176.573 33.3324 176.616 33.2974C176.66 33.2668 176.715 33.2166 176.78 33.1466L176.885 33.3171ZM175.508 32.9959V31.6912C175.159 31.7481 174.846 31.8682 174.571 32.0518C174.23 32.2747 174.059 32.5369 174.059 32.8385C174.059 33.0177 174.114 33.1641 174.223 33.2778C174.333 33.3958 174.472 33.4548 174.643 33.4548C174.783 33.4548 174.934 33.4067 175.095 33.3105C175.261 33.2188 175.399 33.1139 175.508 32.9959ZM182.766 33.7891H176.996V33.5597C177.263 33.5247 177.42 33.4679 177.468 33.3892C177.517 33.3105 177.541 33.0789 177.541 32.6943V30.9701C177.541 30.5855 177.517 30.3516 177.468 30.2686C177.42 30.1899 177.263 30.1353 176.996 30.1047V29.8687H178.714V30.1047C178.5 30.1309 178.369 30.1703 178.321 30.2227C178.273 30.2752 178.249 30.4106 178.249 30.6292V30.9701V32.6943C178.249 32.7773 178.246 32.8582 178.242 32.9369C178.238 33.0155 178.236 33.0855 178.236 33.1466C178.236 33.3433 178.26 33.4613 178.308 33.5007C178.356 33.54 178.491 33.5597 178.714 33.5597H179.062C179.289 33.5597 179.422 33.54 179.461 33.5007C179.505 33.4613 179.527 33.3324 179.527 33.1139V32.6943V30.9701V30.6095C179.527 30.3997 179.505 30.2708 179.461 30.2227C179.413 30.1703 179.28 30.1309 179.062 30.1047V29.8687H180.701V30.1047C180.482 30.1309 180.349 30.1725 180.301 30.2293C180.257 30.2861 180.235 30.4238 180.235 30.6423V30.9701V32.6943C180.235 32.7773 180.233 32.8582 180.229 32.9369C180.229 33.0155 180.229 33.0855 180.229 33.1466C180.229 33.3433 180.253 33.4613 180.301 33.5007C180.349 33.54 180.482 33.5597 180.701 33.5597H181.048C181.275 33.5597 181.411 33.54 181.454 33.5007C181.494 33.4613 181.513 33.3324 181.513 33.1139V32.6943V30.9701V30.6161C181.513 30.4019 181.492 30.2708 181.448 30.2227C181.404 30.1703 181.271 30.1309 181.048 30.1047V29.8687H182.766V30.1047C182.499 30.1353 182.342 30.1899 182.294 30.2686C182.246 30.3516 182.222 30.5855 182.222 30.9701V32.6943C182.222 33.0789 182.246 33.3105 182.294 33.3892C182.342 33.4679 182.499 33.5247 182.766 33.5597V33.7891ZM186.542 33.7891H184.746V33.5597C184.968 33.5597 185.115 33.4963 185.185 33.3695C185.255 33.2428 185.29 33.0177 185.29 32.6943V31.8814H184.988L183.775 33.7891H182.792V33.6121C182.945 33.6121 183.131 33.4439 183.349 33.1073L184.221 31.8355C183.928 31.7961 183.688 31.689 183.5 31.5142C183.316 31.3394 183.225 31.1165 183.225 30.8455C183.225 30.5046 183.399 30.2489 183.749 30.0785C184.038 29.9386 184.387 29.8687 184.798 29.8687H186.542V30.1047C186.306 30.1047 186.151 30.1746 186.076 30.3145C186.02 30.4106 185.991 30.5745 185.991 30.8062V30.9701V32.6943C185.991 33.0133 186.026 33.2362 186.096 33.363C186.166 33.4941 186.315 33.5597 186.542 33.5597V33.7891ZM185.29 31.6519V30.6292C185.29 30.45 185.285 30.3385 185.277 30.2948C185.242 30.1681 185.115 30.1047 184.896 30.1047C184.608 30.1047 184.381 30.1637 184.215 30.2817C184.044 30.4041 183.959 30.592 183.959 30.8455C183.959 31.1427 184.053 31.3547 184.241 31.4814C184.407 31.5951 184.652 31.6519 184.975 31.6519H185.29ZM191 33.7891H189.21V33.5597C189.468 33.5378 189.623 33.4832 189.676 33.3958C189.728 33.3127 189.754 33.0789 189.754 32.6943V31.9404H188.168V32.6943C188.168 33.0876 188.19 33.3215 188.233 33.3958C188.277 33.4701 188.437 33.5247 188.712 33.5597V33.7891H186.916V33.5597C187.182 33.5247 187.34 33.4679 187.388 33.3892C187.436 33.3105 187.46 33.0789 187.46 32.6943V30.9701C187.46 30.5855 187.436 30.3516 187.388 30.2686C187.34 30.1899 187.182 30.1353 186.916 30.1047V29.8687H188.712V30.1047C188.445 30.1353 188.288 30.1899 188.24 30.2686C188.192 30.3516 188.168 30.5855 188.168 30.9701V31.6191H189.754V30.9701C189.754 30.5855 189.73 30.3516 189.682 30.2686C189.638 30.1899 189.481 30.1353 189.21 30.1047V29.8687H191V30.1047C190.733 30.1353 190.576 30.1899 190.528 30.2686C190.48 30.3516 190.456 30.5855 190.456 30.9701V32.6943C190.456 33.0789 190.48 33.3105 190.528 33.3892C190.572 33.4679 190.729 33.5247 191 33.5597V33.7891Z" fill="#222222"/>
<path d="M39.5322 4.39246V39.5322H4.39246V4.39246H39.5322ZM43.9246 0H39.5322H4.39246H0V4.39246V39.5322V43.9246H4.39246H39.5322H43.9246V39.5322V4.39246V0Z" fill="#222222"/>
</svg>
