<svg width="24" height="24" viewBox="0 0 24 24" fill="none" xmlns="http://www.w3.org/2000/svg">
<path d="M16.6667 2.66675H7.33333C6.97971 2.66675 6.64057 2.80722 6.39052 3.05727C6.14048 3.30732 6 3.64646 6 4.00008V20.0001C6 20.3537 6.14048 20.6928 6.39052 20.9429C6.64057 21.1929 6.97971 21.3334 7.33333 21.3334H16.6667C17.0203 21.3334 17.3594 21.1929 17.6095 20.9429C17.8595 20.6928 18 20.3537 18 20.0001V4.00008C18 3.64646 17.8595 3.30732 17.6095 3.05727C17.3594 2.80722 17.0203 2.66675 16.6667 2.66675ZM7.33333 4.00008H16.6667V16.0001H7.33333V4.00008ZM7.33333 20.0001V17.3334H16.6667V20.0001H7.33333Z" fill="#0FBCB2"/>
<path d="M11.3334 18H12.6667V19.3333H11.3334V18Z" fill="#0FBCB2"/>
</svg>
