<svg width="32" height="32" viewBox="0 0 32 32" fill="none" xmlns="http://www.w3.org/2000/svg">
<path d="M14.5155 4.48897C16.441 4.48721 18.3237 5.05657 19.9255 6.12501C21.5273 7.19345 22.7762 8.71298 23.5143 10.4914C24.2523 12.2697 24.4464 14.2271 24.0718 16.1157C23.6972 18.0044 22.7709 19.7395 21.4101 21.1017C20.0492 22.4638 18.3149 23.3917 16.4266 23.768C14.5382 24.1442 12.5807 23.952 10.8017 23.2156C9.02263 22.4791 7.50197 21.2316 6.43206 19.6308C5.36215 18.0299 4.79108 16.1478 4.79108 14.2223C4.80275 11.646 5.83075 9.1784 7.65166 7.35583C9.47257 5.53325 11.9392 4.503 14.5155 4.48897ZM14.5155 2.66675C12.23 2.66675 9.9959 3.34447 8.0956 4.61421C6.1953 5.88395 4.71419 7.68868 3.83958 9.80018C2.96497 11.9117 2.73613 14.2351 3.182 16.4767C3.62788 18.7182 4.72844 20.7772 6.34451 22.3933C7.96058 24.0094 10.0196 25.1099 12.2611 25.5558C14.5027 26.0017 16.8261 25.7729 18.9376 24.8982C21.0491 24.0236 22.8539 22.5425 24.1236 20.6422C25.3934 18.7419 26.0711 16.5078 26.0711 14.2223C26.0711 11.1576 24.8536 8.21838 22.6865 6.05129C20.5194 3.8842 17.5802 2.66675 14.5155 2.66675Z" fill="#222222"/>
<path d="M31.1111 29.5912L24.56 22.9956L23.2977 24.2489L29.8488 30.8445C29.9311 30.9274 30.029 30.9932 30.1367 31.0383C30.2444 31.0834 30.36 31.1068 30.4768 31.1072C30.5936 31.1076 30.7093 31.085 30.8174 31.0407C30.9255 30.9964 31.0237 30.9312 31.1066 30.8489C31.1895 30.7666 31.2554 30.6688 31.3004 30.5611C31.3455 30.4533 31.3689 30.3378 31.3693 30.221C31.3698 30.1042 31.3472 29.9884 31.3028 29.8804C31.2585 29.7723 31.1934 29.674 31.1111 29.5912Z" fill="#222222"/>
</svg>
