<svg width="20" height="20" viewBox="0 0 20 20" fill="none" xmlns="http://www.w3.org/2000/svg">
<circle cx="10" cy="10" r="10" fill="#0FBCB2" fill-opacity="0.2"/>
<path fill-rule="evenodd" clip-rule="evenodd" d="M10.3909 5.3375C10.3909 5.24799 10.3497 5.16214 10.2763 5.09885C10.2029 5.03556 10.1034 5 9.99958 5C9.89579 5 9.79624 5.03556 9.72285 5.09885C9.64946 5.16214 9.60822 5.24799 9.60822 5.3375V6.125H8.57816C8.39485 6.12493 8.21575 6.17244 8.06417 6.26135L7.1797 6.78065C7.15799 6.79333 7.13235 6.80007 7.10612 6.8H4.96564C4.86185 6.8 4.7623 6.83556 4.68891 6.89885C4.61551 6.96214 4.57428 7.04799 4.57428 7.1375C4.57428 7.22701 4.61551 7.31286 4.68891 7.37615C4.7623 7.43944 4.86185 7.475 4.96564 7.475H5.78854L4.03159 10.931C3.99841 10.9984 3.99114 11.0733 4.01086 11.1445C4.03058 11.2158 4.07625 11.2797 4.14117 11.327C4.18292 11.3558 4.22519 11.3832 4.30241 11.4264C4.39947 11.4809 4.53827 11.5515 4.71569 11.6213C5.07053 11.7613 5.58295 11.9003 6.21643 11.9003C6.73408 11.9012 7.2459 11.806 7.71717 11.6213C7.89458 11.5515 8.03339 11.4809 8.13044 11.4264C8.20872 11.3828 8.25046 11.3554 8.29221 11.3261C8.35765 11.2794 8.40369 11.2156 8.42336 11.1443C8.44304 11.073 8.43528 10.9981 8.40127 10.931L6.6438 7.475H7.10612C7.28928 7.475 7.46826 7.4273 7.61959 7.33865L8.50459 6.81935C8.52615 6.80676 8.55159 6.80002 8.57764 6.8H9.60822V13.325H7.26684C7.16305 13.325 7.0635 13.3606 6.99011 13.4239C6.91671 13.4871 6.87548 13.573 6.87548 13.6625C6.87548 13.752 6.91671 13.8379 6.99011 13.9011C7.0635 13.9644 7.16305 14 7.26684 14H12.7323C12.8361 14 12.9357 13.9644 13.0091 13.9011C13.0825 13.8379 13.1237 13.752 13.1237 13.6625C13.1237 13.573 13.0825 13.4871 13.0091 13.4239C12.9357 13.3606 12.8361 13.325 12.7323 13.325H10.3909V6.8H11.421C11.4471 6.8 11.4732 6.80675 11.4941 6.81935L12.3796 7.33865C12.5309 7.4273 12.7099 7.475 12.893 7.475H13.3554L11.5979 10.931C11.5628 11.0001 11.5555 11.0774 11.5772 11.1505C11.599 11.2235 11.6485 11.2882 11.7179 11.3342C11.7242 11.3383 11.7179 11.3342 11.719 11.3342C11.7707 11.3678 11.8247 11.3988 11.8807 11.4269C11.9773 11.4773 12.1155 11.5421 12.293 11.6069C12.7648 11.777 13.2713 11.8639 13.7827 11.8625C14.2943 11.8638 14.8011 11.7767 15.273 11.6064C15.4494 11.5421 15.5882 11.4773 15.6853 11.4269C15.7411 11.3985 15.7951 11.3676 15.847 11.3342C15.9164 11.2882 15.966 11.2235 15.9877 11.1505C16.0095 11.0774 16.0022 11.0001 15.9671 10.931L14.2106 7.475H15.034C15.1378 7.475 15.2374 7.43944 15.3108 7.37615C15.3842 7.31286 15.4254 7.22701 15.4254 7.1375C15.4254 7.04799 15.3842 6.96214 15.3108 6.89885C15.2374 6.83556 15.1378 6.8 15.034 6.8H12.8936C12.8675 6.79998 12.8421 6.79324 12.8205 6.78065L11.935 6.26135C11.7836 6.17253 11.6047 6.12502 11.4215 6.125H10.3909V5.3375ZM4.88215 10.9391C5.29287 11.1276 5.75118 11.2257 6.21643 11.2248C6.68168 11.2257 7.13999 11.1276 7.55071 10.9391L6.21643 8.3156L4.88215 10.9391ZM12.4537 10.9283C12.4965 10.9463 12.5445 10.9657 12.5972 10.985C12.8737 11.0854 13.2781 11.1875 13.7827 11.1875C14.2428 11.1886 14.6971 11.1 15.1118 10.9283L13.7827 8.31515L12.4537 10.9283Z" fill="#0FBCB2"/>
</svg>
