<svg width="150" height="150" viewBox="0 0 150 150" fill="none" xmlns="http://www.w3.org/2000/svg">
<rect x="0.5" y="0.5" width="149" height="149" stroke="#222222"/>
<path d="M42.8363 101.328H39.0983V109H36.6903V99.2H45.2443V109H42.8363V101.328ZM47.4071 99.2H50.8091C52.0598 99.2 53.0071 99.4847 53.6511 100.054C54.2951 100.623 54.6171 101.407 54.6171 102.406C54.6171 103.395 54.2951 104.179 53.6511 104.758C53.0071 105.327 52.0598 105.612 50.8091 105.612H49.7731V109H47.4071V99.2ZM50.8091 101.146H49.7731V103.652H50.8091C51.2851 103.652 51.6584 103.545 51.9291 103.33C52.1998 103.115 52.3351 102.807 52.3351 102.406C52.3351 101.995 52.1998 101.683 51.9291 101.468C51.6584 101.253 51.2851 101.146 50.8091 101.146ZM61.7254 109L60.8014 107.11H57.6934L56.7834 109H54.0954L59.2614 98.584L64.4134 109H61.7254ZM59.2614 102.812L58.1694 105.304H60.3394L59.2614 102.812ZM73.0843 106.242C73.0843 107.213 72.739 107.917 72.0483 108.356C71.367 108.785 70.443 109 69.2763 109H65.4403V99.2H69.0523C69.7243 99.2 70.3216 99.2933 70.8443 99.48C71.367 99.6573 71.7776 99.9327 72.0763 100.306C72.375 100.67 72.5243 101.132 72.5243 101.692C72.5243 102.168 72.3983 102.579 72.1463 102.924C71.8943 103.269 71.549 103.54 71.1103 103.736C71.6703 103.932 72.137 104.235 72.5103 104.646C72.893 105.047 73.0843 105.579 73.0843 106.242ZM68.7863 101.034H67.8063V103.092H68.7863C69.197 103.092 69.5143 102.999 69.7383 102.812C69.9623 102.625 70.0743 102.369 70.0743 102.042C70.0743 101.715 69.9623 101.468 69.7383 101.3C69.5143 101.123 69.197 101.034 68.7863 101.034ZM67.8063 107.166H69.0103C69.4676 107.166 69.8503 107.073 70.1583 106.886C70.4756 106.699 70.6343 106.373 70.6343 105.906C70.6343 105.477 70.4756 105.178 70.1583 105.01C69.8503 104.833 69.4676 104.744 69.0103 104.744H67.8063V107.166ZM74.1772 104.1C74.1772 103.344 74.3078 102.653 74.5692 102.028C74.8398 101.403 75.2132 100.861 75.6892 100.404C76.1745 99.9467 76.7345 99.5967 77.3692 99.354C78.0132 99.102 78.7085 98.976 79.4552 98.976C80.2112 98.976 80.9112 99.102 81.5552 99.354C82.1992 99.5967 82.7545 99.9467 83.2212 100.404C83.6972 100.861 84.0658 101.403 84.3272 102.028C84.5978 102.653 84.7332 103.344 84.7332 104.1C84.7332 104.856 84.6025 105.551 84.3412 106.186C84.0892 106.821 83.7252 107.371 83.2492 107.838C82.7732 108.305 82.2132 108.669 81.5692 108.93C80.9345 109.182 80.2298 109.308 79.4552 109.308C78.6898 109.308 77.9852 109.182 77.3412 108.93C76.6972 108.669 76.1372 108.305 75.6612 107.838C75.1852 107.371 74.8165 106.821 74.5552 106.186C74.3032 105.551 74.1772 104.856 74.1772 104.1ZM76.6832 104.1C76.6832 104.679 76.7952 105.192 77.0192 105.64C77.2525 106.079 77.5792 106.424 77.9992 106.676C78.4192 106.928 78.9045 107.054 79.4552 107.054C80.0152 107.054 80.5005 106.928 80.9112 106.676C81.3218 106.424 81.6392 106.079 81.8632 105.64C82.0965 105.192 82.2132 104.679 82.2132 104.1C82.2132 103.521 82.1012 103.013 81.8772 102.574C81.6532 102.126 81.3358 101.776 80.9252 101.524C80.5145 101.272 80.0245 101.146 79.4552 101.146C78.9045 101.146 78.4192 101.272 77.9992 101.524C77.5792 101.776 77.2525 102.126 77.0192 102.574C76.7952 103.013 76.6832 103.521 76.6832 104.1ZM93.8792 106.242C93.8792 107.213 93.5339 107.917 92.8432 108.356C92.1619 108.785 91.2379 109 90.0712 109H86.2352V99.2H89.8472C90.5192 99.2 91.1166 99.2933 91.6392 99.48C92.1619 99.6573 92.5726 99.9327 92.8712 100.306C93.1699 100.67 93.3192 101.132 93.3192 101.692C93.3192 102.168 93.1932 102.579 92.9412 102.924C92.6892 103.269 92.3439 103.54 91.9052 103.736C92.4652 103.932 92.9319 104.235 93.3052 104.646C93.6879 105.047 93.8792 105.579 93.8792 106.242ZM89.5812 101.034H88.6012V103.092H89.5812C89.9919 103.092 90.3092 102.999 90.5332 102.812C90.7572 102.625 90.8692 102.369 90.8692 102.042C90.8692 101.715 90.7572 101.468 90.5332 101.3C90.3092 101.123 89.9919 101.034 89.5812 101.034ZM88.6012 107.166H89.8052C90.2626 107.166 90.6452 107.073 90.9532 106.886C91.2706 106.699 91.4292 106.373 91.4292 105.906C91.4292 105.477 91.2706 105.178 90.9532 105.01C90.6452 104.833 90.2626 104.744 89.8052 104.744H88.6012V107.166ZM94.9721 104.1C94.9721 103.344 95.1028 102.653 95.3641 102.028C95.6348 101.403 96.0081 100.861 96.4841 100.404C96.9694 99.9467 97.5294 99.5967 98.1641 99.354C98.8081 99.102 99.5034 98.976 100.25 98.976C101.006 98.976 101.706 99.102 102.35 99.354C102.994 99.5967 103.549 99.9467 104.016 100.404C104.492 100.861 104.861 101.403 105.122 102.028C105.393 102.653 105.528 103.344 105.528 104.1C105.528 104.856 105.397 105.551 105.136 106.186C104.884 106.821 104.52 107.371 104.044 107.838C103.568 108.305 103.008 108.669 102.364 108.93C101.729 109.182 101.025 109.308 100.25 109.308C99.4848 109.308 98.7801 109.182 98.1361 108.93C97.4921 108.669 96.9321 108.305 96.4561 107.838C95.9801 107.371 95.6114 106.821 95.3501 106.186C95.0981 105.551 94.9721 104.856 94.9721 104.1ZM97.4781 104.1C97.4781 104.679 97.5901 105.192 97.8141 105.64C98.0474 106.079 98.3741 106.424 98.7941 106.676C99.2141 106.928 99.6994 107.054 100.25 107.054C100.81 107.054 101.295 106.928 101.706 106.676C102.117 106.424 102.434 106.079 102.658 105.64C102.891 105.192 103.008 104.679 103.008 104.1C103.008 103.521 102.896 103.013 102.672 102.574C102.448 102.126 102.131 101.776 101.72 101.524C101.309 101.272 100.819 101.146 100.25 101.146C99.6994 101.146 99.2141 101.272 98.7941 101.524C98.3741 101.776 98.0474 102.126 97.8141 102.574C97.5901 103.013 97.4781 103.521 97.4781 104.1ZM107.03 99.2H113.54V101.146H109.312V102.896H113.26V104.814H109.312V107.054H113.54V109H107.03V99.2ZM8.46248 124.1C8.46248 124.697 8.59315 125.211 8.85448 125.64C9.12515 126.069 9.48448 126.401 9.93248 126.634C10.3805 126.858 10.8658 126.97 11.3885 126.97C12.0792 126.97 12.6578 126.839 13.1245 126.578C13.6005 126.317 13.9972 126.013 14.3145 125.668V128.244C13.9225 128.543 13.4932 128.781 13.0265 128.958C12.5598 129.135 11.9672 129.224 11.2485 129.224C10.2032 129.224 9.27448 129.009 8.46248 128.58C7.65048 128.151 7.01582 127.553 6.55848 126.788C6.10115 126.013 5.87248 125.117 5.87248 124.1C5.87248 123.083 6.10115 122.191 6.55848 121.426C7.01582 120.651 7.65048 120.049 8.46248 119.62C9.27448 119.191 10.2032 118.976 11.2485 118.976C11.9672 118.976 12.5598 119.065 13.0265 119.242C13.4932 119.419 13.9225 119.657 14.3145 119.956V122.532C13.9972 122.177 13.6005 121.874 13.1245 121.622C12.6578 121.361 12.0792 121.23 11.3885 121.23C10.8658 121.23 10.3805 121.347 9.93248 121.58C9.48448 121.804 9.12515 122.131 8.85448 122.56C8.59315 122.98 8.46248 123.493 8.46248 124.1ZM15.6752 124.1C15.6752 123.344 15.8059 122.653 16.0672 122.028C16.3379 121.403 16.7112 120.861 17.1872 120.404C17.6726 119.947 18.2326 119.597 18.8672 119.354C19.5112 119.102 20.2066 118.976 20.9532 118.976C21.7092 118.976 22.4092 119.102 23.0532 119.354C23.6972 119.597 24.2526 119.947 24.7192 120.404C25.1952 120.861 25.5639 121.403 25.8252 122.028C26.0959 122.653 26.2312 123.344 26.2312 124.1C26.2312 124.856 26.1006 125.551 25.8392 126.186C25.5872 126.821 25.2232 127.371 24.7472 127.838C24.2712 128.305 23.7112 128.669 23.0672 128.93C22.4326 129.182 21.7279 129.308 20.9532 129.308C20.1879 129.308 19.4832 129.182 18.8392 128.93C18.1952 128.669 17.6352 128.305 17.1592 127.838C16.6832 127.371 16.3146 126.821 16.0532 126.186C15.8012 125.551 15.6752 124.856 15.6752 124.1ZM18.1812 124.1C18.1812 124.679 18.2932 125.192 18.5172 125.64C18.7506 126.079 19.0772 126.424 19.4972 126.676C19.9172 126.928 20.4026 127.054 20.9532 127.054C21.5132 127.054 21.9986 126.928 22.4092 126.676C22.8199 126.424 23.1372 126.079 23.3612 125.64C23.5946 125.192 23.7112 124.679 23.7112 124.1C23.7112 123.521 23.5992 123.013 23.3752 122.574C23.1512 122.126 22.8339 121.776 22.4232 121.524C22.0126 121.272 21.5226 121.146 20.9532 121.146C20.4026 121.146 19.9172 121.272 19.4972 121.524C19.0772 121.776 18.7506 122.126 18.5172 122.574C18.2932 123.013 18.1812 123.521 18.1812 124.1ZM33.9633 121.328H30.2253V129H27.8173V119.2H36.3713V129H33.9633V121.328ZM38.534 119.2H41.936C43.1867 119.2 44.134 119.485 44.778 120.054C45.422 120.623 45.744 121.407 45.744 122.406C45.744 123.395 45.422 124.179 44.778 124.758C44.134 125.327 43.1867 125.612 41.936 125.612H40.9V129H38.534V119.2ZM41.936 121.146H40.9V123.652H41.936C42.412 123.652 42.7854 123.545 43.056 123.33C43.3267 123.115 43.462 122.807 43.462 122.406C43.462 121.995 43.3267 121.683 43.056 121.468C42.7854 121.253 42.412 121.146 41.936 121.146ZM46.6967 124.1C46.6967 123.344 46.8274 122.653 47.0887 122.028C47.3594 121.403 47.7327 120.861 48.2087 120.404C48.694 119.947 49.254 119.597 49.8887 119.354C50.5327 119.102 51.228 118.976 51.9747 118.976C52.7307 118.976 53.4307 119.102 54.0747 119.354C54.7187 119.597 55.274 119.947 55.7407 120.404C56.2167 120.861 56.5854 121.403 56.8467 122.028C57.1174 122.653 57.2527 123.344 57.2527 124.1C57.2527 124.856 57.122 125.551 56.8607 126.186C56.6087 126.821 56.2447 127.371 55.7687 127.838C55.2927 128.305 54.7327 128.669 54.0887 128.93C53.454 129.182 52.7494 129.308 51.9747 129.308C51.2094 129.308 50.5047 129.182 49.8607 128.93C49.2167 128.669 48.6567 128.305 48.1807 127.838C47.7047 127.371 47.336 126.821 47.0747 126.186C46.8227 125.551 46.6967 124.856 46.6967 124.1ZM49.2027 124.1C49.2027 124.679 49.3147 125.192 49.5387 125.64C49.772 126.079 50.0987 126.424 50.5187 126.676C50.9387 126.928 51.424 127.054 51.9747 127.054C52.5347 127.054 53.02 126.928 53.4307 126.676C53.8414 126.424 54.1587 126.079 54.3827 125.64C54.616 125.192 54.7327 124.679 54.7327 124.1C54.7327 123.521 54.6207 123.013 54.3967 122.574C54.1727 122.126 53.8554 121.776 53.4447 121.524C53.034 121.272 52.544 121.146 51.9747 121.146C51.424 121.146 50.9387 121.272 50.5187 121.524C50.0987 121.776 49.772 122.126 49.5387 122.574C49.3147 123.013 49.2027 123.521 49.2027 124.1ZM66.3988 126.242C66.3988 127.213 66.0534 127.917 65.3628 128.356C64.6814 128.785 63.7574 129 62.5908 129H58.7548V119.2H62.3668C63.0388 119.2 63.6361 119.293 64.1588 119.48C64.6814 119.657 65.0921 119.933 65.3908 120.306C65.6894 120.67 65.8388 121.132 65.8388 121.692C65.8388 122.168 65.7128 122.579 65.4608 122.924C65.2088 123.269 64.8634 123.54 64.4248 123.736C64.9848 123.932 65.4514 124.235 65.8248 124.646C66.2074 125.047 66.3988 125.579 66.3988 126.242ZM62.1008 121.034H61.1208V123.092H62.1008C62.5114 123.092 62.8288 122.999 63.0528 122.812C63.2768 122.625 63.3888 122.369 63.3888 122.042C63.3888 121.715 63.2768 121.468 63.0528 121.3C62.8288 121.123 62.5114 121.034 62.1008 121.034ZM61.1208 127.166H62.3248C62.7821 127.166 63.1648 127.073 63.4728 126.886C63.7901 126.699 63.9488 126.373 63.9488 125.906C63.9488 125.477 63.7901 125.178 63.4728 125.01C63.1648 124.833 62.7821 124.744 62.3248 124.744H61.1208V127.166ZM67.4916 124.1C67.4916 123.344 67.6223 122.653 67.8836 122.028C68.1543 121.403 68.5276 120.861 69.0036 120.404C69.489 119.947 70.049 119.597 70.6836 119.354C71.3276 119.102 72.023 118.976 72.7696 118.976C73.5256 118.976 74.2256 119.102 74.8696 119.354C75.5136 119.597 76.069 119.947 76.5356 120.404C77.0116 120.861 77.3803 121.403 77.6416 122.028C77.9123 122.653 78.0476 123.344 78.0476 124.1C78.0476 124.856 77.917 125.551 77.6556 126.186C77.4036 126.821 77.0396 127.371 76.5636 127.838C76.0876 128.305 75.5276 128.669 74.8836 128.93C74.249 129.182 73.5443 129.308 72.7696 129.308C72.0043 129.308 71.2996 129.182 70.6556 128.93C70.0116 128.669 69.4516 128.305 68.9756 127.838C68.4996 127.371 68.131 126.821 67.8696 126.186C67.6176 125.551 67.4916 124.856 67.4916 124.1ZM69.9976 124.1C69.9976 124.679 70.1096 125.192 70.3336 125.64C70.567 126.079 70.8936 126.424 71.3136 126.676C71.7336 126.928 72.219 127.054 72.7696 127.054C73.3296 127.054 73.815 126.928 74.2256 126.676C74.6363 126.424 74.9536 126.079 75.1776 125.64C75.411 125.192 75.5276 124.679 75.5276 124.1C75.5276 123.521 75.4156 123.013 75.1916 122.574C74.9676 122.126 74.6503 121.776 74.2396 121.524C73.829 121.272 73.339 121.146 72.7696 121.146C72.219 121.146 71.7336 121.272 71.3136 121.524C70.8936 121.776 70.567 122.126 70.3336 122.574C70.1096 123.013 69.9976 123.521 69.9976 124.1ZM81.0578 119.2L84.4878 123.12V119.2H86.9378V123.092L90.2278 119.2H93.0978L89.0238 123.792L93.3078 129H90.4378L86.9378 124.59V129H84.4878V124.576L80.8618 129H78.0758L82.3458 123.792L78.2858 119.2H81.0578ZM102.645 129H96.2053V130.54H93.8393V126.956H95.4353L99.4253 118.71L103.415 126.956H105.011V130.54H102.645V129ZM99.4253 122.98L97.9833 126.956H100.867L99.4253 122.98ZM106.661 119.2H113.171V121.146H108.943V122.896H112.891V124.814H108.943V127.054H113.171V129H106.661V119.2ZM115.097 119.2H117.463V122.77H121.677V119.2H124.043V129H121.677V124.898H117.463V129H115.097V119.2ZM128.384 119.2V124.604L135.146 118.71V129H132.864V123.596L126.102 129.49V119.2H128.384ZM137.204 119.2H143.714V121.146H139.486V122.896H143.434V124.814H139.486V127.054H143.714V129H137.204V119.2Z" fill="#222222"/>
<path d="M61.7 63.55V63.5V59.7501V59.75H61.75C61.7496 59.5478 61.833 59.3545 61.9803 59.216L61.7 63.55ZM61.7 63.55H61.75H63.25H63.3V63.5V61.25V59.75C63.3 59.3083 62.942 58.9502 62.5003 58.95M61.7 63.55L62.5003 58.95M62.5003 58.95C62.5004 58.95 62.5005 58.95 62.5006 58.95L62.5 59V58.95C62.5001 58.95 62.5002 58.95 62.5003 58.95ZM85.7 63.55V63.5V59.75C85.7 59.3083 86.0581 58.9501 86.4998 58.95L85.7 63.55ZM85.7 63.55H85.75M85.7 63.55H85.75M85.75 63.55H87.25H87.3M85.75 63.55H87.3M87.3 63.55V63.5M87.3 63.55V63.5M87.3 63.5V61.25V59.7504M87.3 63.5L87.0706 59.1946M87.0706 59.1946C86.9223 59.0378 86.7158 58.9493 86.5 58.95L87.0706 59.1946ZM87.0706 59.1946C87.2189 59.3414 87.3016 59.5417 87.3 59.7504M87.3 59.7504L87.25 59.75M87.3 59.7504V59.75H87.25M87.25 59.75V61.25V63.45L87.0348 59.2295C87.1739 59.3668 87.2515 59.5545 87.25 59.75ZM86.45 42.5V42.55H86.5H94.75C95.965 42.55 96.95 43.535 96.95 44.75V59.7498C96.9462 60.6787 96.3592 61.5052 95.4833 61.8149L95.45 61.8266V61.862V71.75C95.45 72.965 94.465 73.95 93.25 73.95H55.75C54.535 73.95 53.55 72.965 53.55 71.75V61.862V61.8266L53.5167 61.8149C52.6408 61.5052 52.0539 60.6788 52.05 59.7499V44.75C52.05 43.535 53.035 42.55 54.25 42.55H62.5H62.55V42.5V40.2501C62.5533 37.3795 64.8795 35.0533 67.7501 35.05L81.25 35.05C84.1205 35.0533 86.4468 37.3795 86.45 40.25V42.5ZM63.95 40.2499V40.25V42.5V42.55H64H65.4925H65.543L65.5425 42.4995L65.5223 40.2575V40.2573V40.2501C65.5246 39.036 66.5083 38.0524 67.7223 38.05H81.2499C82.4639 38.0524 83.4474 39.0358 83.45 40.2497C83.45 40.2498 83.45 40.25 83.45 40.2501L83.42 42.4993L83.4193 42.55H83.47H85H85.05V42.5V40.25C85.0475 38.1524 83.3476 36.4525 81.2501 36.45H81.25L67.75 36.45L67.7499 36.45C65.6524 36.4525 63.9525 38.1524 63.95 40.2499ZM82.05 40.2402L82.05 40.2388C82.0439 39.8013 81.6875 39.45 81.25 39.45H67.7192C67.2774 39.45 66.9192 39.8082 66.9192 40.25L66.9193 40.2505L66.9425 42.5005L66.943 42.55H66.9925H81.97H82.0193L82.02 42.5007L82.05 40.2402ZM55 61.95H54.95V62V71.75C54.95 72.1918 55.3082 72.55 55.75 72.55H93.25C93.6918 72.55 94.05 72.1918 94.05 71.75V62V61.95H94H88.75H88.7V62V64.25C88.7 64.6366 88.3866 64.95 88 64.95H85C84.6134 64.95 84.3 64.6366 84.3 64.25V62V61.95H84.25H64.75H64.7V62V64.25C64.7 64.6366 64.3866 64.95 64 64.95H61C60.6134 64.95 60.3 64.6366 60.3 64.25V62V61.95H60.25H55ZM88.7 60.5V60.55H88.75H94.75C95.1918 60.55 95.55 60.1918 95.55 59.75V44.75C95.55 44.3082 95.1918 43.95 94.75 43.95H54.25C53.8082 43.95 53.45 44.3082 53.45 44.75V59.75C53.45 60.1918 53.8082 60.55 54.25 60.55H60.25H60.3V60.5L60.3 59.7503C60.3 59.7502 60.3 59.7502 60.3 59.7501C60.3069 58.5378 61.288 57.5568 62.5003 57.55C63.7152 57.5501 64.7 58.535 64.7 59.75V60.5V60.55H64.75H84.25H84.3V60.5V59.75C84.3 58.535 85.2848 57.5501 86.4998 57.55C87.7127 57.5552 88.6948 58.5373 88.7 59.7502V60.5Z" fill="#222222" stroke="white" stroke-width="0.1"/>
</svg>
