<svg width="150" height="150" viewBox="0 0 150 150" fill="none" xmlns="http://www.w3.org/2000/svg">
<rect x="0.5" y="0.5" width="149" height="149" stroke="#222222"/>
<path d="M34.0111 111.328H30.2731V119H27.8651V109.2H36.4191V119H34.0111V111.328ZM38.5819 109.2H45.0919V111.146H40.8639V112.896H44.8119V114.814H40.8639V117.054H45.0919V119H38.5819V109.2ZM47.0174 109.2H50.4194C51.6701 109.2 52.6174 109.485 53.2614 110.054C53.9054 110.623 54.2274 111.407 54.2274 112.406C54.2274 113.395 53.9054 114.179 53.2614 114.758C52.6174 115.327 51.6701 115.612 50.4194 115.612H49.3834V119H47.0174V109.2ZM50.4194 111.146H49.3834V113.652H50.4194C50.8954 113.652 51.2688 113.545 51.5394 113.33C51.8101 113.115 51.9454 112.807 51.9454 112.406C51.9454 111.995 51.8101 111.683 51.5394 111.468C51.2688 111.253 50.8954 111.146 50.4194 111.146ZM55.7401 109.2H62.2501V111.146H58.0221V112.896H61.9701V114.814H58.0221V117.054H62.2501V119H55.7401V109.2ZM64.2596 109.2H70.0976V111.328H66.6256V119H64.2596V109.2ZM70.0004 114.1C70.0004 113.344 70.1311 112.653 70.3924 112.028C70.6631 111.403 71.0364 110.861 71.5124 110.404C71.9977 109.947 72.5577 109.597 73.1924 109.354C73.8364 109.102 74.5317 108.976 75.2784 108.976C76.0344 108.976 76.7344 109.102 77.3784 109.354C78.0224 109.597 78.5777 109.947 79.0444 110.404C79.5204 110.861 79.8891 111.403 80.1504 112.028C80.4211 112.653 80.5564 113.344 80.5564 114.1C80.5564 114.856 80.4257 115.551 80.1644 116.186C79.9124 116.821 79.5484 117.371 79.0724 117.838C78.5964 118.305 78.0364 118.669 77.3924 118.93C76.7577 119.182 76.0531 119.308 75.2784 119.308C74.5131 119.308 73.8084 119.182 73.1644 118.93C72.5204 118.669 71.9604 118.305 71.4844 117.838C71.0084 117.371 70.6397 116.821 70.3784 116.186C70.1264 115.551 70.0004 114.856 70.0004 114.1ZM72.5064 114.1C72.5064 114.679 72.6184 115.192 72.8424 115.64C73.0757 116.079 73.4024 116.424 73.8224 116.676C74.2424 116.928 74.7277 117.054 75.2784 117.054C75.8384 117.054 76.3237 116.928 76.7344 116.676C77.1451 116.424 77.4624 116.079 77.6864 115.64C77.9197 115.192 78.0364 114.679 78.0364 114.1C78.0364 113.521 77.9244 113.013 77.7004 112.574C77.4764 112.126 77.1591 111.776 76.7484 111.524C76.3377 111.272 75.8477 111.146 75.2784 111.146C74.7277 111.146 74.2424 111.272 73.8224 111.524C73.4024 111.776 73.0757 112.126 72.8424 112.574C72.6184 113.013 72.5064 113.521 72.5064 114.1ZM89.7025 116.242C89.7025 117.213 89.3571 117.917 88.6665 118.356C87.9851 118.785 87.0611 119 85.8945 119H82.0585V109.2H85.6705C86.3425 109.2 86.9398 109.293 87.4625 109.48C87.9851 109.657 88.3958 109.933 88.6945 110.306C88.9931 110.67 89.1425 111.132 89.1425 111.692C89.1425 112.168 89.0165 112.579 88.7645 112.924C88.5125 113.269 88.1671 113.54 87.7285 113.736C88.2885 113.932 88.7551 114.235 89.1285 114.646C89.5111 115.047 89.7025 115.579 89.7025 116.242ZM85.4045 111.034H84.4245V113.092H85.4045C85.8151 113.092 86.1325 112.999 86.3565 112.812C86.5805 112.625 86.6925 112.369 86.6925 112.042C86.6925 111.715 86.5805 111.468 86.3565 111.3C86.1325 111.123 85.8151 111.034 85.4045 111.034ZM84.4245 117.166H85.6285C86.0858 117.166 86.4685 117.073 86.7765 116.886C87.0938 116.699 87.2525 116.373 87.2525 115.906C87.2525 115.477 87.0938 115.178 86.7765 115.01C86.4685 114.833 86.0858 114.744 85.6285 114.744H84.4245V117.166ZM90.7953 114.1C90.7953 113.344 90.926 112.653 91.1873 112.028C91.458 111.403 91.8313 110.861 92.3073 110.404C92.7927 109.947 93.3527 109.597 93.9873 109.354C94.6313 109.102 95.3267 108.976 96.0733 108.976C96.8293 108.976 97.5293 109.102 98.1733 109.354C98.8173 109.597 99.3727 109.947 99.8393 110.404C100.315 110.861 100.684 111.403 100.945 112.028C101.216 112.653 101.351 113.344 101.351 114.1C101.351 114.856 101.221 115.551 100.959 116.186C100.707 116.821 100.343 117.371 99.8673 117.838C99.3913 118.305 98.8313 118.669 98.1873 118.93C97.5527 119.182 96.848 119.308 96.0733 119.308C95.308 119.308 94.6033 119.182 93.9593 118.93C93.3153 118.669 92.7553 118.305 92.2793 117.838C91.8033 117.371 91.4347 116.821 91.1733 116.186C90.9213 115.551 90.7953 114.856 90.7953 114.1ZM93.3013 114.1C93.3013 114.679 93.4133 115.192 93.6373 115.64C93.8707 116.079 94.1973 116.424 94.6173 116.676C95.0373 116.928 95.5227 117.054 96.0733 117.054C96.6333 117.054 97.1187 116.928 97.5293 116.676C97.94 116.424 98.2573 116.079 98.4813 115.64C98.7147 115.192 98.8313 114.679 98.8313 114.1C98.8313 113.521 98.7193 113.013 98.4953 112.574C98.2713 112.126 97.954 111.776 97.5433 111.524C97.1327 111.272 96.6427 111.146 96.0733 111.146C95.5227 111.146 95.0373 111.272 94.6173 111.524C94.1973 111.776 93.8707 112.126 93.6373 112.574C93.4133 113.013 93.3013 113.521 93.3013 114.1ZM102.853 109.2H106.255C107.506 109.2 108.453 109.485 109.097 110.054C109.741 110.623 110.063 111.407 110.063 112.406C110.063 113.395 109.741 114.179 109.097 114.758C108.453 115.327 107.506 115.612 106.255 115.612H105.219V119H102.853V109.2ZM106.255 111.146H105.219V113.652H106.255C106.731 113.652 107.105 113.545 107.375 113.33C107.646 113.115 107.781 112.807 107.781 112.406C107.781 111.995 107.646 111.683 107.375 111.468C107.105 111.253 106.731 111.146 106.255 111.146ZM119.808 109.2H122.23V119H119.808V109.2ZM111.576 109.2H113.942V112.588H114.978C116.229 112.588 117.176 112.873 117.82 113.442C118.464 114.011 118.786 114.795 118.786 115.794C118.786 116.783 118.464 117.567 117.82 118.146C117.176 118.715 116.229 119 114.978 119H111.576V109.2ZM114.978 114.548H113.942V117.054H114.978C115.454 117.054 115.827 116.947 116.098 116.732C116.369 116.508 116.504 116.195 116.504 115.794C116.504 115.383 116.369 115.075 116.098 114.87C115.827 114.655 115.454 114.548 114.978 114.548Z" fill="#222222"/>
<g clip-path="url(#clip0)">
<path d="M62.9513 42.4413L57.744 57.6251C57.7439 57.6252 57.7439 57.6253 57.7439 57.6254C57.6859 57.7991 57.5589 57.9367 57.3992 58.0166C57.3062 58.0631 57.2025 58.086 57.0994 58.086C57.0198 58.086 56.9488 58.0744 56.8678 58.0401L50.3889 55.819L50.3881 55.8188C50.0334 55.6929 49.8368 55.3032 49.9635 54.9452C49.9636 54.9451 49.9636 54.945 49.9637 54.9448L55.4002 39.0856C55.4003 39.0855 55.4003 39.0854 55.4003 39.0853C55.4583 38.9116 55.5853 38.774 55.745 38.6941C55.9069 38.6132 56.1016 38.6021 56.2733 38.6593L56.2737 38.6595L56.2737 38.6595L62.7449 40.8609L62.7487 40.8622L62.7486 40.8623C62.804 40.8844 62.8582 40.9167 62.9066 40.9457L63.985 41.3323L63.9853 41.3324C64.8669 41.653 65.8594 41.593 66.7016 41.1819L66.7019 41.1818L67.3367 40.8746L67.3368 40.8746C68.5013 40.3132 69.863 40.2299 71.0798 40.6459L71.08 40.646L83.7247 45.0077C83.7248 45.0077 83.7249 45.0077 83.7251 45.0078C84.002 45.1003 84.197 45.3759 84.1855 45.6756L84.1853 45.681L84.1851 45.681C84.1846 45.6849 84.184 45.6937 84.1831 45.7068C84.1747 45.832 84.1392 46.3582 83.948 46.981C83.7369 47.6688 83.333 48.4856 82.5558 49.0212L82.5556 49.0214C81.5874 49.6843 80.342 49.7518 78.8437 49.2352L62.9513 42.4413ZM62.9513 42.4413L63.535 42.651L63.5352 42.6511C64.7627 43.088 66.1454 43.0047 67.3203 42.4328L67.955 42.1257L67.9555 42.1255C68.7873 41.7146 69.77 41.6544 70.642 41.9551L82.7556 46.1322C82.6553 46.6642 82.3987 47.4692 81.7845 47.8944C81.2195 48.2839 80.3885 48.312 79.3126 47.9364L79.312 47.9362L73.9979 46.1239L73.9979 46.1239L73.9961 46.1233C73.8148 46.0667 73.6198 46.0775 73.4469 46.1697C73.2726 46.2626 73.1593 46.4238 73.1034 46.6026L73.1035 46.6026C73.103 46.6041 73.1023 46.6065 73.1013 46.61C73.0493 46.7886 72.2462 49.548 69.8837 50.808L69.8833 50.8082C68.3513 51.6347 66.4496 51.6693 64.2199 50.9058C63.862 50.779 63.4722 50.9756 63.3464 51.3304C63.2193 51.6884 63.416 52.0784 63.7708 52.2043L63.7716 52.2046C64.976 52.6164 66.1208 52.823 67.1851 52.823C68.4048 52.823 69.523 52.5541 70.5382 52.0051C72.7071 50.8395 73.7716 48.7337 74.1921 47.6409L78.8436 49.2352L62.9513 42.4413ZM61.666 41.9731L56.674 56.513L51.4915 54.7389L56.4805 40.1875L61.5859 41.933L61.666 41.9731Z" fill="#222222" stroke="#222222" stroke-width="0.15"/>
<path d="M100.008 54.1279L100.008 54.1293C100.169 54.4732 100.031 54.8754 99.6873 55.0472L99.6867 55.0475L93.6246 58.0121L90.9602 60.4621L90.9602 60.4622C88.8252 62.4226 86.4335 64.065 83.8261 65.3379L72.0408 71.1026L72.0406 71.1027C71.6724 71.2815 71.2722 71.3765 70.8713 71.3765C70.5756 71.3765 70.2809 71.3237 69.9977 71.2293L69.997 71.229C69.323 70.9973 68.7753 70.5129 68.4594 69.8709C68.2484 69.4581 68.1597 69.0106 68.185 68.5605L67.188 69.0545L100.008 54.1279ZM100.008 54.1279L92.615 39.1069L92.6148 39.1065M100.008 54.1279L92.6148 39.1065M92.6148 39.1065C92.5349 38.9467 92.3971 38.8196 92.2233 38.7617C92.0517 38.7045 91.8572 38.7155 91.6954 38.7963C91.6952 38.7964 91.6951 38.7964 91.695 38.7965L85.5418 41.8065L85.5413 41.8068C85.1977 41.9786 85.0596 42.3808 85.2201 42.7248L85.2207 42.726L92.3635 57.3177L89.9987 59.4812L89.9986 59.4814C87.9664 61.3502 85.6686 62.9127 83.1868 64.1281C83.1868 64.1281 83.1868 64.1281 83.1868 64.1281L71.4015 69.8927L71.4009 69.893C71.0918 70.0476 70.7444 70.0671 70.415 69.9508C70.0853 69.8345 69.8239 69.6021 69.6687 69.2917C69.5142 68.9827 69.4946 68.6352 69.6109 68.3058C69.7272 67.9763 69.9594 67.7149 70.2696 67.5597C70.2697 67.5597 70.2699 67.5596 70.27 67.5595L76.8532 64.3345L76.8538 64.3342C77.1974 64.1624 77.3354 63.7602 77.1749 63.4163L77.1749 63.4162L77.174 63.4144C77.0023 63.071 76.5895 62.9323 76.2552 63.0937L76.2548 63.0939L69.8144 66.2476L69.8144 66.2476L66.5688 67.8345C66.5687 67.8346 66.5686 67.8346 66.5686 67.8346C65.9291 68.1445 65.1452 67.8822 64.8362 67.2447C64.5265 66.606 64.7877 65.8315 65.4265 65.5119C65.4266 65.5118 65.4267 65.5118 65.4268 65.5117L74.8873 60.8839L74.8879 60.8836C75.2314 60.7118 75.3695 60.3096 75.209 59.9656L75.209 59.9656L75.2081 59.9638C75.0364 59.6204 74.6236 59.4817 74.2893 59.6431L74.2889 59.6433L67.2854 63.0734L67.2853 63.0734L64.828 64.2713L64.828 64.2714L63.6711 64.8344L92.6148 39.1065ZM63.3705 66.3161C63.2882 66.323 63.2043 66.3285 63.1202 66.3285C62.1303 66.3285 61.1819 65.7809 60.7183 64.8325C60.2171 63.8097 60.4309 62.6183 61.1759 61.827C60.7308 61.5645 60.3629 61.1822 60.1345 60.7059C59.8186 60.0633 59.7766 59.3362 60.0082 58.6623C60.2399 57.9881 60.7246 57.4404 61.3669 57.1245L61.367 57.1244L65.862 54.923L65.8624 54.9228C66.1967 54.7614 66.6095 54.9001 66.7812 55.2435L66.7821 55.2453L66.7821 55.2453C66.9426 55.5893 66.8046 55.9915 66.461 56.1633L66.4604 56.1636L61.966 58.3647C61.9658 58.3648 61.9657 58.3648 61.9656 58.3649C61.6554 58.5201 61.4232 58.7814 61.3069 59.111C61.1906 59.4404 61.2101 59.7879 61.3647 60.0969C61.5198 60.4073 61.7813 60.6396 62.111 60.756C62.4403 60.8723 62.7878 60.8527 63.0969 60.6982L63.0974 60.6979L66.1282 59.2132L66.1612 59.2806L66.1282 59.2132L71.5653 56.551L71.5656 56.5509C71.8999 56.3895 72.3127 56.5281 72.4845 56.8716L72.4854 56.8734L72.4853 56.8734C72.6458 57.2173 72.5078 57.6195 72.1642 57.7913L72.1637 57.7916L63.6959 61.9384L63.6958 61.9385L62.5286 62.5118L62.5283 62.512C61.8907 62.8211 61.6284 63.6051 61.9385 64.2446C62.2476 64.8821 63.0315 65.1445 63.671 64.8345L63.3705 66.3161ZM63.3705 66.3161C63.3081 66.814 63.3781 67.3371 63.6157 67.8321L63.6159 67.8326C64.0796 68.7809 65.0279 69.3286 66.0179 69.3286C66.4075 69.3286 66.8081 69.2444 67.1877 69.0546L63.3705 66.3161ZM93.5241 56.559L86.7605 42.7378L91.6838 40.3359L98.4373 54.1573L93.5241 56.559Z" fill="#222222" stroke="#222222" stroke-width="0.15"/>
</g>
<defs>
<clipPath id="clip0">
<rect width="50" height="50" fill="white" transform="translate(50 30)"/>
</clipPath>
</defs>
</svg>
