<svg width="150" height="150" viewBox="0 0 150 150" fill="none" xmlns="http://www.w3.org/2000/svg">
<rect width="150" height="150" fill="#222222"/>
<path d="M75 45L88.3333 51.6667V78.3333H61.6667V51.6667L75 45ZM75 45V30M50 78.3333H100M55 78.3333V58.3333H61.6667M95 78.3333V58.3333H88.3333M71.6667 78.3333V68.3333H78.3333V78.3333M75 31.6667H85V38.3333H75M75 61.6667C73.1591 61.6667 71.6667 60.1743 71.6667 58.3333C71.6667 56.4924 73.1591 55 75 55C76.8409 55 78.3333 56.4924 78.3333 58.3333C78.3333 60.1743 76.8409 61.6667 75 61.6667Z" stroke="#0FBCB2" stroke-width="1.5"/>
<path d="M42.3113 119L41.3873 117.11H38.2793L37.3693 119H34.6813L39.8473 108.584L44.9993 119H42.3113ZM39.8473 112.812L38.7553 115.304H40.9253L39.8473 112.812ZM46.0262 109.2H49.4282C50.6789 109.2 51.6262 109.485 52.2702 110.054C52.9142 110.623 53.2362 111.407 53.2362 112.406C53.2362 113.395 52.9142 114.179 52.2702 114.758C51.6262 115.327 50.6789 115.612 49.4282 115.612H48.3922V119H46.0262V109.2ZM49.4282 111.146H48.3922V113.652H49.4282C49.9042 113.652 50.2776 113.545 50.5482 113.33C50.8189 113.115 50.9542 112.807 50.9542 112.406C50.9542 111.995 50.8189 111.683 50.5482 111.468C50.2776 111.253 49.9042 111.146 49.4282 111.146ZM54.8329 109.2H61.8329V111.146H57.2409V112.896H59.2429C59.8776 112.896 60.4422 113.027 60.9369 113.288C61.4409 113.54 61.8376 113.895 62.1269 114.352C62.4256 114.8 62.5749 115.327 62.5749 115.934C62.5749 116.531 62.4256 117.063 62.1269 117.53C61.8376 117.987 61.4409 118.347 60.9369 118.608C60.4422 118.869 59.8776 119 59.2429 119H54.8329V109.2ZM58.7249 114.814H57.2409V117.054H58.7249C59.1822 117.054 59.5322 116.965 59.7749 116.788C60.0269 116.601 60.1529 116.317 60.1529 115.934C60.1529 115.551 60.0269 115.271 59.7749 115.094C59.5322 114.907 59.1822 114.814 58.7249 114.814ZM66.4508 109.2V114.604L73.2128 108.71V119H70.9308V113.596L64.1688 119.49V109.2H66.4508ZM74.2904 111.328V109.2H82.0464V111.328H79.3584V119H76.9784V111.328H74.2904ZM83.118 109.2H86.52C87.7707 109.2 88.718 109.485 89.362 110.054C90.006 110.623 90.328 111.407 90.328 112.406C90.328 113.395 90.006 114.179 89.362 114.758C88.718 115.327 87.7707 115.612 86.52 115.612H85.484V119H83.118V109.2ZM86.52 111.146H85.484V113.652H86.52C86.996 113.652 87.3694 113.545 87.64 113.33C87.9107 113.115 88.046 112.807 88.046 112.406C88.046 111.995 87.9107 111.683 87.64 111.468C87.3694 111.253 86.996 111.146 86.52 111.146ZM97.4363 119L96.5123 117.11H93.4043L92.4943 119H89.8063L94.9723 108.584L100.124 119H97.4363ZM94.9723 112.812L93.8803 115.304H96.0503L94.9723 112.812ZM103.083 109.2L106.513 113.12V109.2H108.963V113.092L112.253 109.2H115.123L111.049 113.792L115.333 119H112.463L108.963 114.59V119H106.513V114.576L102.887 119H100.101L104.371 113.792L100.311 109.2H103.083Z" fill="white"/>
</svg>
