<svg width="150" height="150" viewBox="0 0 150 150" fill="none" xmlns="http://www.w3.org/2000/svg">
<rect x="0.5" y="0.5" width="149" height="149" stroke="#222222"/>
<path d="M22.1776 99.2H28.0156V101.328H24.5436V109H22.1776V99.2ZM29.1756 99.2H32.5776C33.8283 99.2 34.7756 99.4847 35.4196 100.054C36.0636 100.623 36.3856 101.407 36.3856 102.406C36.3856 103.395 36.0636 104.179 35.4196 104.758C34.7756 105.327 33.8283 105.612 32.5776 105.612H31.5416V109H29.1756V99.2ZM32.5776 101.146H31.5416V103.652H32.5776C33.0536 103.652 33.427 103.545 33.6976 103.33C33.9683 103.115 34.1036 102.807 34.1036 102.406C34.1036 101.995 33.9683 101.683 33.6976 101.468C33.427 101.253 33.0536 101.146 32.5776 101.146ZM43.4939 109L42.5699 107.11H39.4619L38.5519 109H35.8639L41.0299 98.584L46.1819 109H43.4939ZM41.0299 102.812L39.9379 105.304H42.1079L41.0299 102.812ZM49.1409 99.2L52.5709 103.12V99.2H55.0209V103.092L58.3109 99.2H61.1809L57.1069 103.792L61.3909 109H58.5209L55.0209 104.59V109H52.5709V104.576L48.9449 109H46.1589L50.4289 103.792L46.3689 99.2H49.1409ZM70.7283 109H64.2883V110.54H61.9223V106.956H63.5183L67.5083 98.71L71.4983 106.956H73.0943V110.54H70.7283V109ZM67.5083 102.98L66.0663 106.956H68.9503L67.5083 102.98ZM81.7478 109L80.8238 107.11H77.7158L76.8058 109H74.1178L79.2838 98.584L84.4358 109H81.7478ZM79.2838 102.812L78.1918 105.304H80.3618L79.2838 102.812ZM85.4628 99.2H87.8288V102.77H92.0428V99.2H94.4088V109H92.0428V104.898H87.8288V109H85.4628V99.2ZM98.4986 104.1C98.4986 104.697 98.6293 105.211 98.8906 105.64C99.1613 106.069 99.5206 106.401 99.9686 106.634C100.417 106.858 100.902 106.97 101.425 106.97C102.115 106.97 102.694 106.839 103.161 106.578C103.637 106.317 104.033 106.013 104.351 105.668V108.244C103.959 108.543 103.529 108.781 103.063 108.958C102.596 109.135 102.003 109.224 101.285 109.224C100.239 109.224 99.3106 109.009 98.4986 108.58C97.6866 108.151 97.052 107.553 96.5946 106.788C96.1373 106.013 95.9086 105.117 95.9086 104.1C95.9086 103.083 96.1373 102.191 96.5946 101.426C97.052 100.651 97.6866 100.049 98.4986 99.62C99.3106 99.1907 100.239 98.976 101.285 98.976C102.003 98.976 102.596 99.0647 103.063 99.242C103.529 99.4193 103.959 99.6573 104.351 99.956V102.532C104.033 102.177 103.637 101.874 103.161 101.622C102.694 101.361 102.115 101.23 101.425 101.23C100.902 101.23 100.417 101.347 99.9686 101.58C99.5206 101.804 99.1613 102.131 98.8906 102.56C98.6293 102.98 98.4986 103.493 98.4986 104.1ZM106.271 99.2H108.721V103.064L112.053 99.2H114.839L110.863 103.792L115.049 109H112.179L108.721 104.716V109H106.271V99.2ZM114.817 104.1C114.817 103.344 114.947 102.653 115.209 102.028C115.479 101.403 115.853 100.861 116.329 100.404C116.814 99.9467 117.374 99.5967 118.009 99.354C118.653 99.102 119.348 98.976 120.095 98.976C120.851 98.976 121.551 99.102 122.195 99.354C122.839 99.5967 123.394 99.9467 123.861 100.404C124.337 100.861 124.705 101.403 124.967 102.028C125.237 102.653 125.373 103.344 125.373 104.1C125.373 104.856 125.242 105.551 124.981 106.186C124.729 106.821 124.365 107.371 123.889 107.838C123.413 108.305 122.853 108.669 122.209 108.93C121.574 109.182 120.869 109.308 120.095 109.308C119.329 109.308 118.625 109.182 117.981 108.93C117.337 108.669 116.777 108.305 116.301 107.838C115.825 107.371 115.456 106.821 115.195 106.186C114.943 105.551 114.817 104.856 114.817 104.1ZM117.323 104.1C117.323 104.679 117.435 105.192 117.659 105.64C117.892 106.079 118.219 106.424 118.639 106.676C119.059 106.928 119.544 107.054 120.095 107.054C120.655 107.054 121.14 106.928 121.551 106.676C121.961 106.424 122.279 106.079 122.503 105.64C122.736 105.192 122.853 104.679 122.853 104.1C122.853 103.521 122.741 103.013 122.517 102.574C122.293 102.126 121.975 101.776 121.565 101.524C121.154 101.272 120.664 101.146 120.095 101.146C119.544 101.146 119.059 101.272 118.639 101.524C118.219 101.776 117.892 102.126 117.659 102.574C117.435 103.013 117.323 103.521 117.323 104.1ZM125.909 106.592V104.758H128.891V106.592H125.909ZM13.3598 121.328H9.62175V129H7.21375V119.2H15.7678V129H13.3598V121.328ZM17.9305 119.2H21.3325C22.5832 119.2 23.5305 119.485 24.1745 120.054C24.8185 120.623 25.1405 121.407 25.1405 122.406C25.1405 123.395 24.8185 124.179 24.1745 124.758C23.5305 125.327 22.5832 125.612 21.3325 125.612H20.2965V129H17.9305V119.2ZM21.3325 121.146H20.2965V123.652H21.3325C21.8085 123.652 22.1819 123.545 22.4525 123.33C22.7232 123.115 22.8585 122.807 22.8585 122.406C22.8585 121.995 22.7232 121.683 22.4525 121.468C22.1819 121.253 21.8085 121.146 21.3325 121.146ZM32.2488 129L31.3248 127.11H28.2168L27.3068 129H24.6188L29.7848 118.584L34.9368 129H32.2488ZM29.7848 122.812L28.6928 125.304H30.8628L29.7848 122.812ZM43.6077 126.242C43.6077 127.213 43.2624 127.917 42.5717 128.356C41.8904 128.785 40.9664 129 39.7997 129H35.9637V119.2H39.5757C40.2477 119.2 40.8451 119.293 41.3677 119.48C41.8904 119.657 42.3011 119.933 42.5997 120.306C42.8984 120.67 43.0477 121.132 43.0477 121.692C43.0477 122.168 42.9217 122.579 42.6697 122.924C42.4177 123.269 42.0724 123.54 41.6337 123.736C42.1937 123.932 42.6604 124.235 43.0337 124.646C43.4164 125.047 43.6077 125.579 43.6077 126.242ZM39.3097 121.034H38.3297V123.092H39.3097C39.7204 123.092 40.0377 122.999 40.2617 122.812C40.4857 122.625 40.5977 122.369 40.5977 122.042C40.5977 121.715 40.4857 121.468 40.2617 121.3C40.0377 121.123 39.7204 121.034 39.3097 121.034ZM38.3297 127.166H39.5337C39.9911 127.166 40.3737 127.073 40.6817 126.886C40.9991 126.699 41.1577 126.373 41.1577 125.906C41.1577 125.477 40.9991 125.178 40.6817 125.01C40.3737 124.833 39.9911 124.744 39.5337 124.744H38.3297V127.166ZM44.7006 124.1C44.7006 123.344 44.8313 122.653 45.0926 122.028C45.3633 121.403 45.7366 120.861 46.2126 120.404C46.6979 119.947 47.2579 119.597 47.8926 119.354C48.5366 119.102 49.2319 118.976 49.9786 118.976C50.7346 118.976 51.4346 119.102 52.0786 119.354C52.7226 119.597 53.2779 119.947 53.7446 120.404C54.2206 120.861 54.5893 121.403 54.8506 122.028C55.1213 122.653 55.2566 123.344 55.2566 124.1C55.2566 124.856 55.1259 125.551 54.8646 126.186C54.6126 126.821 54.2486 127.371 53.7726 127.838C53.2966 128.305 52.7366 128.669 52.0926 128.93C51.4579 129.182 50.7533 129.308 49.9786 129.308C49.2133 129.308 48.5086 129.182 47.8646 128.93C47.2206 128.669 46.6606 128.305 46.1846 127.838C45.7086 127.371 45.3399 126.821 45.0786 126.186C44.8266 125.551 44.7006 124.856 44.7006 124.1ZM47.2066 124.1C47.2066 124.679 47.3186 125.192 47.5426 125.64C47.7759 126.079 48.1026 126.424 48.5226 126.676C48.9426 126.928 49.4279 127.054 49.9786 127.054C50.5386 127.054 51.0239 126.928 51.4346 126.676C51.8453 126.424 52.1626 126.079 52.3866 125.64C52.6199 125.192 52.7366 124.679 52.7366 124.1C52.7366 123.521 52.6246 123.013 52.4006 122.574C52.1766 122.126 51.8593 121.776 51.4486 121.524C51.0379 121.272 50.5479 121.146 49.9786 121.146C49.4279 121.146 48.9426 121.272 48.5226 121.524C48.1026 121.776 47.7759 122.126 47.5426 122.574C47.3186 123.013 47.2066 123.521 47.2066 124.1ZM64.4027 126.242C64.4027 127.213 64.0573 127.917 63.3667 128.356C62.6853 128.785 61.7613 129 60.5947 129H56.7587V119.2H60.3707C61.0427 119.2 61.64 119.293 62.1627 119.48C62.6853 119.657 63.096 119.933 63.3947 120.306C63.6933 120.67 63.8427 121.132 63.8427 121.692C63.8427 122.168 63.7167 122.579 63.4647 122.924C63.2127 123.269 62.8673 123.54 62.4287 123.736C62.9887 123.932 63.4553 124.235 63.8287 124.646C64.2113 125.047 64.4027 125.579 64.4027 126.242ZM60.1047 121.034H59.1247V123.092H60.1047C60.5153 123.092 60.8327 122.999 61.0567 122.812C61.2807 122.625 61.3927 122.369 61.3927 122.042C61.3927 121.715 61.2807 121.468 61.0567 121.3C60.8327 121.123 60.5153 121.034 60.1047 121.034ZM59.1247 127.166H60.3287C60.786 127.166 61.1687 127.073 61.4767 126.886C61.794 126.699 61.9527 126.373 61.9527 125.906C61.9527 125.477 61.794 125.178 61.4767 125.01C61.1687 124.833 60.786 124.744 60.3287 124.744H59.1247V127.166ZM74.2875 119.2H76.7095V129H74.2875V119.2ZM66.0555 119.2H68.4215V122.588H69.4575C70.7082 122.588 71.6555 122.873 72.2995 123.442C72.9435 124.011 73.2655 124.795 73.2655 125.794C73.2655 126.783 72.9435 127.567 72.2995 128.146C71.6555 128.715 70.7082 129 69.4575 129H66.0555V119.2ZM69.4575 124.548H68.4215V127.054H69.4575C69.9335 127.054 70.3069 126.947 70.5775 126.732C70.8482 126.508 70.9835 126.195 70.9835 125.794C70.9835 125.383 70.8482 125.075 70.5775 124.87C70.3069 124.655 69.9335 124.548 69.4575 124.548ZM78.7704 119.2H85.2804V121.146H81.0524V122.896H85.0004V124.814H81.0524V127.054H85.2804V129H78.7704V119.2ZM93.4332 124.1C93.4332 124.697 93.5639 125.211 93.8252 125.64C94.0959 126.069 94.4552 126.401 94.9032 126.634C95.3512 126.858 95.8365 126.97 96.3592 126.97C97.0499 126.97 97.6285 126.839 98.0952 126.578C98.5712 126.317 98.9679 126.013 99.2852 125.668V128.244C98.8932 128.543 98.4639 128.781 97.9972 128.958C97.5305 129.135 96.9379 129.224 96.2192 129.224C95.1739 129.224 94.2452 129.009 93.4332 128.58C92.6212 128.151 91.9865 127.553 91.5292 126.788C91.0719 126.013 90.8432 125.117 90.8432 124.1C90.8432 123.083 91.0719 122.191 91.5292 121.426C91.9865 120.651 92.6212 120.049 93.4332 119.62C94.2452 119.191 95.1739 118.976 96.2192 118.976C96.9379 118.976 97.5305 119.065 97.9972 119.242C98.4639 119.419 98.8932 119.657 99.2852 119.956V122.532C98.9679 122.177 98.5712 121.874 98.0952 121.622C97.6285 121.361 97.0499 121.23 96.3592 121.23C95.8365 121.23 95.3512 121.347 94.9032 121.58C94.4552 121.804 94.0959 122.131 93.8252 122.56C93.5639 122.98 93.4332 123.493 93.4332 124.1ZM107.436 121.328H103.698V129H101.29V119.2H109.844V129H107.436V121.328ZM111.447 124.1C111.447 123.344 111.577 122.653 111.839 122.028C112.109 121.403 112.483 120.861 112.959 120.404C113.444 119.947 114.004 119.597 114.639 119.354C115.283 119.102 115.978 118.976 116.725 118.976C117.481 118.976 118.181 119.102 118.825 119.354C119.469 119.597 120.024 119.947 120.491 120.404C120.967 120.861 121.335 121.403 121.597 122.028C121.867 122.653 122.003 123.344 122.003 124.1C122.003 124.856 121.872 125.551 121.611 126.186C121.359 126.821 120.995 127.371 120.519 127.838C120.043 128.305 119.483 128.669 118.839 128.93C118.204 129.182 117.499 129.308 116.725 129.308C115.959 129.308 115.255 129.182 114.611 128.93C113.967 128.669 113.407 128.305 112.931 127.838C112.455 127.371 112.086 126.821 111.825 126.186C111.573 125.551 111.447 124.856 111.447 124.1ZM113.953 124.1C113.953 124.679 114.065 125.192 114.289 125.64C114.522 126.079 114.849 126.424 115.269 126.676C115.689 126.928 116.174 127.054 116.725 127.054C117.285 127.054 117.77 126.928 118.181 126.676C118.591 126.424 118.909 126.079 119.133 125.64C119.366 125.192 119.483 124.679 119.483 124.1C119.483 123.521 119.371 123.013 119.147 122.574C118.923 122.126 118.605 121.776 118.195 121.524C117.784 121.272 117.294 121.146 116.725 121.146C116.174 121.146 115.689 121.272 115.269 121.524C114.849 121.776 114.522 122.126 114.289 122.574C114.065 123.013 113.953 123.521 113.953 124.1ZM123.505 119.2H126.907C128.157 119.2 129.105 119.485 129.749 120.054C130.393 120.623 130.715 121.407 130.715 122.406C130.715 123.395 130.393 124.179 129.749 124.758C129.105 125.327 128.157 125.612 126.907 125.612H125.871V129H123.505V119.2ZM126.907 121.146H125.871V123.652H126.907C127.383 123.652 127.756 123.545 128.027 123.33C128.297 123.115 128.433 122.807 128.433 122.406C128.433 121.995 128.297 121.683 128.027 121.468C127.756 121.253 127.383 121.146 126.907 121.146ZM140.459 119.2H142.881V129H140.459V119.2ZM132.227 119.2H134.593V122.588H135.629C136.88 122.588 137.827 122.873 138.471 123.442C139.115 124.011 139.437 124.795 139.437 125.794C139.437 126.783 139.115 127.567 138.471 128.146C137.827 128.715 136.88 129 135.629 129H132.227V119.2ZM135.629 124.548H134.593V127.054H135.629C136.105 127.054 136.479 126.947 136.749 126.732C137.02 126.508 137.155 126.195 137.155 125.794C137.155 125.383 137.02 125.075 136.749 124.87C136.479 124.655 136.105 124.548 135.629 124.548Z" fill="#222222"/>
<path d="M78.1175 78.6656H52.027C51.8478 78.6656 51.6759 78.5944 51.5492 78.4676C51.4225 78.3409 51.3513 78.1691 51.3513 77.9899V74.921C51.3522 74.1315 51.6662 73.3746 52.2245 72.8164C52.7827 72.2582 53.5396 71.9441 54.329 71.9433H75.8155C76.605 71.9441 77.3618 72.2582 77.9201 72.8164C78.4783 73.3746 78.7923 74.1315 78.7932 74.921V77.9899C78.7932 78.1691 78.722 78.3409 78.5953 78.4676C78.4686 78.5944 78.2967 78.6656 78.1175 78.6656ZM52.7027 77.3142H77.4419V74.921C77.4413 74.4898 77.2698 74.0764 76.9649 73.7715C76.66 73.4667 76.2467 73.2951 75.8155 73.2946H54.329C53.8979 73.2951 53.4845 73.4667 53.1796 73.7715C52.8747 74.0764 52.7032 74.4898 52.7027 74.921V77.3142Z" fill="#222222"/>
<path d="M73.8736 73.2946H56.2716C56.0924 73.2946 55.9206 73.2234 55.7938 73.0967C55.6671 72.97 55.5959 72.7981 55.5959 72.6189V70.8284C55.5968 70.0389 55.9108 69.282 56.4691 68.7238C57.0273 68.1656 57.7842 67.8516 58.5737 67.8507H71.5709C72.3604 67.8516 73.1173 68.1656 73.6755 68.7238C74.2337 69.282 74.5478 70.0389 74.5486 70.8284V72.6189C74.5486 72.798 74.4776 72.9698 74.351 73.0964C74.2244 73.2231 74.0527 73.2944 73.8736 73.2946ZM56.9473 71.9432H73.198V70.8284C73.1974 70.3972 73.0259 69.9838 72.721 69.679C72.4161 69.3741 72.0028 69.2026 71.5716 69.202H58.5737C58.1425 69.2026 57.7291 69.3741 57.4242 69.679C57.1194 69.9838 56.9478 70.3972 56.9473 70.8284V71.9432Z" fill="#222222"/>
<path d="M73.3609 58.9784C73.1817 58.9783 73.0099 58.9071 72.8832 58.7804L64.169 50.0676C64.0423 49.9409 63.9712 49.769 63.9712 49.5899C63.9712 49.4107 64.0423 49.2389 64.169 49.1122L76.5062 36.7736C76.6353 36.6516 76.8062 36.5835 76.9839 36.5835C77.1616 36.5835 77.3325 36.6516 77.4616 36.7736L86.1778 45.4899C86.3045 45.6166 86.3756 45.7884 86.3756 45.9676C86.3756 46.1467 86.3045 46.3186 86.1778 46.4453L73.8386 58.7804C73.7119 58.9071 73.5401 58.9783 73.3609 58.9784ZM65.6021 49.5865L73.3609 57.3473L84.742 45.9655L76.9839 38.2067L65.6021 49.5865Z" fill="#222222"/>
<path d="M87.9055 48.4892C87.7022 48.4896 87.5008 48.4498 87.313 48.3721C87.1251 48.2944 86.9545 48.1804 86.8109 48.0365L74.9129 36.1359C74.7691 35.9922 74.655 35.8215 74.5771 35.6337C74.4993 35.4459 74.4592 35.2446 74.4592 35.0413C74.4592 34.838 74.4993 34.6366 74.5771 34.4488C74.655 34.261 74.7691 34.0904 74.9129 33.9467L77.0751 31.7845C77.3655 31.4947 77.759 31.332 78.1693 31.332C78.5796 31.332 78.9731 31.4947 79.2636 31.7845L91.1616 43.6886C91.4515 43.979 91.6144 44.3727 91.6144 44.7832C91.6144 45.1936 91.4515 45.5873 91.1616 45.8778L88.9994 48.0399C88.8556 48.1831 88.6849 48.2965 88.4972 48.3736C88.3095 48.4507 88.1084 48.49 87.9055 48.4892ZM78.1663 32.6859C78.1404 32.6858 78.1148 32.6908 78.091 32.7007C78.0671 32.7105 78.0454 32.725 78.0271 32.7433L75.8649 34.9055C75.8282 34.9423 75.8075 34.9922 75.8075 35.0443C75.8075 35.0964 75.8282 35.1463 75.8649 35.1832L87.7703 47.0811C87.8073 47.1179 87.8574 47.1386 87.9095 47.1386C87.9617 47.1386 88.0117 47.1179 88.0487 47.0811L90.2109 44.919C90.2477 44.882 90.2683 44.8319 90.2683 44.7798C90.2683 44.7276 90.2477 44.6776 90.2109 44.6406L78.3055 32.7433C78.2872 32.725 78.2655 32.7106 78.2416 32.7007C78.2177 32.6909 78.1921 32.6858 78.1663 32.6859Z" fill="#222222"/>
<path d="M72.1785 64.2189C71.9752 64.2193 71.7738 64.1795 71.586 64.1018C71.3981 64.0241 71.2275 63.9101 71.0839 63.7662L59.1832 51.8649C59.0393 51.7212 58.9253 51.5505 58.8474 51.3627C58.7696 51.1749 58.7295 50.9736 58.7295 50.7703C58.7295 50.5669 58.7696 50.3656 58.8474 50.1778C58.9253 49.99 59.0393 49.8194 59.1832 49.6757L61.3453 47.5135C61.6401 47.2318 62.0322 47.0746 62.4399 47.0746C62.8477 47.0746 63.2397 47.2318 63.5345 47.5135L75.4325 59.4182C75.7221 59.7088 75.8847 60.1023 75.8847 60.5125C75.8847 60.9227 75.7221 61.3162 75.4325 61.6067L73.2703 63.7689C73.1268 63.912 72.9565 64.0253 72.7692 64.1025C72.5818 64.1798 72.3811 64.2193 72.1785 64.2189ZM62.4366 48.4149C62.4108 48.4147 62.3853 48.4197 62.3615 48.4295C62.3377 48.4394 62.3161 48.4539 62.298 48.4723L60.1359 50.6344C60.0991 50.6713 60.0785 50.7212 60.0785 50.7733C60.0785 50.8254 60.0991 50.8753 60.1359 50.9122L72.0393 62.8108C72.0762 62.8476 72.1263 62.8683 72.1785 62.8683C72.2306 62.8683 72.2807 62.8476 72.3176 62.8108L74.4798 60.6486C74.5166 60.6117 74.5373 60.5616 74.5373 60.5094C74.5373 60.4573 74.5166 60.4072 74.4798 60.3703L62.5757 48.4723C62.5575 48.4539 62.5359 48.4394 62.512 48.4295C62.488 48.4196 62.4624 48.4147 62.4366 48.4149Z" fill="#222222"/>
<path d="M95.5289 71.2521C95.1192 71.2529 94.7134 71.1728 94.3348 71.0162C93.9562 70.8597 93.6123 70.6298 93.3228 70.3399L77.3228 54.3399C77.1962 54.2132 77.125 54.0414 77.125 53.8622C77.125 53.683 77.1962 53.5112 77.3228 53.3845L80.7796 49.9284C80.9063 49.8017 81.0781 49.7306 81.2573 49.7306C81.4365 49.7306 81.6083 49.8017 81.735 49.9284L97.7343 65.9277C98.1709 66.3638 98.4682 66.9197 98.5887 67.5249C98.7092 68.13 98.6475 68.7574 98.4113 69.3274C98.1751 69.8975 97.7751 70.3847 97.2618 70.7273C96.7486 71.0699 96.1453 71.2525 95.5282 71.2521H95.5289ZM78.7566 53.8622L94.2782 69.3845C94.441 69.555 94.6361 69.6912 94.8522 69.7851C95.0684 69.8791 95.3011 69.9289 95.5367 69.9316C95.7724 69.9344 96.0062 69.89 96.2244 69.8011C96.4427 69.7121 96.6409 69.5805 96.8076 69.4139C96.9742 69.2472 97.1059 69.0489 97.1948 68.8307C97.2837 68.6125 97.3281 68.3786 97.3254 68.143C97.3226 67.9074 97.2728 67.6746 97.1789 67.4585C97.0849 67.2424 96.9487 67.0472 96.7782 66.8845L81.2573 51.3615L78.7566 53.8622Z" fill="#222222"/>
</svg>
