<svg width="50" height="50" viewBox="0 0 50 50" fill="none" xmlns="http://www.w3.org/2000/svg">
<path d="M25 15L38.3333 21.6667V48.3333H11.6667V21.6667L25 15ZM25 15V0M0 48.3333H50M5 48.3333V28.3333H11.6667M45 48.3333V28.3333H38.3333M21.6667 48.3333V38.3333H28.3333V48.3333M25 1.66667H35V8.33333H25M25 31.6667C23.1591 31.6667 21.6667 30.1743 21.6667 28.3333C21.6667 26.4924 23.1591 25 25 25C26.8409 25 28.3333 26.4924 28.3333 28.3333C28.3333 30.1743 26.8409 31.6667 25 31.6667Z" stroke="#222222" stroke-width="1.5"/>
</svg>
