<svg width="150" height="150" viewBox="0 0 150 150" fill="none" xmlns="http://www.w3.org/2000/svg">
<rect x="0.5" y="0.5" width="149" height="149" stroke="#222222"/>
<path d="M47.0377 114.1C47.0377 114.697 47.1683 115.211 47.4297 115.64C47.7003 116.069 48.0597 116.401 48.5077 116.634C48.9557 116.858 49.441 116.97 49.9637 116.97C50.6543 116.97 51.233 116.839 51.6997 116.578C52.1757 116.317 52.5723 116.013 52.8897 115.668V118.244C52.4977 118.543 52.0683 118.781 51.6017 118.958C51.135 119.135 50.5423 119.224 49.8237 119.224C48.7783 119.224 47.8497 119.009 47.0377 118.58C46.2257 118.151 45.591 117.553 45.1337 116.788C44.6763 116.013 44.4477 115.117 44.4477 114.1C44.4477 113.083 44.6763 112.191 45.1337 111.426C45.591 110.651 46.2257 110.049 47.0377 109.62C47.8497 109.191 48.7783 108.976 49.8237 108.976C50.5423 108.976 51.135 109.065 51.6017 109.242C52.0683 109.419 52.4977 109.657 52.8897 109.956V112.532C52.5723 112.177 52.1757 111.874 51.6997 111.622C51.233 111.361 50.6543 111.23 49.9637 111.23C49.441 111.23 48.9557 111.347 48.5077 111.58C48.0597 111.804 47.7003 112.131 47.4297 112.56C47.1683 112.98 47.0377 113.493 47.0377 114.1ZM62.9353 119H56.4953V120.54H54.1293V116.956H55.7253L59.7153 108.71L63.7053 116.956H65.3013V120.54H62.9353V119ZM59.7153 112.98L58.2733 116.956H61.1573L59.7153 112.98ZM66.951 109.2H73.461V111.146H69.233V112.896H73.181V114.814H69.233V117.054H73.461V119H66.951V109.2ZM84.0106 109.2V119H81.6026V111.328H78.3546V114.856C78.3546 116.237 78.0513 117.273 77.4446 117.964C76.8379 118.655 75.8533 119 74.4906 119V116.998C74.9573 116.998 75.3213 116.816 75.5826 116.452C75.8439 116.088 75.9746 115.603 75.9746 114.996V109.2H84.0106ZM86.16 109.2H88.61V113.064L91.942 109.2H94.728L90.752 113.792L94.938 119H92.068L88.61 114.716V119H86.16V109.2ZM98.2448 109.2V114.604L105.007 108.71V119H102.725V113.596L95.9628 119.49V109.2H98.2448Z" fill="#222222"/>
<path d="M92.1621 77.973H57.7027C57.5235 77.973 57.3516 77.9018 57.2249 77.7751C57.0982 77.6484 57.027 77.4765 57.027 77.2973V32.7027C57.027 32.5235 57.0982 32.3517 57.2249 32.225C57.3516 32.0982 57.5235 32.0271 57.7027 32.0271H92.1621C92.3413 32.0271 92.5132 32.0982 92.6399 32.225C92.7666 32.3517 92.8378 32.5235 92.8378 32.7027V43.7298C92.8378 43.909 92.7666 44.0808 92.6399 44.2075C92.5132 44.3342 92.3413 44.4054 92.1621 44.4054C91.9829 44.4054 91.8111 44.3342 91.6843 44.2075C91.5576 44.0808 91.4864 43.909 91.4864 43.7298V33.3784H58.3783V76.6216H91.4864V56.3514C91.4864 56.1722 91.5576 56.0003 91.6843 55.8736C91.8111 55.7469 91.9829 55.6757 92.1621 55.6757C92.3413 55.6757 92.5132 55.7469 92.6399 55.8736C92.7666 56.0003 92.8378 56.1722 92.8378 56.3514V77.2973C92.8378 77.4765 92.7666 77.6484 92.6399 77.7751C92.5132 77.9018 92.3413 77.973 92.1621 77.973Z" fill="#222222"/>
<path d="M86.7568 43.5135H63.1082C62.929 43.5135 62.7571 43.4423 62.6304 43.3156C62.5037 43.1889 62.4325 43.017 62.4325 42.8378C62.4325 42.6586 62.5037 42.4868 62.6304 42.36C62.7571 42.2333 62.929 42.1621 63.1082 42.1621H86.7568C86.936 42.1621 87.1079 42.2333 87.2346 42.36C87.3613 42.4868 87.4325 42.6586 87.4325 42.8378C87.4325 43.017 87.3613 43.1889 87.2346 43.3156C87.1079 43.4423 86.936 43.5135 86.7568 43.5135Z" fill="#222222"/>
<path d="M82.7028 51.6216H63.1082C62.929 51.6216 62.7571 51.5504 62.6304 51.4237C62.5037 51.297 62.4325 51.1251 62.4325 50.9459C62.4325 50.7667 62.5037 50.5948 62.6304 50.4681C62.7571 50.3414 62.929 50.2702 63.1082 50.2702H82.7028C82.882 50.2702 83.0538 50.3414 83.1805 50.4681C83.3073 50.5948 83.3784 50.7667 83.3784 50.9459C83.3784 51.1251 83.3073 51.297 83.1805 51.4237C83.0538 51.5504 82.882 51.6216 82.7028 51.6216Z" fill="#222222"/>
<path d="M76.1757 59.7297H63.1082C62.929 59.7297 62.7571 59.6585 62.6304 59.5318C62.5037 59.4051 62.4325 59.2332 62.4325 59.054C62.4325 58.8748 62.5037 58.703 62.6304 58.5763C62.7571 58.4496 62.929 58.3784 63.1082 58.3784H76.1757C76.3549 58.3784 76.5268 58.4496 76.6535 58.5763C76.7802 58.703 76.8514 58.8748 76.8514 59.054C76.8514 59.2332 76.7802 59.4051 76.6535 59.5318C76.5268 59.6585 76.3549 59.7297 76.1757 59.7297Z" fill="#222222"/>
<path d="M75.946 67.8378H63.1082C62.929 67.8378 62.7571 67.7667 62.6304 67.6399C62.5037 67.5132 62.4325 67.3414 62.4325 67.1622C62.4325 66.983 62.5037 66.8111 62.6304 66.6844C62.7571 66.5577 62.929 66.4865 63.1082 66.4865H75.946C76.1252 66.4865 76.2971 66.5577 76.4238 66.6844C76.5505 66.8111 76.6217 66.983 76.6217 67.1622C76.6217 67.3414 76.5505 67.5132 76.4238 67.6399C76.2971 67.7667 76.1252 67.8378 75.946 67.8378Z" fill="#222222"/>
<path d="M88.3419 62.3568C88.201 62.3568 88.0637 62.3126 87.9493 62.2304L81.9804 57.9561C81.9078 57.9044 81.8462 57.8389 81.799 57.7633C81.7518 57.6877 81.7201 57.6035 81.7055 57.5156C81.691 57.4277 81.6941 57.3377 81.7145 57.251C81.7348 57.1642 81.7722 57.0824 81.8243 57.0101L95.0946 38.4784C95.7662 37.5412 96.7825 36.9091 97.9201 36.7212C99.0577 36.5334 100.223 36.8051 101.16 37.4767C102.098 38.1482 102.73 39.1646 102.918 40.3022C103.105 41.4397 102.834 42.6053 102.162 43.5426L88.8919 62.0743C88.8293 62.1618 88.7468 62.233 88.6511 62.2821C88.5555 62.3313 88.4495 62.3568 88.3419 62.3568ZM83.3162 57.2507L88.1865 60.7385L101.064 42.7561C101.526 42.1101 101.713 41.3069 101.583 40.5232C101.454 39.7394 101.018 39.0392 100.372 38.5767C99.7261 38.1142 98.9229 37.9272 98.1391 38.0569C97.3553 38.1866 96.6551 38.6223 96.1926 39.2682L83.3162 57.2507Z" fill="#222222"/>
<path d="M80.1128 67.5446C80.0107 67.5446 79.9099 67.5215 79.818 67.477C79.7262 67.4325 79.6456 67.3678 79.5823 67.2877C79.519 67.2076 79.4748 67.1142 79.4528 67.0145C79.4308 66.9148 79.4316 66.8114 79.4553 66.7122L81.7155 57.2527C81.7412 57.1449 81.793 57.0451 81.8664 56.9621C81.9397 56.879 82.0324 56.8153 82.1362 56.7765C82.24 56.7377 82.3518 56.7251 82.4616 56.7397C82.5715 56.7542 82.676 56.7956 82.7661 56.8601L88.7351 61.1345C88.8251 61.199 88.898 61.2846 88.9471 61.3839C88.9963 61.4832 89.0203 61.593 89.017 61.7037C89.0138 61.8145 88.9833 61.9227 88.9284 62.0189C88.8734 62.1151 88.7957 62.1963 88.7019 62.2554L80.4729 67.4405C80.3651 67.5085 80.2402 67.5446 80.1128 67.5446ZM82.7972 58.5412L81.1553 65.4128L87.1317 61.6453L82.7972 58.5412Z" fill="#222222"/>
<path d="M98.5047 48.1649C98.3638 48.1649 98.2265 48.1207 98.1121 48.0385L92.1425 43.7642C92.0687 43.7132 92.0057 43.6481 91.9573 43.5725C91.9089 43.497 91.876 43.4126 91.8605 43.3242C91.8451 43.2358 91.8474 43.1452 91.8674 43.0577C91.8873 42.9703 91.9245 42.8876 91.9767 42.8147C92.029 42.7417 92.0952 42.6799 92.1716 42.6328C92.248 42.5857 92.333 42.5543 92.4216 42.5404C92.5102 42.5265 92.6008 42.5305 92.6879 42.5519C92.775 42.5734 92.857 42.612 92.929 42.6655L98.8986 46.9399C99.015 47.0232 99.1019 47.1413 99.1467 47.2772C99.1916 47.4131 99.1922 47.5598 99.1484 47.696C99.1046 47.8323 99.0187 47.9511 98.903 48.0354C98.7873 48.1196 98.6478 48.165 98.5047 48.1649Z" fill="#222222"/>
</svg>
