<svg width="150" height="150" viewBox="0 0 150 150" fill="none" xmlns="http://www.w3.org/2000/svg">
<rect x="0.5" y="0.5" width="149" height="149" stroke="#222222"/>
<path d="M16.5565 109.2H19.0065V113.064L22.3385 109.2H25.1245L21.1485 113.792L25.3345 119H22.4645L19.0065 114.716V119H16.5565V109.2ZM25.102 114.1C25.102 113.344 25.2326 112.653 25.494 112.028C25.7646 111.403 26.138 110.861 26.614 110.404C27.0993 109.947 27.6593 109.597 28.294 109.354C28.938 109.102 29.6333 108.976 30.38 108.976C31.136 108.976 31.836 109.102 32.48 109.354C33.124 109.597 33.6793 109.947 34.146 110.404C34.622 110.861 34.9906 111.403 35.252 112.028C35.5226 112.653 35.658 113.344 35.658 114.1C35.658 114.856 35.5273 115.551 35.266 116.186C35.014 116.821 34.65 117.371 34.174 117.838C33.698 118.305 33.138 118.669 32.494 118.93C31.8593 119.182 31.1546 119.308 30.38 119.308C29.6146 119.308 28.91 119.182 28.266 118.93C27.622 118.669 27.062 118.305 26.586 117.838C26.11 117.371 25.7413 116.821 25.48 116.186C25.228 115.551 25.102 114.856 25.102 114.1ZM27.608 114.1C27.608 114.679 27.72 115.192 27.944 115.64C28.1773 116.079 28.504 116.424 28.924 116.676C29.344 116.928 29.8293 117.054 30.38 117.054C30.94 117.054 31.4253 116.928 31.836 116.676C32.2466 116.424 32.564 116.079 32.788 115.64C33.0213 115.192 33.138 114.679 33.138 114.1C33.138 113.521 33.026 113.013 32.802 112.574C32.578 112.126 32.2606 111.776 31.85 111.524C31.4393 111.272 30.9493 111.146 30.38 111.146C29.8293 111.146 29.344 111.272 28.924 111.524C28.504 111.776 28.1773 112.126 27.944 112.574C27.72 113.013 27.608 113.521 27.608 114.1ZM37.16 109.2H39.526V112.77H43.74V109.2H46.106V119H43.74V114.898H39.526V119H37.16V109.2ZM50.1959 114.1C50.1959 114.697 50.3265 115.211 50.5879 115.64C50.8585 116.069 51.2179 116.401 51.6659 116.634C52.1139 116.858 52.5992 116.97 53.1219 116.97C53.8125 116.97 54.3912 116.839 54.8579 116.578C55.3339 116.317 55.7306 116.013 56.0479 115.668V118.244C55.6559 118.543 55.2265 118.781 54.7599 118.958C54.2932 119.135 53.7005 119.224 52.9819 119.224C51.9365 119.224 51.0079 119.009 50.1959 118.58C49.3839 118.151 48.7492 117.553 48.2919 116.788C47.8345 116.013 47.6059 115.117 47.6059 114.1C47.6059 113.083 47.8345 112.191 48.2919 111.426C48.7492 110.651 49.3839 110.049 50.1959 109.62C51.0079 109.191 51.9365 108.976 52.9819 108.976C53.7005 108.976 54.2932 109.065 54.7599 109.242C55.2265 109.419 55.6559 109.657 56.0479 109.956V112.532C55.7306 112.177 55.3339 111.874 54.8579 111.622C54.3912 111.361 53.8125 111.23 53.1219 111.23C52.5992 111.23 52.1139 111.347 51.6659 111.58C51.2179 111.804 50.8585 112.131 50.5879 112.56C50.3265 112.98 50.1959 113.493 50.1959 114.1ZM65.5195 109.2L60.8995 119H58.4775L59.8075 116.018L56.6015 109.2H59.2475L60.9975 113.806L63.0415 109.2H65.5195ZM75.0418 109.2V119H72.6338V111.328H69.3858V114.856C69.3858 116.237 69.0825 117.273 68.4758 117.964C67.8692 118.655 66.8845 119 65.5218 119V116.998C65.9885 116.998 66.3525 116.816 66.6138 116.452C66.8752 116.088 67.0058 115.603 67.0058 114.996V109.2H75.0418ZM77.1913 109.2H79.5573V112.588H80.5933C81.8439 112.588 82.7913 112.873 83.4353 113.442C84.0793 114.011 84.4013 114.795 84.4013 115.794C84.4013 116.783 84.0793 117.567 83.4353 118.146C82.7913 118.715 81.8439 119 80.5933 119H77.1913V109.2ZM80.5933 114.548H79.5573V117.054H80.5933C81.0693 117.054 81.4426 116.947 81.7133 116.732C81.9839 116.508 82.1193 116.195 82.1193 115.794C82.1193 115.383 81.9839 115.075 81.7133 114.87C81.4426 114.655 81.0693 114.548 80.5933 114.548ZM83.5394 111.328V109.2H91.2954V111.328H88.6074V119H86.2274V111.328H83.5394ZM97.5525 119L96.6285 117.11H93.5205L92.6105 119H89.9225L95.0885 108.584L100.241 119H97.5525ZM95.0885 112.812L93.9965 115.304H96.1665L95.0885 112.812ZM103.675 116.872H107.847V109.2H110.255V116.872H111.795V120.89H109.527V119H101.267V109.2H103.675V116.872ZM115.594 109.2V114.604L122.356 108.71V119H120.074V113.596L113.312 119.49V109.2H115.594ZM126.696 109.2V114.604L133.458 108.71V119H131.176V113.596L124.414 119.49V109.2H126.696Z" fill="#222222"/>
<mask id="path-3-inside-1" fill="white">
<path d="M93.3726 42.5479C95.0234 40.9717 95.4666 38.5099 94.469 36.4573C93.4714 34.4048 91.2617 33.2317 89.0022 33.5557C86.7427 33.8794 84.9512 35.6258 84.5707 37.8757C84.1898 40.126 85.3071 42.3641 87.3341 43.4131C86.4922 44.1179 86.004 45.1585 86 46.2565V52.2552H83.75V46.2565C83.746 43.6006 81.76 41.3653 79.1226 41.0483C80.676 39.5676 81.1715 37.2906 80.3739 35.2985C79.5763 33.306 77.6464 32 75.5 32C73.3536 32 71.4237 33.306 70.6261 35.2985C69.8285 37.2906 70.324 39.5676 71.8774 41.0483C69.24 41.3653 67.254 43.6006 67.25 46.2565V52.2552H65V46.2565C64.996 45.1585 64.5078 44.1179 63.6659 43.4131C65.6929 42.3641 66.8102 40.126 66.4293 37.8757C66.0485 35.6258 64.2573 33.8794 61.9978 33.5557C59.7383 33.2317 57.5286 34.4048 56.531 36.4573C55.5334 38.5099 55.9766 40.9717 57.6274 42.5479C54.99 42.865 53.004 45.1003 53 47.7562V59.0038C53.0029 61.0285 54.17 62.8713 56 63.739V77H57.5V64.1926C57.7461 64.2278 62.75 64.2527 62.75 64.2527C63.1642 64.2527 63.5 64.5884 63.5 65.0025V77H69.5V62.753H74.75V75.5003H71.75V77H79.25V75.5003H76.25V62.753H81.5V77H87.5V65.0025C87.5 64.5884 87.8358 64.2527 88.25 64.2527C88.25 64.2527 93.2539 64.2278 93.5 64.1926V77H95V63.739C96.83 62.8713 97.9971 61.0285 98 59.0038V47.7562C97.996 45.1003 96.01 42.865 93.3726 42.5479ZM86 38.7581C86 36.6876 87.6791 35.0089 89.75 35.0089C91.8209 35.0089 93.5 36.6876 93.5 38.7581C93.5 40.8286 91.8209 42.5073 89.75 42.5073C87.6798 42.5047 86.0026 40.8278 86 38.7581ZM77.0989 42.5073L75.5 44.9069L73.9011 42.5073H77.0989ZM71.75 37.2584C71.75 35.1879 73.4291 33.5092 75.5 33.5092C77.5709 33.5092 79.25 35.1879 79.25 37.2584C79.25 39.3289 77.5709 41.0076 75.5 41.0076C73.4298 41.0051 71.7526 39.3282 71.75 37.2584ZM68.75 46.2565C68.7562 44.3369 70.2145 42.7336 72.125 42.5454L75.5 47.6061L78.875 42.5432C80.7866 42.7314 82.2449 44.3361 82.25 46.2565V52.2552H79.25V56.7543H71.75V52.2552H68.75V46.2565ZM57.5 38.7581C57.5 36.6876 59.1791 35.0089 61.25 35.0089C63.3209 35.0089 65 36.6876 65 38.7581C65 40.8286 63.3209 42.5073 61.25 42.5073C59.1798 42.5047 57.5026 40.8278 57.5 38.7581ZM68 75.5003H65V65.0025C65 63.7602 63.9926 62.753 62.75 62.753H58.25C56.1798 62.7505 54.5026 61.0736 54.5 59.0038V47.7562C54.5026 45.6864 56.1798 44.0095 58.25 44.007H61.25C62.4926 44.007 63.5 45.0142 63.5 46.2565V53.7549H70.25V56.7543H61.25C60.8358 56.7543 60.5 56.4185 60.5 56.0044V47.0063H59V56.0044C59 57.2467 60.0074 58.254 61.25 58.254H64.25C66.3202 58.2565 67.9974 59.9334 68 62.0032V75.5003ZM69.4399 61.2533C69.2759 60.1132 68.7405 59.0591 67.9169 58.254H83.0831C82.2595 59.0591 81.7241 60.1132 81.5601 61.2533H69.4399ZM96.5 59.0038C96.4974 61.0736 94.8202 62.7505 92.75 62.753H88.25C87.0074 62.753 86 63.7602 86 65.0025V75.5003H83V62.0032C83.0026 59.9334 84.6798 58.2565 86.75 58.254H89.75C90.9926 58.254 92 57.2467 92 56.0044V47.0063H90.5V56.0044C90.5 56.4185 90.1642 56.7543 89.75 56.7543H80.75V53.7549H87.5V46.2565C87.5 45.0142 88.5074 44.007 89.75 44.007H92.75C94.8202 44.0095 96.4974 45.6864 96.5 47.7562V59.0038Z"/>
</mask>
<path d="M93.3726 42.5479C95.0234 40.9717 95.4666 38.5099 94.469 36.4573C93.4714 34.4048 91.2617 33.2317 89.0022 33.5557C86.7427 33.8794 84.9512 35.6258 84.5707 37.8757C84.1898 40.126 85.3071 42.3641 87.3341 43.4131C86.4922 44.1179 86.004 45.1585 86 46.2565V52.2552H83.75V46.2565C83.746 43.6006 81.76 41.3653 79.1226 41.0483C80.676 39.5676 81.1715 37.2906 80.3739 35.2985C79.5763 33.306 77.6464 32 75.5 32C73.3536 32 71.4237 33.306 70.6261 35.2985C69.8285 37.2906 70.324 39.5676 71.8774 41.0483C69.24 41.3653 67.254 43.6006 67.25 46.2565V52.2552H65V46.2565C64.996 45.1585 64.5078 44.1179 63.6659 43.4131C65.6929 42.3641 66.8102 40.126 66.4293 37.8757C66.0485 35.6258 64.2573 33.8794 61.9978 33.5557C59.7383 33.2317 57.5286 34.4048 56.531 36.4573C55.5334 38.5099 55.9766 40.9717 57.6274 42.5479C54.99 42.865 53.004 45.1003 53 47.7562V59.0038C53.0029 61.0285 54.17 62.8713 56 63.739V77H57.5V64.1926C57.7461 64.2278 62.75 64.2527 62.75 64.2527C63.1642 64.2527 63.5 64.5884 63.5 65.0025V77H69.5V62.753H74.75V75.5003H71.75V77H79.25V75.5003H76.25V62.753H81.5V77H87.5V65.0025C87.5 64.5884 87.8358 64.2527 88.25 64.2527C88.25 64.2527 93.2539 64.2278 93.5 64.1926V77H95V63.739C96.83 62.8713 97.9971 61.0285 98 59.0038V47.7562C97.996 45.1003 96.01 42.865 93.3726 42.5479ZM86 38.7581C86 36.6876 87.6791 35.0089 89.75 35.0089C91.8209 35.0089 93.5 36.6876 93.5 38.7581C93.5 40.8286 91.8209 42.5073 89.75 42.5073C87.6798 42.5047 86.0026 40.8278 86 38.7581ZM77.0989 42.5073L75.5 44.9069L73.9011 42.5073H77.0989ZM71.75 37.2584C71.75 35.1879 73.4291 33.5092 75.5 33.5092C77.5709 33.5092 79.25 35.1879 79.25 37.2584C79.25 39.3289 77.5709 41.0076 75.5 41.0076C73.4298 41.0051 71.7526 39.3282 71.75 37.2584ZM68.75 46.2565C68.7562 44.3369 70.2145 42.7336 72.125 42.5454L75.5 47.6061L78.875 42.5432C80.7866 42.7314 82.2449 44.3361 82.25 46.2565V52.2552H79.25V56.7543H71.75V52.2552H68.75V46.2565ZM57.5 38.7581C57.5 36.6876 59.1791 35.0089 61.25 35.0089C63.3209 35.0089 65 36.6876 65 38.7581C65 40.8286 63.3209 42.5073 61.25 42.5073C59.1798 42.5047 57.5026 40.8278 57.5 38.7581ZM68 75.5003H65V65.0025C65 63.7602 63.9926 62.753 62.75 62.753H58.25C56.1798 62.7505 54.5026 61.0736 54.5 59.0038V47.7562C54.5026 45.6864 56.1798 44.0095 58.25 44.007H61.25C62.4926 44.007 63.5 45.0142 63.5 46.2565V53.7549H70.25V56.7543H61.25C60.8358 56.7543 60.5 56.4185 60.5 56.0044V47.0063H59V56.0044C59 57.2467 60.0074 58.254 61.25 58.254H64.25C66.3202 58.2565 67.9974 59.9334 68 62.0032V75.5003ZM69.4399 61.2533C69.2759 60.1132 68.7405 59.0591 67.9169 58.254H83.0831C82.2595 59.0591 81.7241 60.1132 81.5601 61.2533H69.4399ZM96.5 59.0038C96.4974 61.0736 94.8202 62.7505 92.75 62.753H88.25C87.0074 62.753 86 63.7602 86 65.0025V75.5003H83V62.0032C83.0026 59.9334 84.6798 58.2565 86.75 58.254H89.75C90.9926 58.254 92 57.2467 92 56.0044V47.0063H90.5V56.0044C90.5 56.4185 90.1642 56.7543 89.75 56.7543H80.75V53.7549H87.5V46.2565C87.5 45.0142 88.5074 44.007 89.75 44.007H92.75C94.8202 44.0095 96.4974 45.6864 96.5 47.7562V59.0038Z" fill="#222222" stroke="white" stroke-width="0.2" mask="url(#path-3-inside-1)"/>
</svg>
