<svg width="150" height="150" viewBox="0 0 150 150" fill="none" xmlns="http://www.w3.org/2000/svg">
<rect x="0.5" y="0.5" width="149" height="149" stroke="#222222"/>
<path d="M16.9803 99.2H20.3823C21.633 99.2 22.5803 99.4847 23.2243 100.054C23.8683 100.623 24.1903 101.407 24.1903 102.406C24.1903 103.395 23.8683 104.179 23.2243 104.758C22.5803 105.327 21.633 105.612 20.3823 105.612H19.3463V109H16.9803V99.2ZM20.3823 101.146H19.3463V103.652H20.3823C20.8583 103.652 21.2317 103.545 21.5023 103.33C21.773 103.115 21.9083 102.807 21.9083 102.406C21.9083 101.995 21.773 101.683 21.5023 101.468C21.2317 101.253 20.8583 101.146 20.3823 101.146ZM25.703 99.2H32.213V101.146H27.985V102.896H31.933V104.814H27.985V107.054H32.213V109H25.703V99.2ZM34.2225 99.2H40.0605V101.328H36.5885V109H34.2225V99.2ZM43.5026 99.2V104.604L50.2646 98.71V109H47.9826V103.596L41.2206 109.49V99.2H43.5026ZM54.3521 104.1C54.3521 104.697 54.4828 105.211 54.7441 105.64C55.0148 106.069 55.3741 106.401 55.8221 106.634C56.2701 106.858 56.7555 106.97 57.2781 106.97C57.9688 106.97 58.5475 106.839 59.0141 106.578C59.4901 106.317 59.8868 106.013 60.2041 105.668V108.244C59.8121 108.543 59.3828 108.781 58.9161 108.958C58.4495 109.135 57.8568 109.224 57.1381 109.224C56.0928 109.224 55.1641 109.009 54.3521 108.58C53.5401 108.151 52.9055 107.553 52.4481 106.788C51.9908 106.013 51.7621 105.117 51.7621 104.1C51.7621 103.083 51.9908 102.191 52.4481 101.426C52.9055 100.651 53.5401 100.049 54.3521 99.62C55.1641 99.1907 56.0928 98.976 57.1381 98.976C57.8568 98.976 58.4495 99.0647 58.9161 99.242C59.3828 99.4193 59.8121 99.6573 60.2041 99.956V102.532C59.8868 102.177 59.4901 101.874 59.0141 101.622C58.5475 101.361 57.9688 101.23 57.2781 101.23C56.7555 101.23 56.2701 101.347 55.8221 101.58C55.3741 101.804 55.0148 102.131 54.7441 102.56C54.4828 102.98 54.3521 103.493 54.3521 104.1ZM60.721 101.328V99.2H68.477V101.328H65.789V109H63.409V101.328H60.721ZM69.5487 99.2H72.9507C74.2014 99.2 75.1487 99.4847 75.7927 100.054C76.4367 100.623 76.7587 101.407 76.7587 102.406C76.7587 103.395 76.4367 104.179 75.7927 104.758C75.1487 105.327 74.2014 105.612 72.9507 105.612H71.9147V109H69.5487V99.2ZM72.9507 101.146H71.9147V103.652H72.9507C73.4267 103.652 73.8 103.545 74.0707 103.33C74.3414 103.115 74.4767 102.807 74.4767 102.406C74.4767 101.995 74.3414 101.683 74.0707 101.468C73.8 101.253 73.4267 101.146 72.9507 101.146ZM83.867 109L82.943 107.11H79.835L78.925 109H76.237L81.403 98.584L86.555 109H83.867ZM81.403 102.812L80.311 105.304H82.481L81.403 102.812ZM89.9899 106.872H94.1619V99.2H96.5699V106.872H98.1099V110.89H95.8419V109H87.5819V99.2H89.9899V106.872ZM101.909 99.2V104.604L108.671 98.71V109H106.389V103.596L99.6268 109.49V99.2H101.909ZM117.728 99.2V109H115.348V105.612H114.62L112.52 109H109.748L112.282 105.304C111.638 105.061 111.153 104.688 110.826 104.184C110.5 103.671 110.336 103.078 110.336 102.406C110.336 101.463 110.658 100.693 111.302 100.096C111.946 99.4987 112.894 99.2 114.144 99.2H117.728ZM114.326 103.764H115.348V101.216H114.326C113.85 101.216 113.472 101.328 113.192 101.552C112.922 101.767 112.786 102.079 112.786 102.49C112.786 102.891 112.922 103.204 113.192 103.428C113.472 103.652 113.85 103.764 114.326 103.764ZM126.272 99.2V104.604L133.034 98.71V109H130.752V103.596L123.99 109.49V99.2H126.272ZM12.4755 119.2H15.8775C17.1281 119.2 18.0755 119.485 18.7195 120.054C19.3635 120.623 19.6855 121.407 19.6855 122.406C19.6855 123.395 19.3635 124.179 18.7195 124.758C18.0755 125.327 17.1281 125.612 15.8775 125.612H14.8415V129H12.4755V119.2ZM15.8775 121.146H14.8415V123.652H15.8775C16.3535 123.652 16.7268 123.545 16.9975 123.33C17.2681 123.115 17.4035 122.807 17.4035 122.406C17.4035 121.995 17.2681 121.683 16.9975 121.468C16.7268 121.253 16.3535 121.146 15.8775 121.146ZM21.1981 119.2H27.7081V121.146H23.4801V122.896H27.4281V124.814H23.4801V127.054H27.7081V129H21.1981V119.2ZM29.0737 124.1C29.0737 123.344 29.2043 122.653 29.4657 122.028C29.7363 121.403 30.1097 120.861 30.5857 120.404C31.071 119.947 31.631 119.597 32.2657 119.354C32.9097 119.102 33.605 118.976 34.3517 118.976C35.1077 118.976 35.8077 119.102 36.4517 119.354C37.0957 119.597 37.651 119.947 38.1177 120.404C38.5937 120.861 38.9623 121.403 39.2237 122.028C39.4943 122.653 39.6297 123.344 39.6297 124.1C39.6297 124.856 39.499 125.551 39.2377 126.186C38.9857 126.821 38.6217 127.371 38.1457 127.838C37.6697 128.305 37.1097 128.669 36.4657 128.93C35.831 129.182 35.1263 129.308 34.3517 129.308C33.5863 129.308 32.8817 129.182 32.2377 128.93C31.5937 128.669 31.0337 128.305 30.5577 127.838C30.0817 127.371 29.713 126.821 29.4517 126.186C29.1997 125.551 29.0737 124.856 29.0737 124.1ZM31.5797 124.1C31.5797 124.679 31.6917 125.192 31.9157 125.64C32.149 126.079 32.4757 126.424 32.8957 126.676C33.3157 126.928 33.801 127.054 34.3517 127.054C34.9117 127.054 35.397 126.928 35.8077 126.676C36.2183 126.424 36.5357 126.079 36.7597 125.64C36.993 125.192 37.1097 124.679 37.1097 124.1C37.1097 123.521 36.9977 123.013 36.7737 122.574C36.5497 122.126 36.2323 121.776 35.8217 121.524C35.411 121.272 34.921 121.146 34.3517 121.146C33.801 121.146 33.3157 121.272 32.8957 121.524C32.4757 121.776 32.149 122.126 31.9157 122.574C31.6917 123.013 31.5797 123.521 31.5797 124.1ZM41.1317 119.2H44.5337C45.7844 119.2 46.7317 119.485 47.3757 120.054C48.0197 120.623 48.3417 121.407 48.3417 122.406C48.3417 123.395 48.0197 124.179 47.3757 124.758C46.7317 125.327 45.7844 125.612 44.5337 125.612H43.4977V129H41.1317V119.2ZM44.5337 121.146H43.4977V123.652H44.5337C45.0097 123.652 45.383 123.545 45.6537 123.33C45.9244 123.115 46.0597 122.807 46.0597 122.406C46.0597 121.995 45.9244 121.683 45.6537 121.468C45.383 121.253 45.0097 121.146 44.5337 121.146ZM49.9384 119.2H55.7764V121.328H52.3044V129H49.9384V119.2ZM62.1219 129L61.1979 127.11H58.0899L57.1799 129H54.4919L59.6579 118.584L64.8099 129H62.1219ZM59.6579 122.812L58.5659 125.304H60.7359L59.6579 122.812ZM65.8368 119.2H68.2028V122.77H72.4168V119.2H74.7828V129H72.4168V124.898H68.2028V129H65.8368V119.2ZM79.1246 119.2V124.604L85.8866 118.71V129H83.6046V123.596L76.8426 129.49V119.2H79.1246ZM91.8642 129.224C90.8749 129.224 90.0629 129.07 89.4282 128.762C88.8029 128.445 88.3362 128.034 88.0282 127.53C87.7295 127.017 87.5802 126.471 87.5802 125.892H89.9182C89.9369 126.377 90.1142 126.737 90.4502 126.97C90.7955 127.203 91.2342 127.32 91.7662 127.32C92.2982 127.32 92.7229 127.222 93.0402 127.026C93.3575 126.821 93.5162 126.508 93.5162 126.088C93.5162 125.677 93.3295 125.346 92.9562 125.094C92.5829 124.842 91.9902 124.716 91.1782 124.716V123.19C91.8689 123.19 92.3822 123.073 92.7182 122.84C93.0635 122.607 93.2362 122.317 93.2362 121.972C93.2362 121.664 93.1102 121.412 92.8582 121.216C92.6155 121.011 92.2609 120.908 91.7942 120.908C91.2902 120.908 90.8935 121.02 90.6042 121.244C90.3242 121.459 90.1842 121.734 90.1842 122.07H88.0002C88.0002 121.482 88.1449 120.959 88.4342 120.502C88.7235 120.045 89.1482 119.685 89.7082 119.424C90.2775 119.153 90.9729 119.018 91.7942 119.018C92.6249 119.018 93.3202 119.139 93.8802 119.382C94.4402 119.625 94.8602 119.951 95.1402 120.362C95.4295 120.773 95.5742 121.23 95.5742 121.734C95.5742 122.247 95.4109 122.681 95.0842 123.036C94.7575 123.381 94.3189 123.657 93.7682 123.862C94.4122 124.067 94.9209 124.371 95.2942 124.772C95.6675 125.173 95.8542 125.691 95.8542 126.326C95.8542 127.175 95.5182 127.871 94.8462 128.412C94.1835 128.953 93.1895 129.224 91.8642 129.224ZM103.671 129L102.747 127.11H99.6387L98.7287 129H96.0407L101.207 118.584L106.359 129H103.671ZM101.207 122.812L100.115 125.304H102.285L101.207 122.812ZM109.794 126.872H113.966V119.2H116.374V126.872H117.914V130.89H115.646V129H107.386V119.2H109.794V126.872ZM121.713 119.2V124.604L128.475 118.71V129H126.193V123.596L119.431 129.49V119.2H121.713ZM137.532 119.2V129H135.152V125.612H134.424L132.324 129H129.552L132.086 125.304C131.442 125.061 130.957 124.688 130.63 124.184C130.303 123.671 130.14 123.078 130.14 122.406C130.14 121.463 130.462 120.693 131.106 120.096C131.75 119.499 132.697 119.2 133.948 119.2H137.532ZM134.13 123.764H135.152V121.216H134.13C133.654 121.216 133.276 121.328 132.996 121.552C132.725 121.767 132.59 122.079 132.59 122.49C132.59 122.891 132.725 123.204 132.996 123.428C133.276 123.652 133.654 123.764 134.13 123.764Z" fill="#222222"/>
<path d="M87.1621 77.973H52.7027C52.5235 77.973 52.3516 77.9018 52.2249 77.7751C52.0982 77.6484 52.027 77.4765 52.027 77.2973V32.7027C52.027 32.5235 52.0982 32.3517 52.2249 32.225C52.3516 32.0982 52.5235 32.0271 52.7027 32.0271H87.1621C87.3413 32.0271 87.5132 32.0982 87.6399 32.225C87.7666 32.3517 87.8378 32.5235 87.8378 32.7027V43.7298C87.8378 43.909 87.7666 44.0808 87.6399 44.2075C87.5132 44.3342 87.3413 44.4054 87.1621 44.4054C86.9829 44.4054 86.8111 44.3342 86.6843 44.2075C86.5576 44.0808 86.4864 43.909 86.4864 43.7298V33.3784H53.3783V76.6216H86.4864V76.3514C86.4864 76.1722 86.5576 76.0003 86.6843 75.8736C86.8111 75.7469 86.9829 75.6757 87.1621 75.6757C87.3413 75.6757 87.5132 75.7469 87.6399 75.8736C87.7666 76.0003 87.8378 76.1722 87.8378 76.3514V77.2973C87.8378 77.4765 87.7666 77.6484 87.6399 77.7751C87.5132 77.9018 87.3413 77.973 87.1621 77.973Z" fill="#222222"/>
<path d="M81.7568 43.5135H58.1082C57.929 43.5135 57.7571 43.4423 57.6304 43.3156C57.5037 43.1889 57.4325 43.017 57.4325 42.8378C57.4325 42.6586 57.5037 42.4868 57.6304 42.36C57.7571 42.2333 57.929 42.1621 58.1082 42.1621H81.7568C81.936 42.1621 82.1079 42.2333 82.2346 42.36C82.3613 42.4868 82.4325 42.6586 82.4325 42.8378C82.4325 43.017 82.3613 43.1889 82.2346 43.3156C82.1079 43.4423 81.936 43.5135 81.7568 43.5135Z" fill="#222222"/>
<path d="M74.7028 51.6216H58.1082C57.929 51.6216 57.7571 51.5504 57.6304 51.4237C57.5037 51.297 57.4325 51.1251 57.4325 50.9459C57.4325 50.7667 57.5037 50.5948 57.6304 50.4681C57.7571 50.3414 57.929 50.2702 58.1082 50.2702H74.7028C74.882 50.2702 75.0538 50.3414 75.1805 50.4681C75.3073 50.5948 75.3784 50.7667 75.3784 50.9459C75.3784 51.1251 75.3073 51.297 75.1805 51.4237C75.0538 51.5504 74.882 51.6216 74.7028 51.6216Z" fill="#222222"/>
<path d="M71.1757 59.7297H58.1082C57.929 59.7297 57.7571 59.6585 57.6304 59.5318C57.5037 59.4051 57.4325 59.2332 57.4325 59.054C57.4325 58.8748 57.5037 58.703 57.6304 58.5763C57.7571 58.4496 57.929 58.3784 58.1082 58.3784H71.1757C71.3549 58.3784 71.5268 58.4496 71.6535 58.5763C71.7802 58.703 71.8514 58.8748 71.8514 59.054C71.8514 59.2332 71.7802 59.4051 71.6535 59.5318C71.5268 59.6585 71.3549 59.7297 71.1757 59.7297Z" fill="#222222"/>
<path d="M70.946 67.8378H58.1082C57.929 67.8378 57.7571 67.7667 57.6304 67.6399C57.5037 67.5132 57.4325 67.3414 57.4325 67.1622C57.4325 66.983 57.5037 66.8111 57.6304 66.6844C57.7571 66.5577 57.929 66.4865 58.1082 66.4865H70.946C71.1252 66.4865 71.2971 66.5577 71.4238 66.6844C71.5505 66.8111 71.6217 66.983 71.6217 67.1622C71.6217 67.3414 71.5505 67.5132 71.4238 67.6399C71.2971 67.7667 71.1252 67.8378 70.946 67.8378Z" fill="#222222"/>
<path d="M81 75H80.25C80.25 75.2841 80.4105 75.5438 80.6646 75.6708C80.9187 75.7979 81.2227 75.7704 81.45 75.6L81 75ZM87 70.5L87.45 69.9C87.1833 69.7 86.8167 69.7 86.55 69.9L87 70.5ZM93 75L92.55 75.6C92.7773 75.7704 93.0813 75.7979 93.3354 75.6708C93.5895 75.5438 93.75 75.2841 93.75 75H93ZM87 65.25C82.4436 65.25 78.75 61.5563 78.75 57H77.25C77.25 62.3848 81.6152 66.75 87 66.75V65.25ZM95.25 57C95.25 61.5563 91.5563 65.25 87 65.25V66.75C92.3848 66.75 96.75 62.3848 96.75 57H95.25ZM87 48.75C91.5563 48.75 95.25 52.4437 95.25 57H96.75C96.75 51.6152 92.3848 47.25 87 47.25V48.75ZM87 47.25C81.6152 47.25 77.25 51.6152 77.25 57H78.75C78.75 52.4437 82.4436 48.75 87 48.75V47.25ZM80.25 63V75H81.75V63H80.25ZM81.45 75.6L87.45 71.1L86.55 69.9L80.55 74.4L81.45 75.6ZM86.55 71.1L92.55 75.6L93.45 74.4L87.45 69.9L86.55 71.1ZM93.75 75V63H92.25V75H93.75Z" fill="#222222"/>
</svg>
