<svg width="32" height="32" viewBox="0 0 32 32" fill="none" xmlns="http://www.w3.org/2000/svg">
<path d="M27.5103 4.48975C24.615 1.59444 20.7656 0 16.6711 0C12.5766 0 8.72706 1.59444 5.83175 4.48975C2.93644 7.38506 1.34206 11.2344 1.34206 15.3289C1.34206 17.9226 1.99862 20.4714 3.24487 22.7291L0 32L9.27081 28.7552C11.5286 30.0013 14.0773 30.6579 16.671 30.6579C20.7655 30.6579 24.615 29.0634 27.5102 26.1682C30.4055 23.2729 32 19.4235 32 15.3289C32 11.2344 30.4055 7.385 27.5103 4.48975ZM24.2491 21.0234L22.4794 22.7931C21.0134 24.2591 16.8537 22.4765 13.1886 18.8114C9.5235 15.1462 7.74081 10.9867 9.20687 9.52063L10.9765 7.751C11.343 7.3845 11.9373 7.3845 12.3038 7.751L14.5158 9.96306C14.8823 10.3296 14.8823 10.9238 14.5158 11.2903L13.1886 12.6176C14.476 15.3355 16.6645 17.5239 19.3824 18.8114L20.7097 17.4841C21.0762 17.1176 21.6704 17.1176 22.0369 17.4841L24.249 19.6962C24.6156 20.0627 24.6156 20.6569 24.2491 21.0234Z" fill="#0FBCB2"/>
</svg>
